<svg xmlns="http://www.w3.org/2000/svg" xmlns:xlink="http://www.w3.org/1999/xlink" width="256" zoomAndPan="magnify" viewBox="0 0 192 191.999996" height="256" preserveAspectRatio="xMidYMid meet" version="1.2"><defs><clipPath id="50f3df9e99"><path d="M 41.671875 45 L 150.421875 45 L 150.421875 147 L 41.671875 147 Z M 41.671875 45 "/></clipPath></defs><g id="1f8377121a"><g clip-rule="nonzero" clip-path="url(#50f3df9e99)"><path style=" stroke:none;fill-rule:nonzero;fill:#4d4d4d;fill-opacity:1;" d="M 61.726562 128.667969 L 59.488281 128.667969 L 59.488281 116.746094 L 61.832031 116.746094 L 66.714844 124.707031 L 66.714844 116.746094 L 68.953125 116.746094 L 68.953125 128.667969 L 66.535156 128.667969 L 61.726562 120.894531 Z M 71.515625 126.753906 C 71.144531 126.0625 70.957031 125.222656 70.957031 124.230469 C 70.957031 123.46875 71.140625 122.734375 71.515625 122.023438 C 71.890625 121.316406 72.421875 120.773438 73.109375 120.398438 C 73.792969 120.023438 74.5625 119.835938 75.40625 119.835938 C 76.714844 119.835938 77.785156 120.261719 78.621094 121.109375 C 79.457031 121.957031 79.875 123.03125 79.875 124.324219 C 79.875 125.632812 79.453125 126.714844 78.609375 127.574219 C 77.765625 128.433594 76.703125 128.863281 75.421875 128.863281 C 74.632812 128.863281 73.875 128.683594 73.15625 128.328125 C 72.4375 127.96875 71.890625 127.445312 71.515625 126.753906 Z M 73.300781 124.351562 C 73.300781 125.207031 73.503906 125.863281 73.910156 126.320312 C 74.316406 126.773438 74.820312 127 75.414062 127 C 76.011719 127 76.511719 126.773438 76.917969 126.320312 C 77.320312 125.863281 77.523438 125.203125 77.523438 124.335938 C 77.523438 123.488281 77.320312 122.839844 76.917969 122.382812 C 76.511719 121.925781 76.011719 121.699219 75.414062 121.699219 C 74.820312 121.699219 74.316406 121.925781 73.910156 122.382812 C 73.503906 122.839844 73.300781 123.496094 73.300781 124.351562 Z M 88.648438 116.746094 L 86.238281 116.746094 L 86.238281 128.667969 L 88.648438 128.667969 Z M 100.945312 122.074219 C 101.105469 122.324219 101.183594 122.875 101.183594 123.734375 L 101.183594 128.667969 L 103.46875 128.667969 L 103.46875 123.148438 C 103.46875 122.324219 103.390625 121.726562 103.234375 121.359375 C 103.015625 120.859375 102.6875 120.480469 102.25 120.222656 C 101.808594 119.96875 101.273438 119.835938 100.636719 119.835938 C 100.136719 119.835938 99.667969 119.953125 99.230469 120.179688 C 98.789062 120.40625 98.378906 120.75 98 121.210938 C 97.738281 120.75 97.40625 120.40625 97 120.179688 C 96.59375 119.953125 96.113281 119.835938 95.558594 119.835938 C 94.515625 119.835938 93.621094 120.296875 92.863281 121.210938 L 92.863281 120.03125 L 90.757812 120.03125 L 90.757812 128.667969 L 93.042969 128.667969 L 93.042969 124.472656 C 93.042969 123.644531 93.105469 123.050781 93.226562 122.691406 C 93.347656 122.335938 93.550781 122.058594 93.832031 121.871094 C 94.117188 121.679688 94.433594 121.585938 94.785156 121.585938 C 95.078125 121.585938 95.308594 121.644531 95.480469 121.765625 C 95.652344 121.882812 95.777344 122.066406 95.859375 122.308594 C 95.941406 122.554688 95.980469 123.097656 95.980469 123.9375 L 95.980469 128.667969 L 98.269531 128.667969 L 98.269531 124.523438 C 98.269531 123.707031 98.332031 123.113281 98.457031 122.738281 C 98.582031 122.359375 98.785156 122.074219 99.066406 121.878906 C 99.347656 121.683594 99.648438 121.585938 99.96875 121.585938 C 100.410156 121.585938 100.734375 121.75 100.945312 122.074219 Z M 110.695312 127.726562 C 110.304688 128.105469 109.886719 128.390625 109.441406 128.578125 C 109 128.769531 108.523438 128.863281 108.019531 128.863281 C 107.128906 128.863281 106.429688 128.621094 105.914062 128.140625 C 105.402344 127.65625 105.144531 127.046875 105.144531 126.308594 C 105.144531 125.824219 105.261719 125.386719 105.496094 125.003906 C 105.730469 124.625 106.054688 124.332031 106.476562 124.128906 C 106.898438 123.921875 107.503906 123.746094 108.296875 123.59375 C 109.363281 123.394531 110.105469 123.207031 110.519531 123.035156 L 110.519531 122.804688 C 110.519531 122.367188 110.410156 122.054688 110.191406 121.867188 C 109.976562 121.679688 109.566406 121.585938 108.964844 121.585938 C 108.554688 121.585938 108.238281 121.667969 108.011719 121.824219 C 107.78125 121.984375 107.597656 122.265625 107.457031 122.667969 L 105.382812 122.292969 C 105.617188 121.457031 106.015625 120.839844 106.585938 120.441406 C 107.15625 120.039062 108.003906 119.835938 109.125 119.835938 C 110.144531 119.835938 110.90625 119.957031 111.40625 120.199219 C 111.902344 120.441406 112.253906 120.746094 112.457031 121.117188 C 112.664062 121.488281 112.765625 122.171875 112.765625 123.164062 L 112.738281 125.832031 C 112.738281 126.589844 112.777344 127.148438 112.847656 127.511719 C 112.921875 127.871094 113.058594 128.257812 113.261719 128.667969 L 110.996094 128.667969 C 110.9375 128.515625 110.863281 128.292969 110.777344 127.996094 C 110.742188 127.859375 110.714844 127.769531 110.695312 127.726562 Z M 110.519531 124.523438 C 110.226562 124.621094 109.761719 124.734375 109.125 124.871094 C 108.492188 125.007812 108.074219 125.140625 107.878906 125.269531 C 107.582031 125.480469 107.433594 125.75 107.433594 126.074219 C 107.433594 126.394531 107.550781 126.671875 107.792969 126.90625 C 108.03125 127.136719 108.332031 127.253906 108.703125 127.253906 C 109.113281 127.253906 109.507812 127.117188 109.882812 126.847656 C 110.160156 126.640625 110.339844 126.390625 110.429688 126.089844 C 110.488281 125.894531 110.519531 125.523438 110.519531 124.976562 Z M 120.796875 120.03125 L 122.9375 120.03125 L 122.9375 127.78125 C 122.9375 128.800781 122.855469 129.5625 122.683594 130.066406 C 122.515625 130.570312 122.28125 130.96875 121.976562 131.253906 C 121.671875 131.542969 121.269531 131.765625 120.761719 131.929688 C 120.253906 132.09375 119.613281 132.171875 118.835938 132.171875 C 117.371094 132.171875 116.332031 131.921875 115.71875 131.421875 C 115.105469 130.917969 114.800781 130.285156 114.800781 129.515625 C 114.800781 129.4375 114.800781 129.347656 114.808594 129.238281 L 117.417969 129.554688 C 117.460938 129.859375 117.5625 130.066406 117.722656 130.179688 C 117.9375 130.34375 118.28125 130.425781 118.746094 130.425781 C 119.34375 130.425781 119.789062 130.335938 120.089844 130.15625 C 120.289062 130.039062 120.441406 129.84375 120.542969 129.578125 C 120.617188 129.390625 120.652344 129.039062 120.652344 128.53125 L 120.652344 127.269531 C 119.96875 128.203125 119.105469 128.667969 118.0625 128.667969 C 116.902344 128.667969 115.980469 128.179688 115.304688 127.195312 C 114.773438 126.421875 114.503906 125.457031 114.503906 124.300781 C 114.503906 122.855469 114.855469 121.75 115.550781 120.984375 C 116.25 120.21875 117.117188 119.835938 118.152344 119.835938 C 119.222656 119.835938 120.101562 120.304688 120.796875 121.246094 Z M 120.691406 124.230469 C 120.691406 123.335938 120.507812 122.671875 120.136719 122.238281 C 119.769531 121.804688 119.300781 121.585938 118.738281 121.585938 C 118.191406 121.585938 117.738281 121.800781 117.382812 122.222656 C 117.027344 122.648438 116.851562 123.300781 116.851562 124.171875 C 116.851562 125.089844 117.027344 125.757812 117.382812 126.183594 C 117.738281 126.609375 118.175781 126.824219 118.699219 126.824219 C 119.257812 126.824219 119.726562 126.605469 120.113281 126.167969 C 120.5 125.730469 120.691406 125.085938 120.691406 124.230469 Z M 131.539062 121.109375 C 132.285156 121.957031 132.640625 123.257812 132.605469 125.007812 L 126.875 125.007812 C 126.894531 125.6875 127.078125 126.214844 127.429688 126.589844 C 127.78125 126.96875 128.222656 127.15625 128.75 127.15625 C 129.105469 127.15625 129.40625 127.058594 129.652344 126.863281 C 129.894531 126.667969 130.082031 126.355469 130.207031 125.921875 L 132.484375 126.300781 C 132.191406 127.136719 131.730469 127.773438 131.097656 128.210938 C 130.464844 128.644531 129.671875 128.863281 128.722656 128.863281 C 127.222656 128.863281 126.109375 128.375 125.386719 127.390625 C 124.816406 126.605469 124.53125 125.613281 124.53125 124.414062 C 124.53125 122.984375 124.90625 121.863281 125.65625 121.054688 C 126.40625 120.242188 127.351562 119.835938 128.496094 119.835938 C 129.78125 119.835938 130.796875 120.261719 131.539062 121.109375 Z M 130.335938 123.609375 C 130.320312 122.949219 130.148438 122.445312 129.824219 122.101562 C 129.496094 121.757812 129.101562 121.585938 128.632812 121.585938 C 128.136719 121.585938 127.722656 121.769531 127.398438 122.132812 C 127.070312 122.492188 126.910156 122.988281 126.917969 123.609375 Z M 67.289062 134.882812 L 72.066406 146.804688 L 69.445312 146.804688 L 68.402344 144.09375 L 63.632812 144.09375 L 62.648438 146.804688 L 60.09375 146.804688 L 64.742188 134.882812 Z M 67.628906 142.085938 L 65.988281 137.664062 L 64.375 142.085938 Z M 76.582031 142.574219 C 76.496094 142.820312 76.414062 143.0625 76.339844 143.304688 C 76.308594 143.425781 76.226562 143.671875 76.101562 144.046875 L 75.632812 142.574219 L 74.003906 138.167969 L 71.601562 138.167969 L 75.085938 146.804688 L 77.144531 146.804688 L 80.578125 138.167969 L 78.226562 138.167969 Z M 89.082031 145.644531 C 89.152344 146.003906 89.289062 146.390625 89.492188 146.804688 L 87.230469 146.804688 C 87.167969 146.652344 87.097656 146.425781 87.007812 146.128906 C 86.972656 145.992188 86.945312 145.902344 86.929688 145.859375 C 86.535156 146.238281 86.121094 146.523438 85.675781 146.714844 C 85.230469 146.902344 84.753906 147 84.25 147 C 83.359375 147 82.660156 146.757812 82.144531 146.273438 C 81.632812 145.792969 81.378906 145.183594 81.378906 144.445312 C 81.378906 143.957031 81.492188 143.519531 81.726562 143.140625 C 81.960938 142.757812 82.289062 142.464844 82.707031 142.261719 C 83.128906 142.058594 83.734375 141.878906 84.527344 141.730469 C 85.597656 141.527344 86.335938 141.339844 86.75 141.167969 L 86.75 140.941406 C 86.75 140.5 86.640625 140.1875 86.421875 140 C 86.207031 139.8125 85.796875 139.71875 85.195312 139.71875 C 84.789062 139.71875 84.46875 139.800781 84.242188 139.960938 C 84.015625 140.121094 83.828125 140.398438 83.6875 140.800781 L 81.613281 140.425781 C 81.847656 139.59375 82.25 138.976562 82.816406 138.574219 C 83.386719 138.171875 84.234375 137.972656 85.355469 137.972656 C 86.375 137.972656 87.136719 138.09375 87.636719 138.332031 C 88.136719 138.574219 88.484375 138.882812 88.691406 139.253906 C 88.894531 139.625 88.996094 140.304688 88.996094 141.296875 L 88.96875 143.964844 C 88.96875 144.722656 89.007812 145.285156 89.082031 145.644531 Z M 86.75 142.65625 C 86.457031 142.753906 85.992188 142.871094 85.355469 143.003906 C 84.722656 143.140625 84.308594 143.273438 84.113281 143.402344 C 83.8125 143.617188 83.664062 143.882812 83.664062 144.210938 C 83.664062 144.527344 83.785156 144.804688 84.023438 145.039062 C 84.261719 145.273438 84.566406 145.386719 84.933594 145.386719 C 85.347656 145.386719 85.738281 145.253906 86.113281 144.980469 C 86.390625 144.777344 86.570312 144.523438 86.660156 144.226562 C 86.71875 144.03125 86.75 143.660156 86.75 143.113281 Z M 91.25 136.996094 L 93.535156 136.996094 L 93.535156 134.882812 L 91.25 134.882812 Z M 91.25 146.804688 L 93.535156 146.804688 L 93.535156 138.167969 L 91.25 138.167969 Z M 95.878906 146.804688 L 98.167969 146.804688 L 98.167969 134.882812 L 95.878906 134.882812 Z M 107.613281 145.644531 C 107.6875 146.003906 107.824219 146.390625 108.023438 146.804688 L 105.761719 146.804688 C 105.699219 146.652344 105.628906 146.425781 105.542969 146.128906 C 105.503906 145.992188 105.476562 145.902344 105.460938 145.859375 C 105.070312 146.238281 104.652344 146.523438 104.207031 146.714844 C 103.761719 146.902344 103.285156 147 102.78125 147 C 101.890625 147 101.191406 146.757812 100.675781 146.273438 C 100.164062 145.792969 99.910156 145.183594 99.910156 144.445312 C 99.910156 143.957031 100.023438 143.519531 100.257812 143.140625 C 100.492188 142.757812 100.820312 142.464844 101.238281 142.261719 C 101.660156 142.058594 102.265625 141.878906 103.058594 141.730469 C 104.128906 141.527344 104.867188 141.339844 105.28125 141.167969 L 105.28125 140.941406 C 105.28125 140.5 105.171875 140.1875 104.953125 140 C 104.738281 139.8125 104.328125 139.71875 103.726562 139.71875 C 103.320312 139.71875 103 139.800781 102.773438 139.960938 C 102.546875 140.121094 102.359375 140.398438 102.21875 140.800781 L 100.144531 140.425781 C 100.378906 139.59375 100.777344 138.976562 101.347656 138.574219 C 101.917969 138.171875 102.765625 137.972656 103.886719 137.972656 C 104.90625 137.972656 105.667969 138.09375 106.167969 138.332031 C 106.667969 138.574219 107.015625 138.882812 107.222656 139.253906 C 107.425781 139.625 107.527344 140.304688 107.527344 141.296875 L 107.5 143.964844 C 107.503906 144.722656 107.539062 145.285156 107.613281 145.644531 Z M 105.28125 142.65625 C 104.988281 142.753906 104.523438 142.871094 103.890625 143.003906 C 103.253906 143.140625 102.839844 143.273438 102.644531 143.402344 C 102.34375 143.617188 102.195312 143.882812 102.195312 144.210938 C 102.195312 144.527344 102.316406 144.804688 102.554688 145.039062 C 102.792969 145.273438 103.097656 145.386719 103.464844 145.386719 C 103.878906 145.386719 104.269531 145.253906 104.644531 144.980469 C 104.921875 144.777344 105.105469 144.523438 105.191406 144.226562 C 105.25 144.03125 105.28125 143.660156 105.28125 143.113281 Z M 117.089844 139.113281 C 117.777344 139.875 118.125 140.96875 118.125 142.394531 C 118.125 143.871094 117.773438 145.007812 117.070312 145.804688 C 116.367188 146.601562 115.511719 147 114.511719 147 C 114.015625 147 113.527344 146.875 113.050781 146.628906 C 112.570312 146.382812 112.15625 146.015625 111.808594 145.535156 L 111.808594 146.804688 L 109.683594 146.804688 L 109.683594 134.882812 L 111.972656 134.882812 L 111.972656 139.175781 C 112.675781 138.375 113.511719 137.972656 114.476562 137.972656 C 115.53125 137.972656 116.402344 138.351562 117.089844 139.113281 Z M 115.78125 142.507812 C 115.78125 141.523438 115.601562 140.8125 115.242188 140.375 C 114.882812 139.9375 114.425781 139.71875 113.867188 139.71875 C 113.320312 139.71875 112.863281 139.933594 112.5 140.359375 C 112.136719 140.785156 111.953125 141.429688 111.953125 142.296875 C 111.953125 143.191406 112.097656 143.851562 112.378906 144.28125 C 112.773438 144.890625 113.300781 145.191406 113.957031 145.191406 C 114.460938 145.191406 114.890625 144.976562 115.246094 144.546875 C 115.601562 144.117188 115.78125 143.4375 115.78125 142.507812 Z M 119.964844 146.804688 L 122.25 146.804688 L 122.25 134.882812 L 119.964844 134.882812 Z M 130.933594 139.246094 C 131.675781 140.09375 132.03125 141.394531 132 143.144531 L 126.269531 143.144531 C 126.285156 143.820312 126.472656 144.347656 126.824219 144.726562 C 127.175781 145.101562 127.617188 145.289062 128.140625 145.289062 C 128.5 145.289062 128.800781 145.191406 129.046875 144.996094 C 129.289062 144.800781 129.472656 144.488281 129.597656 144.054688 L 131.878906 144.4375 C 131.585938 145.273438 131.121094 145.90625 130.492188 146.34375 C 129.859375 146.78125 129.066406 147 128.117188 147 C 126.617188 147 125.503906 146.507812 124.78125 145.527344 C 124.210938 144.738281 123.925781 143.75 123.925781 142.550781 C 123.925781 141.117188 124.300781 140 125.050781 139.1875 C 125.796875 138.378906 126.746094 137.972656 127.890625 137.972656 C 129.175781 137.972656 130.191406 138.394531 130.933594 139.246094 Z M 129.730469 141.746094 C 129.714844 141.082031 129.542969 140.582031 129.214844 140.238281 C 128.890625 139.890625 128.496094 139.71875 128.027344 139.71875 C 127.527344 139.71875 127.117188 139.902344 126.792969 140.265625 C 126.464844 140.628906 126.304688 141.121094 126.3125 141.746094 Z M 108.421875 67.800781 C 112.03125 67.800781 114.960938 64.878906 114.960938 61.269531 C 114.960938 57.660156 112.03125 54.738281 108.421875 54.738281 C 104.808594 54.738281 101.882812 57.660156 101.882812 61.269531 C 101.882812 64.878906 104.808594 67.800781 108.421875 67.800781 Z M 150.410156 45 L 150.410156 113.40625 L 41.6875 113.40625 L 41.6875 45 Z M 147.332031 48.074219 L 44.761719 48.074219 L 44.761719 110.332031 L 46.914062 110.332031 L 78.164062 72.671875 L 105.105469 105.144531 L 122.78125 86.121094 L 145.277344 110.332031 L 147.332031 110.332031 Z M 147.332031 48.074219 "/></g></g></svg>