<?xml version="1.0" encoding="UTF-8" standalone="no"?><!DOCTYPE svg PUBLIC "-//W3C//DTD SVG 1.1//EN" "http://www.w3.org/Graphics/SVG/1.1/DTD/svg11.dtd"><svg width="100%" height="100%" viewBox="0 0 595 1042" version="1.1" xmlns="http://www.w3.org/2000/svg" xmlns:xlink="http://www.w3.org/1999/xlink" xml:space="preserve" xmlns:serif="http://www.serif.com/" style="fill-rule:evenodd;clip-rule:evenodd;stroke-linecap:round;stroke-linejoin:round;stroke-miterlimit:1.5;"><path d="M216.59,425.855l-17.021,-84.688c-0,0 -32.842,1.713 -165.1,170.196c22.746,92.667 93.621,157.933 93.621,157.933l15.47,-27.021l-43.804,-125.437l116.834,-90.983Z" style="fill:#bfbfbf;fill-rule:nonzero;"/><path d="M397.035,341.23c0,-0 34.888,4.012 47.913,38.295c13.025,34.28 31.85,154.867 32.058,202.938c0.204,48.071 33.734,231.079 33.734,231.079l-24,8.688c-0,-0 -46.105,-135.413 -63.571,-204.013c-17.463,-68.6 -26.134,-276.987 -26.134,-276.987Z" style="fill:#bfbfbf;fill-rule:nonzero;"/><path d="M483.944,810.038c-0,-0 1.004,17.058 11.037,35.621c10.034,18.562 17.809,21.821 21.071,18.562c3.258,-3.262 -8.825,-14.329 -8.825,-24.862c0,-10.534 31.15,4.541 35.917,15.329c4.762,10.787 16.554,17.558 16.554,7.525c-0,-10.033 -9.029,-27.092 -25.588,-35.621c-16.554,-8.525 -35.116,-21.571 -35.116,-21.571l-15.05,5.017Z" style="fill:#bfbfbf;fill-rule:nonzero;"/><g><path d="M355.5,165.24c-6.692,-10.699 -14.463,-20.957 -24.04,-30.366c-29.974,-29.443 -74.142,-20.572 -90.857,13.615c-9.984,20.424 -19.503,40.982 -31.951,60.117c-4.962,7.63 -10.345,15.058 -14.128,23.319c-8.496,18.55 -3.955,39.831 13.037,52.165c11.056,8.025 22.244,7.782 35.194,7.748c9.337,-0.023 18.687,0.296 28.027,0.356c19.715,0.127 39.43,-0.043 59.142,0.057c20.554,0.108 47.276,-1.25 59.125,-20.75c2.682,-4.412 4.309,-9.379 5.173,-14.433c1.978,-11.574 -4.516,-22.738 -9.307,-33.002c-9.093,-19.487 -17.551,-39.851 -29.415,-58.826Z" style="fill:#bfbfbf;fill-rule:nonzero;"/><rect x="259.453" y="255.209" width="69.054" height="99.458" style="fill:#bfbfbf;fill-rule:nonzero;"/><clipPath id="_clip1"><rect x="259.453" y="255.209" width="69.054" height="99.458" clip-rule="nonzero"/></clipPath><g clip-path="url(#_clip1)"><path d="M292.47,129.688c-72.362,-0 -79.321,91.283 -64.708,128.683c6.816,17.45 22.096,30.346 36.958,39.138c0.658,0.391 1.367,0.779 2.112,1.171c15.984,8.345 35.292,8.345 51.276,-0c0.741,-0.392 1.445,-0.78 2.108,-1.171c14.866,-8.792 30.146,-21.688 36.962,-39.138c14.609,-37.4 7.65,-128.683 -64.708,-128.683Z" style="fill:#bfbfbf;fill-rule:nonzero;"/></g></g><path d="M457.09,652.917c-21.43,-69.008 -53.546,-86.021 -39.13,-235.191c1.646,-16.996 2.05,-34.096 3.713,-50.259c1.246,-12.15 -7.596,-23.354 -20.75,-26.3c-63.317,-14.204 -116.513,-14.687 -116.513,-14.687c0,-0 -21.525,0.483 -84.841,14.687c-13.15,2.946 -21.996,14.15 -20.75,26.3c2.6,25.321 1.033,49.417 5.371,73.704c6.479,36.288 12.895,73.625 0.737,108.425c-7.958,22.784 -25.312,45.321 -30.137,66.175c-11.259,48.638 -7.163,73.588 -7.163,73.588l143.475,47.941l0,0.4l1.421,-0.2l1.421,0.2l-0.004,-0.395l163.15,-84.388Z" style="fill:#bfbfbf;fill-rule:nonzero;"/><clipPath id="_clip2"><path d="M457.09,652.917c-21.43,-69.008 -53.546,-86.021 -39.13,-235.191c1.646,-16.996 2.05,-34.096 3.713,-50.259c1.246,-12.15 -7.596,-23.354 -20.75,-26.3c-63.317,-14.204 -116.513,-14.687 -116.513,-14.687c0,-0 -21.525,0.483 -84.841,14.687c-13.15,2.946 -21.996,14.15 -20.75,26.3c2.6,25.321 1.033,49.417 5.371,73.704c6.479,36.288 12.895,73.625 0.737,108.425c-7.958,22.784 -25.312,45.321 -30.137,66.175c-11.259,48.638 -7.163,73.588 -7.163,73.588l143.475,47.941l0,0.4l1.421,-0.2l1.421,0.2l-0.004,-0.395l163.15,-84.388Z" clip-rule="nonzero"/></clipPath><g clip-path="url(#_clip2)"><rect x="130.531" y="555.417" width="354.55" height="219.6" style="fill:#bfbfbf;fill-rule:nonzero;"/><path d="M172.34,448.038c-0,-0 47.387,-63.55 129.654,-5.042c74.2,-59.516 132.208,-1.512 132.208,-1.512l35.896,209.916c-0,0 -101.275,-10.104 -177.575,86.3c-67.225,-102.329 -170.221,-74.108 -170.221,-74.108l50.038,-215.554Z" style="fill:#242860;fill-rule:nonzero;"/><path d="M312.377,354.7c3.854,-1.42 7.633,-1.675 11.354,-1.82c3.729,-0.105 7.409,0.066 11.054,0.412c7.296,0.667 14.492,1.858 21.592,3.413c-7.212,-0.838 -14.471,-1.296 -21.679,-1.234c-3.6,0.021 -7.196,0.217 -10.708,0.671c-3.475,0.471 -7.013,1.142 -9.88,2.563c-1.079,0.541 -2.391,0.104 -2.933,-0.975c-0.537,-1.08 -0.1,-2.392 0.979,-2.934c0.071,-0.033 0.15,-0.066 0.221,-0.096Z" style="fill:#bfbfbf;fill-rule:nonzero;"/><path d="M231.652,356.705c7.1,-1.555 14.296,-2.746 21.592,-3.413c3.646,-0.346 7.329,-0.517 11.054,-0.412c3.721,0.145 7.504,0.4 11.354,1.82c1.133,0.421 1.713,1.675 1.296,2.809c-0.417,1.133 -1.675,1.712 -2.808,1.291c-0.071,-0.025 -0.15,-0.058 -0.221,-0.095c-2.867,-1.421 -6.4,-2.092 -9.879,-2.563c-1.606,-0.207 -3.228,-0.361 -4.86,-0.469c-1.939,-0.127 -3.892,-0.19 -5.849,-0.202c-7.208,-0.062 -14.466,0.396 -21.679,1.234Z" style="fill:#bfbfbf;fill-rule:nonzero;"/><path d="M284.781,355.638c3.671,0.621 6.275,0.962 9.1,0.787c2.821,-0.066 5.696,-0.712 9.409,-0.787c-2.013,3.096 -5.438,4.917 -9.221,5.146c-1.884,0.041 -3.829,-0.309 -5.488,-1.221c-1.658,-0.879 -3.041,-2.208 -3.8,-3.925Z" style="fill:#bfbfbf;fill-rule:nonzero;"/></g><path d="M128.09,669.296c-0,0 4.958,-23.341 11.554,-32.691c6.591,-9.35 23.533,-34.384 28.029,-35.163c4.496,-0.775 29.087,5.083 30.008,10.396c0.917,5.317 -16.087,8.042 -23.996,2.462l-3.3,7.73c0,-0 10.221,-1.767 15.496,1.954c5.275,3.721 26,12.766 27.092,19.104c1.096,6.337 -3.55,14.733 -37.263,2.442l-8.908,4.487c0,0 25.058,3.667 28.229,9.858c3.175,6.188 -12.346,11.396 -34.341,5.938c-14.25,12.562 -20.613,11.942 -32.6,3.483Z" style="fill:#bfbfbf;fill-rule:nonzero;"/><path d="M183.494,436.942c-0,0 -24.042,50.133 33.096,81.108l-0,-81.07l-33.096,-0.038Z" style="fill:#242860;fill-rule:nonzero;"/><path d="M417.898,429.792c-0,0 24.037,50.138 -33.1,81.113l-0,-81.075l33.1,-0.038Z" style="fill:#242860;fill-rule:nonzero;"/><path d="M134.197,924.583l108.555,-0c45.733,-163.754 64.325,-203.516 64.325,-203.516l-160.175,-57.475c0,0 -31.801,60.064 -12.705,260.991Z" style="fill:#bfbfbf;fill-rule:nonzero;"/><path d="M324.5,924.583c-14.066,-91.405 -31.977,-186.883 -31.977,-186.883l153.937,-106.879c0,0 50.286,55.972 -3.845,293.762l-118.115,-0Z" style="fill:#bfbfbf;fill-rule:nonzero;"/><g><path d="M300.501,392.395c-20.629,-0.704 -48.291,-16.915 -81.779,-17.012c-27.105,-0.079 -44.348,5.688 -64.166,18.873c-18.779,12.493 -24.107,25.177 -29.675,37.977c-11.131,25.591 -11.716,51.472 -12.069,75.479c-0.492,33.524 2.307,57.95 12.318,83.761c8.323,21.46 15.425,43.108 29.426,60.086c20.398,24.733 44.875,42.987 89.692,51.201c22.594,4.142 34.934,-6.162 56.253,-7.166c17.618,-0.829 30.514,7.022 49.19,6.615c28.943,-0.632 46.168,-1.335 68.414,-23.668c15.821,-15.883 43.462,-62.794 53.733,-111.679c4.859,-23.129 7.97,-45.464 7.797,-69.385c-0.295,-40.802 -12.365,-86.171 -50.854,-111.345c-23.765,-15.543 -83.293,-15.338 -128.28,6.263Z" style="fill:none;stroke:#939598;stroke-width:6.25px;"/><path d="M350.976,299.505c-32.255,20.723 -56.017,47.083 -50.475,92.89" style="fill:none;stroke:#939598;stroke-width:6.25px;"/></g></svg>