<?xml version="1.0" encoding="UTF-8" standalone="no"?><!DOCTYPE svg PUBLIC "-//W3C//DTD SVG 1.1//EN" "http://www.w3.org/Graphics/SVG/1.1/DTD/svg11.dtd"><svg width="100%" height="100%" viewBox="0 0 595 1042" version="1.1" xmlns="http://www.w3.org/2000/svg" xmlns:xlink="http://www.w3.org/1999/xlink" xml:space="preserve" xmlns:serif="http://www.serif.com/" style="fill-rule:evenodd;clip-rule:evenodd;stroke-linecap:round;stroke-linejoin:round;stroke-miterlimit:2;"><path d="M168.821,967.631l82.684,0c12.85,-104.196 48.662,-280.471 48.662,-280.471l-144.459,-65.379c0,0 -48.646,66.504 -1.479,264.883c7.887,33.165 12.365,59.404 14.592,80.967Z" style="fill:#bfbfbf;fill-rule:nonzero;"/><path d="M377.139,967.631c0.238,-0.617 0.476,-1.219 0.715,-1.812c-69.462,-241.342 -96.875,-295.475 -96.875,-295.475l174.629,-32.071c0,-0 19.121,173.962 6.33,305.604c-0.738,7.582 -1.669,15.518 -2.771,23.754l-82.028,0Z" style="fill:#bfbfbf;fill-rule:nonzero;"/><g><path d="M353.897,122.192c-6.693,-10.7 -14.463,-20.958 -24.04,-30.366c-29.974,-29.444 -74.142,-20.572 -90.857,13.615c-9.985,20.424 -19.503,40.981 -31.951,60.117c-4.963,7.63 -10.345,15.058 -14.129,23.319c-8.496,18.55 -3.954,39.83 13.038,52.164c11.055,8.026 22.244,7.782 35.193,7.749c9.337,-0.023 18.687,0.296 28.027,0.356c19.715,0.127 39.43,-0.044 59.143,0.056c20.553,0.108 47.276,-1.249 59.124,-20.749c2.683,-4.413 4.31,-9.379 5.174,-14.433c1.977,-11.574 -4.516,-22.738 -9.307,-33.002c-9.093,-19.488 -17.551,-39.852 -29.415,-58.826Z" style="fill:#bfbfbf;fill-rule:nonzero;"/><rect x="257.85" y="212.16" width="69.054" height="99.458" style="fill:#bfbfbf;fill-rule:nonzero;"/><clipPath id="_clip1"><rect x="257.85" y="212.16" width="69.054" height="99.458" clip-rule="nonzero"/></clipPath><g clip-path="url(#_clip1)"><path d="M290.867,86.639c-72.363,0 -79.321,91.284 -64.709,128.684c6.817,17.45 22.096,30.346 36.959,39.137c0.658,0.392 1.366,0.779 2.112,1.171c15.983,8.346 35.292,8.346 51.275,0c0.742,-0.392 1.446,-0.779 2.108,-1.171c14.867,-8.791 30.146,-21.687 36.963,-39.137c14.608,-37.4 7.65,-128.684 -64.708,-128.684Z" style="fill:#bfbfbf;fill-rule:nonzero;"/></g></g><path d="M231.142,170.723c-5.6,-12.167 -23.913,-9.384 -25.646,3.891c-0.029,0.225 -0.058,0.45 -0.084,0.675c-2.691,22.805 16.784,38.621 25.846,37.2c6.9,-1.083 7.621,-24.975 -0.116,-41.766Z" style="fill:#bfbfbf;fill-rule:nonzero;"/><path d="M350.592,170.723c5.604,-12.167 23.912,-9.384 25.646,3.891c0.024,0.225 0.054,0.45 0.083,0.675c2.691,22.805 -16.783,38.621 -25.842,37.2c-6.9,-1.083 -7.621,-24.975 0.113,-41.766Z" style="fill:#bfbfbf;fill-rule:nonzero;"/><path d="M290.867,77.86c-72.363,0 -79.321,91.279 -64.709,128.679c6.817,17.45 22.096,30.346 36.959,39.142c0.658,0.388 1.366,0.779 2.112,1.167c15.792,8.246 35.488,8.246 51.275,-0c0.742,-0.388 1.446,-0.779 2.108,-1.167c14.867,-8.796 30.146,-21.692 36.963,-39.142c14.608,-37.4 7.65,-128.679 -64.708,-128.679Z" style="fill:#bfbfbf;fill-rule:nonzero;"/><path d="M398.621,371.81l29.5,-80.346c-0,0 25.221,7.95 158.967,178.33c-23.001,93.704 -105.488,157.629 -105.488,157.629l-16.704,-18.788l56.171,-133.304l-122.446,-103.521Z" style="fill:#bfbfbf;fill-rule:nonzero;"/><path d="M195.546,371.81l-29.5,-80.346c-0,0 -25.221,7.95 -158.967,178.33c22.996,93.704 105.488,157.629 105.488,157.629l16.704,-18.788l-56.171,-133.304l122.446,-103.521Z" style="fill:#bfbfbf;fill-rule:nonzero;"/><path d="M298.712,686.752l156.896,-48.479c0,-0 -11.333,-45.513 -47.641,-104.442c-30.963,-50.25 -46.701,-40.879 -0,-114.183c16.74,-26.277 25.854,-60.734 30.987,-106.884c1.367,-12.287 -8.333,-23.612 -22.762,-26.595c-69.455,-14.359 -127.113,-14.855 -127.113,-14.855c0,0 -41.254,0.496 -110.708,14.855c-14.429,2.983 -24.129,14.308 -22.763,26.595c3.767,33.846 11.392,69.771 19.4,101.313c4.904,19.325 24.117,45.239 32.329,63.41c7.021,15.542 16.369,42.396 -11.202,87.846c-35.613,58.712 -56.135,99.515 -56.135,99.515l155.846,21.904l-0,0.408l1.433,-0.204l1.442,0.204l-0.009,-0.408Z" style="fill:#bfbfbf;fill-rule:nonzero;"/><clipPath id="_clip2"><path d="M298.712,686.752l156.896,-48.479c0,-0 -11.333,-45.513 -47.641,-104.442c-30.963,-50.25 -46.701,-40.879 -0,-114.183c16.74,-26.277 25.854,-60.734 30.987,-106.884c1.367,-12.287 -8.333,-23.612 -22.762,-26.595c-69.455,-14.359 -127.113,-14.855 -127.113,-14.855c0,0 -41.254,0.496 -110.708,14.855c-14.429,2.983 -24.129,14.308 -22.763,26.595c3.767,33.846 11.392,69.771 19.4,101.313c4.904,19.325 24.117,45.239 32.329,63.41c7.021,15.542 16.369,42.396 -11.202,87.846c-35.613,58.712 -56.135,99.515 -56.135,99.515l155.846,21.904l-0,0.408l1.433,-0.204l1.442,0.204l-0.009,-0.408Z" clip-rule="nonzero"/></clipPath><g clip-path="url(#_clip2)"><rect x="124.642" y="536.481" width="358.533" height="222.063" style="fill:#242860;fill-rule:nonzero;"/><path d="M155.508,405.16c0,0 46.259,-87.458 144.659,-26.125c85.9,-56.783 132.091,28.396 132.091,28.396l8.338,162.75c-0,0 -96.342,9.063 -141.875,116.979c-50.079,-109.029 -162.425,-92.996 -162.425,-92.996l19.212,-189.004Z" style="fill:#242860;fill-rule:nonzero;"/><path d="M310.942,298.989c3.895,-1.437 7.721,-1.695 11.487,-1.841c3.767,-0.109 7.488,0.062 11.175,0.412c7.379,0.679 14.659,1.879 21.838,3.454c-7.296,-0.845 -14.634,-1.312 -21.925,-1.245c-3.642,0.016 -7.275,0.22 -10.825,0.679c-3.525,0.471 -7.096,1.15 -9.992,2.591c-1.096,0.546 -2.425,0.105 -2.967,-0.991c-0.55,-1.088 -0.104,-2.417 0.988,-2.963c0.071,-0.037 0.15,-0.071 0.221,-0.096Z" style="fill:#bfbfbf;fill-rule:nonzero;"/><path d="M229.312,301.014c7.18,-1.575 14.459,-2.775 21.834,-3.454c3.691,-0.35 7.408,-0.521 11.179,-0.412c3.763,0.146 7.588,0.404 11.483,1.841c1.146,0.421 1.734,1.692 1.309,2.838c-0.425,1.146 -1.692,1.729 -2.838,1.308c-0.075,-0.029 -0.154,-0.062 -0.221,-0.096c-2.904,-1.441 -6.475,-2.12 -9.995,-2.591c-3.546,-0.459 -7.184,-0.663 -10.826,-0.679c-7.287,-0.067 -14.629,0.4 -21.925,1.245Z" style="fill:#bfbfbf;fill-rule:nonzero;"/><path d="M283.037,299.935c3.713,0.625 6.35,0.971 9.196,0.792c2.863,-0.067 5.763,-0.713 9.525,-0.792c-2.037,3.129 -5.508,4.971 -9.329,5.2c-1.9,0.046 -3.867,-0.308 -5.546,-1.233c-1.679,-0.888 -3.075,-2.229 -3.846,-3.967Z" style="fill:#bfbfbf;fill-rule:nonzero;"/></g><path d="M112.567,627.423c-2.909,6.408 10.183,-23.292 19.616,-32.479c8.292,-8.075 31.355,-28.146 35.959,-27.834c4.608,0.313 27.366,11.959 26.995,17.396c-0.37,5.446 -17.729,4.054 -24.166,-3.325l-5.092,6.804c0,0 10.467,0.713 14.758,5.629c4.288,4.921 22.484,18.771 22.038,25.263c-0.438,6.487 -7.013,13.621 -37.192,-6.529l-9.829,2.275c0,-0 23.738,9.604 25.375,16.446c1.642,6.837 -14.854,8.245 -35.162,-2.392c-17.009,8.933 -23.546,9.921 -33.3,-1.254Z" style="fill:#bfbfbf;fill-rule:nonzero;"/><path d="M485.979,622.019c0,-0 -13.592,-23.68 -22.312,-31.284c-8.721,-7.608 -31.354,-28.146 -35.959,-27.833c-4.604,0.317 -27.362,11.958 -26.991,17.4c0.366,5.442 17.725,4.046 24.162,-3.329l5.092,6.804c-0,-0 -10.467,0.712 -14.758,5.629c-4.288,4.917 -22.48,18.775 -22.038,25.258c0.437,6.492 7.017,13.625 37.192,-6.525l9.825,2.275c-0,0 -23.734,9.605 -25.375,16.446c-1.634,6.842 14.862,8.242 35.166,-2.391c17.009,8.933 26.246,8.725 35.996,-2.45Z" style="fill:#bfbfbf;fill-rule:nonzero;"/><path d="M469.825,291.464l-357.919,0l117.829,202.8l-117.829,202.799l357.919,0l-117.829,-202.799l117.829,-202.8Z" style="fill:none;stroke:#939598;stroke-width:6.25px;"/></svg>