<?xml version="1.0" encoding="UTF-8" standalone="no"?><!DOCTYPE svg PUBLIC "-//W3C//DTD SVG 1.1//EN" "http://www.w3.org/Graphics/SVG/1.1/DTD/svg11.dtd"><svg width="100%" height="100%" viewBox="0 0 595 1042" version="1.1" xmlns="http://www.w3.org/2000/svg" xmlns:xlink="http://www.w3.org/1999/xlink" xml:space="preserve" xmlns:serif="http://www.serif.com/" style="fill-rule:evenodd;clip-rule:evenodd;stroke-linecap:round;stroke-linejoin:round;stroke-miterlimit:2;"><path d="M399.691,329.653c-0,0 39.67,1.217 48.204,37.304c14.8,62.592 29.067,274.796 23.375,222.305c-5.238,-48.33 34.116,214.62 34.116,214.62l-24.271,8.784c0,-0 -46.62,-136.934 -64.278,-206.304c-17.667,-69.371 -17.146,-276.709 -17.146,-276.709Z" style="fill:#bfbfbf;fill-rule:nonzero;"/><path d="M483.979,788.294c0,0 1.013,17.25 11.158,36.021c10.146,18.771 18.013,22.071 21.309,18.771c3.3,-3.296 -8.925,-14.487 -8.925,-25.142c-0,-10.65 31.5,4.596 36.321,15.5c4.816,10.909 16.741,17.759 16.741,7.613c0,-10.146 -9.133,-27.396 -25.87,-36.017c-16.746,-8.629 -35.517,-21.816 -35.517,-21.816l-15.217,5.07Z" style="fill:#bfbfbf;fill-rule:nonzero;"/><path d="M187.284,329.653c0,0 -39.666,1.217 -48.2,37.304c-14.804,62.592 -29.071,274.796 -23.383,222.305c5.241,-48.33 -34.108,214.62 -34.108,214.62l24.266,8.784c0,-0 46.625,-136.934 64.283,-206.304c17.659,-69.371 17.142,-276.709 17.142,-276.709Z" style="fill:#bfbfbf;fill-rule:nonzero;"/><path d="M110.187,788.294c0,0 -1.012,17.25 -11.158,36.021c-10.146,18.771 -18.008,22.071 -21.308,18.771c-3.296,-3.296 8.925,-14.487 8.925,-25.142c-0,-10.65 -31.5,4.596 -36.317,15.5c-4.825,10.909 -16.746,17.759 -16.746,7.613c0,-10.146 9.134,-27.396 25.875,-36.017c16.742,-8.629 35.509,-21.816 35.509,-21.816l15.22,5.07Z" style="fill:#bfbfbf;fill-rule:nonzero;"/><path d="M317.944,925.37c-8.178,-103.237 -17.427,-224.388 -17.427,-224.388l126.42,-37.317c0,0 25.617,68.967 -13.016,231.6c-2.527,10.639 -4.723,20.659 -6.62,30.105l-89.357,-0Z" style="fill:#bfbfbf;fill-rule:nonzero;"/><g><path d="M356.764,164.453c-6.693,-10.7 -14.464,-20.958 -24.04,-30.366c-29.974,-29.443 -74.142,-20.572 -90.857,13.615c-9.985,20.424 -19.504,40.982 -31.952,60.117c-4.962,7.63 -10.345,15.058 -14.128,23.319c-8.496,18.55 -3.954,39.83 13.038,52.164c11.055,8.026 22.243,7.782 35.193,7.749c9.337,-0.023 18.687,0.296 28.027,0.356c19.715,0.127 39.43,-0.044 59.142,0.056c20.554,0.109 47.276,-1.249 59.125,-20.749c2.682,-4.412 4.31,-9.379 5.174,-14.433c1.977,-11.574 -4.517,-22.738 -9.308,-33.002c-9.093,-19.487 -17.551,-39.851 -29.414,-58.826Z" style="fill:#bfbfbf;fill-rule:nonzero;"/><rect x="260.717" y="254.421" width="69.054" height="99.458" style="fill:#bfbfbf;fill-rule:nonzero;"/><clipPath id="_clip1"><rect x="260.717" y="254.421" width="69.054" height="99.458" clip-rule="nonzero"/></clipPath><g clip-path="url(#_clip1)"><path d="M293.733,128.901c-72.362,-0 -79.321,91.283 -64.708,128.683c6.817,17.45 22.096,30.346 36.958,39.138c0.659,0.391 1.367,0.779 2.113,1.17c15.983,8.346 35.292,8.346 51.275,0c0.741,-0.391 1.446,-0.779 2.108,-1.17c14.867,-8.792 30.146,-21.688 36.962,-39.138c14.609,-37.4 7.65,-128.683 -64.708,-128.683Z" style="fill:#bfbfbf;fill-rule:nonzero;"/></g></g><path d="M193.25,925.37l90.368,-0c10.196,-108.15 23.315,-239.58 23.315,-239.58l-113.779,-40.487c0,-0 -47.921,60.258 -4.367,258.633c1.636,7.452 3.119,14.582 4.463,21.434Z" style="fill:#bfbfbf;fill-rule:nonzero;"/><path d="M309.275,739.624l94.913,-30.555c18.966,-6.104 29.233,-26.566 22.749,-45.404c-0.245,-0.725 -0.508,-1.487 -0.774,-2.304c-18.488,-55.542 -7.45,-107.814 -0,-165.877c5.741,-44.816 21.687,-23.902 26.346,-68.04c1.3,-12.287 -41.384,-95.517 -55.076,-98.5c-65.913,-14.359 -111.986,-10.869 -111.986,-10.869c-0,-0 -31.572,-3.49 -97.489,10.869c-13.687,2.983 -54.312,98.615 -53.012,110.903c4.979,47.179 25.906,26.412 35.076,69.525c9.605,45.137 24.399,73.639 17.936,119.331l-10.404,73.533l131.721,37.388Z" style="fill:#bfbfbf;fill-rule:nonzero;"/><clipPath id="_clip2"><path d="M309.275,739.624l94.913,-30.555c18.966,-6.104 29.233,-26.566 22.749,-45.404c-0.245,-0.725 -0.508,-1.487 -0.774,-2.304c-18.488,-55.542 -7.45,-107.814 -0,-165.877c5.741,-44.816 21.687,-23.902 26.346,-68.04c1.3,-12.287 -41.384,-95.517 -55.076,-98.5c-65.913,-14.359 -111.986,-10.869 -111.986,-10.869c-0,-0 -31.572,-3.49 -97.489,10.869c-13.687,2.983 -54.312,98.615 -53.012,110.903c4.979,47.179 25.906,26.412 35.076,69.525c9.605,45.137 24.399,73.639 17.936,119.331l-10.404,73.533l131.721,37.388Z" clip-rule="nonzero"/></clipPath><g clip-path="url(#_clip2)"><rect x="121.254" y="574.194" width="358.533" height="222.067" style="fill:#bfbfbf;fill-rule:nonzero;"/><path d="M139.326,427.444c0,0 83.757,-41.033 154.099,8.955c63.2,-54.067 155.079,-31.4 159.158,-8.955c-14.279,144.855 -25.646,236.221 -25.646,236.221c0,0 -80.275,-1.496 -123.75,74.229c-38.37,-75.25 -135.283,-67.091 -135.283,-67.091l-0.249,-209.706" style="fill:#242860;fill-rule:nonzero;"/><path d="M307.254,326.761c3.896,-1.437 7.717,-1.696 11.483,-1.842c3.767,-0.108 7.488,0.067 11.175,0.413c7.38,0.679 14.659,1.883 21.838,3.454c-7.296,-0.846 -14.633,-1.308 -21.925,-1.246c-3.642,0.021 -7.275,0.221 -10.825,0.679c-3.521,0.475 -7.096,1.155 -9.992,2.592c-1.091,0.546 -2.42,0.104 -2.966,-0.987c-0.546,-1.092 -0.105,-2.421 0.987,-2.967c0.075,-0.033 0.15,-0.071 0.225,-0.096Z" style="fill:#242860;fill-rule:nonzero;"/><path d="M225.621,328.786c7.183,-1.571 14.458,-2.775 21.833,-3.454c3.692,-0.346 7.409,-0.521 11.179,-0.413c3.763,0.146 7.588,0.405 11.484,1.842c1.145,0.421 1.733,1.692 1.308,2.838c-0.425,1.145 -1.692,1.733 -2.837,1.308c-0.075,-0.025 -0.155,-0.058 -0.221,-0.096c-2.904,-1.437 -6.475,-2.117 -9.996,-2.592c-3.55,-0.458 -7.184,-0.658 -10.825,-0.679c-7.288,-0.062 -14.629,0.4 -21.925,1.246Z" style="fill:#242860;fill-rule:nonzero;"/><path d="M279.346,327.707c3.712,0.625 6.35,0.975 9.2,0.796c2.858,-0.071 5.758,-0.717 9.521,-0.796c-2.038,3.129 -5.505,4.975 -9.329,5.2c-1.905,0.046 -3.867,-0.308 -5.546,-1.233c-1.679,-0.888 -3.075,-2.23 -3.846,-3.967Z" style="fill:#242860;fill-rule:nonzero;"/></g><path d="M139.279,427.393c0,-0 -23.762,50.658 34.017,81.979l-0,-81.979l-34.017,-0Z" style="fill:#242860;fill-rule:nonzero;"/><path d="M452.877,427.444c-0,0 20.9,52.092 -36.876,83.417l0,-81.983l36.876,-1.434Z" style="fill:#242860;fill-rule:nonzero;"/><path d="M302.61,737.894l169.063,-409.875l-338.125,0l169.062,409.875Z" style="fill:none;stroke:#939598;stroke-width:6.25px;"/></svg>