<?xml version="1.0" encoding="UTF-8" standalone="no"?><!DOCTYPE svg PUBLIC "-//W3C//DTD SVG 1.1//EN" "http://www.w3.org/Graphics/SVG/1.1/DTD/svg11.dtd"><svg width="100%" height="100%" viewBox="0 0 595 1696" version="1.1" xmlns="http://www.w3.org/2000/svg" xmlns:xlink="http://www.w3.org/1999/xlink" xml:space="preserve" xmlns:serif="http://www.serif.com/" style="fill-rule:evenodd;clip-rule:evenodd;stroke-linecap:round;stroke-linejoin:round;stroke-miterlimit:2;"><path d="M399.691,422.715c-0,0 39.67,1.217 48.204,37.305c14.8,62.591 29.067,274.795 23.375,222.304c-5.238,-48.329 34.116,214.621 34.116,214.621l-24.271,8.783c0,-0 -46.62,-136.933 -64.278,-206.304c-17.667,-69.371 -17.146,-276.709 -17.146,-276.709Z" style="fill:#242860;fill-rule:nonzero;"/><path d="M483.979,881.357c0,-0 1.013,17.25 11.158,36.021c10.146,18.77 18.013,22.07 21.309,18.77c3.3,-3.296 -8.925,-14.487 -8.925,-25.141c-0,-10.65 31.5,4.595 36.321,15.5c4.816,10.908 16.741,17.758 16.741,7.612c0,-10.146 -9.133,-27.396 -25.87,-36.016c-16.746,-8.63 -35.517,-21.817 -35.517,-21.817l-15.217,5.071Z" style="fill:#242860;fill-rule:nonzero;"/><path d="M187.284,422.715c0,0 -39.666,1.217 -48.2,37.305c-14.804,62.591 -29.071,274.795 -23.383,222.304c5.241,-48.329 -34.108,214.621 -34.108,214.621l24.266,8.783c0,-0 46.625,-136.933 64.283,-206.304c17.659,-69.371 17.142,-276.709 17.142,-276.709Z" style="fill:#242860;fill-rule:nonzero;"/><path d="M110.187,881.357c0,-0 -1.012,17.25 -11.158,36.021c-10.146,18.77 -18.008,22.07 -21.308,18.77c-3.296,-3.296 8.925,-14.487 8.925,-25.141c-0,-10.65 -31.5,4.595 -36.317,15.5c-4.825,10.908 -16.746,17.758 -16.746,7.612c0,-10.146 9.134,-27.396 25.875,-36.016c16.742,-8.63 35.509,-21.817 35.509,-21.817l15.22,5.071Z" style="fill:#242860;fill-rule:nonzero;"/><path d="M426.937,756.728c0,-0 25.617,68.966 -13.016,231.6c-38.813,163.42 0.387,180.775 -11.938,281.712c-12.25,100.321 -12.25,167.946 -12.25,167.946l-25.858,-0c-0,-0 -29.617,-222.046 -37.783,-318.983c-8.167,-96.93 -25.575,-324.959 -25.575,-324.959l126.42,-37.316Z" style="fill:#242860;fill-rule:nonzero;"/><g><path d="M356.764,257.515c-6.693,-10.699 -14.464,-20.957 -24.04,-30.366c-29.974,-29.443 -74.142,-20.572 -90.857,13.615c-9.985,20.424 -19.504,40.982 -31.952,60.117c-4.962,7.63 -10.345,15.058 -14.128,23.319c-8.496,18.55 -3.954,39.831 13.038,52.165c11.055,8.025 22.243,7.782 35.193,7.748c9.337,-0.023 18.687,0.296 28.027,0.356c19.715,0.127 39.43,-0.043 59.142,0.057c20.554,0.108 47.276,-1.25 59.125,-20.75c2.682,-4.412 4.31,-9.379 5.174,-14.433c1.977,-11.574 -4.517,-22.738 -9.308,-33.002c-9.093,-19.487 -17.551,-39.851 -29.414,-58.826Z" style="fill:#242860;fill-rule:nonzero;"/><rect x="260.717" y="347.484" width="69.054" height="99.458" style="fill:#242860;fill-rule:nonzero;"/><clipPath id="_clip1"><rect x="260.717" y="347.484" width="69.054" height="99.458" clip-rule="nonzero"/></clipPath><g clip-path="url(#_clip1)"><path d="M293.733,221.963c-72.362,-0 -79.321,91.283 -64.708,128.683c6.817,17.45 22.096,30.346 36.958,39.138c0.659,0.391 1.367,0.779 2.113,1.171c15.983,8.345 35.292,8.345 51.275,-0c0.741,-0.392 1.446,-0.78 2.108,-1.171c14.867,-8.792 30.146,-21.688 36.962,-39.138c14.609,-37.4 7.65,-128.683 -64.708,-128.683Z" style="fill:#242860;fill-rule:nonzero;"/></g></g><path d="M193.154,738.365c0,0 -47.921,60.258 -4.367,258.633c36.038,164.134 -2.512,172.105 9.813,273.042c12.246,100.321 7.029,167.946 7.029,167.946l31.079,-0c0,-0 29.613,-222.046 37.779,-318.983c8.167,-96.93 32.446,-340.15 32.446,-340.15l-113.779,-40.488Z" style="fill:#242860;fill-rule:nonzero;"/><path d="M309.275,832.686l94.913,-30.554c18.966,-6.104 29.233,-26.567 22.749,-45.404c-0.245,-0.726 -0.508,-1.488 -0.774,-2.305c-18.488,-55.541 -7.45,-107.814 -0,-165.876c5.741,-44.817 21.687,-23.903 26.346,-68.04c1.3,-12.288 -41.384,-95.518 -55.076,-98.501c-65.913,-14.358 -111.986,-10.869 -111.986,-10.869c-0,0 -31.572,-3.489 -97.489,10.869c-13.687,2.983 -54.312,98.616 -53.012,110.903c4.979,47.179 25.906,26.412 35.076,69.525c9.605,45.137 24.399,73.639 17.936,119.331l-10.404,73.533l131.721,37.388Z" style="fill:#242860;fill-rule:nonzero;"/><clipPath id="_clip2"><path d="M309.275,832.686l94.913,-30.554c18.966,-6.104 29.233,-26.567 22.749,-45.404c-0.245,-0.726 -0.508,-1.488 -0.774,-2.305c-18.488,-55.541 -7.45,-107.814 -0,-165.876c5.741,-44.817 21.687,-23.903 26.346,-68.04c1.3,-12.288 -41.384,-95.518 -55.076,-98.501c-65.913,-14.358 -111.986,-10.869 -111.986,-10.869c-0,0 -31.572,-3.489 -97.489,10.869c-13.687,2.983 -54.312,98.616 -53.012,110.903c4.979,47.179 25.906,26.412 35.076,69.525c9.605,45.137 24.399,73.639 17.936,119.331l-10.404,73.533l131.721,37.388Z" clip-rule="nonzero"/></clipPath><g clip-path="url(#_clip2)"><rect x="121.254" y="667.257" width="358.533" height="222.067" style="fill:#242860;fill-rule:nonzero;"/><path d="M139.326,520.507c0,-0 83.757,-41.034 154.099,8.954c63.2,-54.067 155.079,-31.4 159.158,-8.954c-14.279,144.854 -25.646,236.221 -25.646,236.221c0,-0 -80.275,-1.496 -123.75,74.229c-38.37,-75.25 -135.283,-67.092 -135.283,-67.092l-0.249,-209.705" style="fill:#fff;fill-rule:nonzero;"/><path d="M307.254,419.823c3.896,-1.437 7.717,-1.695 11.483,-1.841c3.767,-0.109 7.488,0.066 11.175,0.412c7.38,0.679 14.659,1.884 21.838,3.454c-7.296,-0.845 -14.633,-1.308 -21.925,-1.245c-3.642,0.02 -7.275,0.22 -10.825,0.679c-3.521,0.475 -7.096,1.154 -9.992,2.591c-1.091,0.546 -2.42,0.105 -2.966,-0.987c-0.546,-1.092 -0.105,-2.421 0.987,-2.967c0.075,-0.033 0.15,-0.071 0.225,-0.096Z" style="fill:#242860;fill-rule:nonzero;"/><path d="M225.621,421.848c7.183,-1.57 14.458,-2.775 21.833,-3.454c3.692,-0.346 7.409,-0.521 11.179,-0.412c3.763,0.146 7.588,0.404 11.484,1.841c1.145,0.421 1.733,1.692 1.308,2.838c-0.425,1.146 -1.692,1.733 -2.837,1.308c-0.075,-0.025 -0.155,-0.058 -0.221,-0.096c-2.904,-1.437 -6.475,-2.116 -9.996,-2.591c-3.55,-0.459 -7.184,-0.659 -10.825,-0.679c-7.288,-0.063 -14.629,0.4 -21.925,1.245Z" style="fill:#242860;fill-rule:nonzero;"/><path d="M279.346,420.769c3.712,0.625 6.35,0.975 9.2,0.796c2.858,-0.071 5.758,-0.717 9.521,-0.796c-2.038,3.129 -5.505,4.975 -9.329,5.2c-1.905,0.046 -3.867,-0.308 -5.546,-1.233c-1.679,-0.888 -3.075,-2.229 -3.846,-3.967Z" style="fill:#242860;fill-rule:nonzero;"/></g><path d="M360.058,1405.08c0,-0 -4.795,27.983 -1.1,58.266c3.7,30.284 7.629,24.275 24.021,18.138c16.392,-6.138 29.417,-5.954 27.638,-20.513c-1.775,-14.562 -18.53,-59.804 -18.53,-59.804l-32.029,3.913Z" style="fill:#242860;fill-rule:nonzero;"/><path d="M238.667,1405.39c-0,-0 5.025,28.437 0.045,58.542c-4.97,30.1 -10.062,23.65 -26.179,16.825c-16.116,-6.825 -29.137,-7.196 -26.75,-21.667c2.396,-14.471 21.046,-58.963 21.046,-58.963l31.838,5.263Z" style="fill:#242860;fill-rule:nonzero;"/><path d="M139.279,520.455c0,-0 -23.762,50.658 34.017,81.979l-0,-81.979l-34.017,-0Z" style="fill:#fff;fill-rule:nonzero;"/><path d="M452.877,520.507c-0,-0 20.9,52.091 -36.876,83.416l0,-81.983l36.876,-1.433Z" style="fill:#fff;fill-rule:nonzero;"/><path d="M302.61,830.957l169.063,-409.875l-338.125,-0l169.062,409.875Z" style="fill:none;stroke:#939598;stroke-width:6.25px;"/></svg>