<?xml version="1.0" encoding="UTF-8" standalone="no"?><!DOCTYPE svg PUBLIC "-//W3C//DTD SVG 1.1//EN" "http://www.w3.org/Graphics/SVG/1.1/DTD/svg11.dtd"><svg width="100%" height="100%" viewBox="0 0 595 1042" version="1.1" xmlns="http://www.w3.org/2000/svg" xmlns:xlink="http://www.w3.org/1999/xlink" xml:space="preserve" xmlns:serif="http://www.serif.com/" style="fill-rule:evenodd;clip-rule:evenodd;stroke-linecap:round;stroke-linejoin:round;stroke-miterlimit:1.5;"><path d="M218.469,301.633c0,-0 -43.516,4.602 -50.207,29.045c-10.552,38.577 -36.793,181.631 -37.018,234.063c-0.224,52.427 -36.792,252.034 -36.792,252.034l26.177,9.474c0,-0 50.284,-147.692 69.33,-222.513c19.05,-74.822 28.51,-302.103 28.51,-302.103Z" style="fill:#bfbfbf;fill-rule:nonzero;"/><path d="M123.676,812.951c0,0 -1.096,18.605 -12.039,38.851c-10.943,20.246 -19.423,23.805 -22.983,20.246c-3.554,-3.555 9.631,-15.626 9.631,-27.117c0,-11.487 -33.979,4.957 -39.174,16.717c-5.2,11.766 -18.057,19.154 -18.057,8.211c-0,-10.943 9.846,-29.548 27.908,-38.846c18.052,-9.308 38.298,-23.531 38.298,-23.531l16.416,5.469Z" style="fill:#bfbfbf;fill-rule:nonzero;"/><path d="M375.698,301.633c-0,-0 39.785,-1.631 49.236,27.382c12.381,38.033 37.764,183.294 37.988,235.726c0.225,52.427 36.793,252.034 36.793,252.034l-26.178,9.474c0,-0 -50.284,-147.692 -69.329,-222.513c-19.051,-74.822 -28.51,-302.103 -28.51,-302.103Z" style="fill:#bfbfbf;fill-rule:nonzero;"/><path d="M470.49,812.951c0,0 1.097,18.605 12.04,38.851c10.943,20.246 19.423,23.805 22.978,20.246c3.559,-3.555 -9.626,-15.626 -9.626,-27.117c-0,-11.487 33.974,4.957 39.174,16.717c5.2,11.766 18.057,19.154 18.057,8.211c0,-10.943 -9.846,-29.548 -27.908,-38.846c-18.057,-9.308 -38.298,-23.531 -38.298,-23.531l-16.417,5.469Z" style="fill:#bfbfbf;fill-rule:nonzero;"/><g><path d="M367.391,128.426c-7.218,-11.54 -15.599,-22.604 -25.928,-32.752c-32.329,-31.756 -79.967,-22.188 -97.996,14.685c-10.769,22.029 -21.035,44.202 -34.462,64.841c-5.352,8.229 -11.157,16.241 -15.238,25.151c-9.163,20.007 -4.265,42.959 14.062,56.263c11.924,8.656 23.992,8.393 37.958,8.357c10.071,-0.025 20.156,0.319 30.229,0.384c21.264,0.137 42.528,-0.047 63.79,0.061c22.168,0.117 50.99,-1.348 63.77,-22.38c2.893,-4.759 4.648,-10.116 5.58,-15.567c2.132,-12.483 -4.871,-24.524 -10.039,-35.595c-9.807,-21.018 -18.93,-42.982 -31.726,-63.448Z" style="fill:#bfbfbf;fill-rule:nonzero;"/><rect x="263.798" y="225.463" width="74.48" height="107.273" style="fill:#bfbfbf;fill-rule:nonzero;"/><clipPath id="_clip1"><rect x="263.798" y="225.463" width="74.48" height="107.273" clip-rule="nonzero"/></clipPath><g clip-path="url(#_clip1)"><path d="M299.409,90.081c-78.048,-0 -85.553,98.455 -69.793,138.793c7.353,18.822 23.832,32.731 39.863,42.213c0.71,0.422 1.474,0.84 2.278,1.263c17.239,9.001 38.065,9.001 55.304,-0c0.8,-0.423 1.559,-0.841 2.274,-1.263c16.034,-9.482 32.514,-23.391 39.866,-42.213c15.756,-40.338 8.251,-138.793 -69.792,-138.793Z" style="fill:#bfbfbf;fill-rule:nonzero;"/></g></g><path d="M158.875,965.18l104.29,0c15.68,-106.095 38.435,-227.396 38.435,-227.396l-143.868,-70.516c0,-0 -48.445,71.729 -1.469,285.695c0.914,4.164 1.782,8.227 2.612,12.217Z" style="fill:#bfbfbf;fill-rule:nonzero;"/><path d="M311.886,965.18c-6.052,-103.784 -17.229,-219.509 -17.229,-219.509l135.935,-84.807c0,-0 61.434,83.778 -4.017,296.8c-0.784,2.551 -1.549,5.065 -2.287,7.516l-112.402,0Z" style="fill:#bfbfbf;fill-rule:nonzero;"/><path d="M301.595,737.343l156.725,-22.025c0,0 -27.827,-93.521 -49.389,-173.596c-20.048,-74.475 1.119,-111.649 9.392,-207.75c1.142,-13.253 -6.956,-25.468 -19,-28.685c-57.982,-15.487 -108.122,-16.022 -108.122,-16.022c-0,0 -32.438,0.535 -90.42,16.022c-12.044,3.217 -20.143,15.432 -19.001,28.685c8.273,96.101 29.44,133.275 9.388,207.75c-21.558,80.075 -49.385,173.596 -49.385,173.596l156.716,22.025l-0,0.441l1.55,-0.22l1.551,0.22l-0.005,-0.441Z" style="fill:#bfbfbf;fill-rule:nonzero;"/><clipPath id="_clip2"><path d="M301.595,737.343l156.725,-22.025c0,0 -27.827,-93.521 -49.389,-173.596c-20.048,-74.475 1.119,-111.649 9.392,-207.75c1.142,-13.253 -6.956,-25.468 -19,-28.685c-57.982,-15.487 -108.122,-16.022 -108.122,-16.022c-0,0 -32.438,0.535 -90.42,16.022c-12.044,3.217 -20.143,15.432 -19.001,28.685c8.273,96.101 29.44,133.275 9.388,207.75c-21.558,80.075 -49.385,173.596 -49.385,173.596l156.716,22.025l-0,0.441l1.55,-0.22l1.551,0.22l-0.005,-0.441Z" clip-rule="nonzero"/></clipPath><g clip-path="url(#_clip2)"><rect x="104.276" y="605.56" width="386.707" height="239.514" style="fill:#242860;fill-rule:nonzero;"/><path d="M150.465,644.42c0,0 67.083,9.312 151.135,93.364c70.021,-84.564 159.646,-88.964 159.646,-88.964l-35.71,-268.465c0,-0 -57.276,-42.909 -127.113,-0c-66.539,-47.313 -127.051,-5.501 -127.051,-5.501l-20.907,269.566Z" style="fill:#242860;fill-rule:nonzero;"/></g><path d="M185.191,367.561c-0,-0 -25.63,54.638 36.689,88.424l0,-88.424l-36.689,-0Z" style="fill:#242860;fill-rule:nonzero;"/><path d="M413.933,373.407c-0,0 24.088,54.639 -38.235,88.42l-0,-88.42l38.235,0Z" style="fill:#242860;fill-rule:nonzero;"/><g><path d="M299.408,301.284c71.637,-0 105.315,64.554 100.302,130.173c-4.118,53.916 56.02,79.829 56.02,162.088c0,77.511 -70.273,144.239 -156.322,144.239c-86.05,-0 -156.323,-66.728 -156.323,-144.239c-0,-82.259 60.139,-108.172 56.02,-162.088c-5.013,-65.619 28.666,-130.173 100.303,-130.173Z" style="fill:none;stroke:#939598;stroke-width:6.25px;"/><path d="M299.408,301.284c1.344,-34.333 -10.078,-66.581 -48.825,-94.366" style="fill:none;stroke:#939598;stroke-width:6.25px;"/></g></svg>