<?xml version="1.0" encoding="UTF-8" standalone="no"?><!DOCTYPE svg PUBLIC "-//W3C//DTD SVG 1.1//EN" "http://www.w3.org/Graphics/SVG/1.1/DTD/svg11.dtd"><svg width="100%" height="100%" viewBox="0 0 595 1696" version="1.1" xmlns="http://www.w3.org/2000/svg" xmlns:xlink="http://www.w3.org/1999/xlink" xml:space="preserve" xmlns:serif="http://www.serif.com/" style="fill-rule:evenodd;clip-rule:evenodd;stroke-linecap:round;stroke-linejoin:round;stroke-miterlimit:1.5;"><path d="M224.196,519.678c-0,0 -40.346,4.267 -46.55,26.93c-9.784,35.766 -34.113,168.4 -34.321,217.012c-0.208,48.608 -34.112,233.675 -34.112,233.675l24.27,8.783c0,0 46.621,-136.933 64.28,-206.304c17.662,-69.371 26.433,-280.096 26.433,-280.096Z" style="fill:#242860;fill-rule:nonzero;"/><path d="M136.308,993.749c0,0 -1.016,17.25 -11.162,36.021c-10.146,18.771 -18.008,22.071 -21.308,18.771c-3.296,-3.296 8.929,-14.488 8.929,-25.142c-0,-10.65 -31.504,4.596 -36.321,15.5c-4.821,10.909 -16.742,17.759 -16.742,7.613c0,-10.146 9.129,-27.396 25.875,-36.017c16.738,-8.629 35.508,-21.817 35.508,-21.817l15.221,5.071Z" style="fill:#242860;fill-rule:nonzero;"/><path d="M369.971,519.678c-0,0 36.887,-1.512 45.65,25.388c11.479,35.262 35.012,169.942 35.221,218.554c0.208,48.608 34.112,233.675 34.112,233.675l-24.271,8.783c0,0 -46.62,-136.933 -64.279,-206.304c-17.662,-69.371 -26.433,-280.096 -26.433,-280.096Z" style="fill:#242860;fill-rule:nonzero;"/><path d="M457.858,993.749c0,0 1.017,17.25 11.163,36.021c10.146,18.771 18.008,22.071 21.304,18.771c3.3,-3.296 -8.925,-14.488 -8.925,-25.142c-0,-10.65 31.5,4.596 36.321,15.5c4.821,10.909 16.741,17.759 16.741,7.613c0,-10.146 -9.129,-27.396 -25.875,-36.017c-16.741,-8.629 -35.508,-21.817 -35.508,-21.817l-15.221,5.071Z" style="fill:#242860;fill-rule:nonzero;"/><g><path d="M362.27,359.089c-6.693,-10.7 -14.463,-20.958 -24.04,-30.366c-29.974,-29.443 -74.142,-20.572 -90.857,13.615c-9.985,20.424 -19.503,40.982 -31.952,60.117c-4.962,7.63 -10.344,15.058 -14.128,23.319c-8.496,18.55 -3.954,39.83 13.038,52.164c11.055,8.026 22.244,7.782 35.193,7.749c9.337,-0.023 18.687,0.296 28.027,0.356c19.715,0.127 39.43,-0.044 59.142,0.056c20.554,0.109 47.276,-1.249 59.125,-20.749c2.683,-4.412 4.31,-9.379 5.174,-14.433c1.977,-11.574 -4.517,-22.738 -9.307,-33.002c-9.093,-19.487 -17.552,-39.851 -29.415,-58.826Z" style="fill:#242860;fill-rule:nonzero;"/><rect x="266.223" y="449.058" width="69.054" height="99.458" style="fill:#242860;fill-rule:nonzero;"/><clipPath id="_clip1"><rect x="266.223" y="449.058" width="69.054" height="99.458" clip-rule="nonzero"/></clipPath><g clip-path="url(#_clip1)"><path d="M299.239,323.537c-72.362,-0 -79.32,91.283 -64.708,128.683c6.817,17.45 22.096,30.346 36.958,39.138c0.659,0.391 1.367,0.779 2.113,1.17c15.983,8.346 35.292,8.346 51.275,0c0.742,-0.391 1.446,-0.779 2.108,-1.17c14.867,-8.792 30.146,-21.688 36.963,-39.138c14.608,-37.4 7.65,-128.683 -64.709,-128.683Z" style="fill:#242860;fill-rule:nonzero;"/></g></g><path d="M167.883,858.678c0,0 -44.916,66.505 -1.362,264.884c36.229,165 -5.446,158.558 6.808,258.871c12.25,100.32 12.25,167.945 12.25,167.945l36.817,-6.487c-0,-0 23.071,-215.558 31.237,-312.496c8.167,-96.929 47.638,-307.337 47.638,-307.337l-133.388,-65.38Z" style="fill:#242860;fill-rule:nonzero;"/><path d="M420.867,852.741c-0,-0 56.958,77.675 -3.725,275.179c-50.475,164.275 -15.096,159.246 -36.05,259.396c-20.95,100.15 -26.85,167.9 -26.85,167.9l-29.517,-8.013c0,0 -10.742,-216.125 -10.412,-313.462c0.325,-97.338 -19.48,-302.371 -19.48,-302.371l126.034,-78.629Z" style="fill:#242860;fill-rule:nonzero;"/><path d="M254.354,201.374l90.959,0l-45.48,-110.258l-45.479,110.258Z" style="fill:#242860;fill-rule:nonzero;"/><path d="M301.267,923.649l145.308,-20.421c-0,0 -25.8,-86.708 -45.792,-160.95c-18.587,-69.05 1.038,-103.516 8.709,-192.616c1.058,-12.288 -6.45,-23.613 -17.617,-26.596c-53.758,-14.358 -100.246,-14.854 -100.246,-14.854c0,-0 -30.075,0.496 -83.833,14.854c-11.167,2.983 -18.675,14.308 -17.617,26.596c7.671,89.1 27.296,123.566 8.704,192.616c-19.987,74.242 -45.787,160.95 -45.787,160.95l145.3,20.421l-0,0.409l1.437,-0.205l1.438,0.205l-0.004,-0.409Z" style="fill:#242860;fill-rule:nonzero;"/><clipPath id="_clip2"><path d="M301.267,923.649l145.308,-20.421c-0,0 -25.8,-86.708 -45.792,-160.95c-18.587,-69.05 1.038,-103.516 8.709,-192.616c1.058,-12.288 -6.45,-23.613 -17.617,-26.596c-53.758,-14.358 -100.246,-14.854 -100.246,-14.854c0,-0 -30.075,0.496 -83.833,14.854c-11.167,2.983 -18.675,14.308 -17.617,26.596c7.671,89.1 27.296,123.566 8.704,192.616c-19.987,74.242 -45.787,160.95 -45.787,160.95l145.3,20.421l-0,0.409l1.437,-0.205l1.438,0.205l-0.004,-0.409Z" clip-rule="nonzero"/></clipPath><g clip-path="url(#_clip2)"><rect x="118.321" y="801.466" width="358.538" height="222.067" style="fill:#242860;fill-rule:nonzero;"/><path d="M161.146,837.495c-0,0 62.196,8.633 140.125,86.563c64.921,-78.405 148.016,-82.484 148.016,-82.484l-33.108,-248.908c0,-0 -53.104,-39.783 -117.854,-0c-61.692,-43.867 -117.796,-5.1 -117.796,-5.1l-19.383,249.929Z" style="fill:#fff;fill-rule:nonzero;"/><path d="M318.404,531.958c3.896,-1.438 7.717,-1.696 11.483,-1.842c3.767,-0.104 7.488,0.067 11.175,0.417c7.38,0.675 14.655,1.879 21.838,3.45c-7.296,-0.846 -14.633,-1.309 -21.925,-1.246c-3.642,0.021 -7.275,0.221 -10.825,0.679c-3.517,0.471 -7.096,1.154 -9.992,2.592c-1.091,0.545 -2.421,0.104 -2.966,-0.988c-0.546,-1.092 -0.104,-2.421 0.987,-2.962c0.071,-0.038 0.15,-0.075 0.225,-0.1Z" style="fill:#242860;fill-rule:nonzero;"/><path d="M236.771,533.983c7.179,-1.571 14.454,-2.775 21.833,-3.45c3.692,-0.35 7.413,-0.521 11.179,-0.417c3.763,0.146 7.588,0.404 11.48,1.842c1.145,0.42 1.733,1.691 1.312,2.837c-0.421,1.146 -1.692,1.733 -2.838,1.313c-0.075,-0.03 -0.154,-0.063 -0.224,-0.1c-2.901,-1.438 -6.475,-2.121 -9.992,-2.592c-3.55,-0.458 -7.188,-0.658 -10.829,-0.679c-7.288,-0.063 -14.625,0.4 -21.921,1.246Z" style="fill:#242860;fill-rule:nonzero;"/><path d="M290.496,532.903c3.708,0.63 6.346,0.975 9.2,0.796c2.854,-0.071 5.762,-0.716 9.521,-0.796c-2.038,3.134 -5.504,4.975 -9.329,5.205c-1.9,0.041 -3.871,-0.313 -5.546,-1.238c-1.684,-0.887 -3.079,-2.229 -3.846,-3.967Z" style="fill:#242860;fill-rule:nonzero;"/></g><path d="M325.496,1525.3c-0,0 -6.475,29.504 2.279,58.729c8.758,29.23 18.087,21.534 33.208,12.717c15.121,-8.817 27.992,-10.837 23.784,-24.887c-4.213,-14.055 -28.359,-55.817 -28.359,-55.817l-30.912,9.258Z" style="fill:#242860;fill-rule:nonzero;"/><path d="M218.429,1517.92c0,-0 9.742,28.587 4.317,58.612c-5.421,30.021 -15.558,23.421 -31.571,16.355c-16.013,-7.063 -29.033,-7.63 -26.421,-22.063c2.604,-14.433 21.921,-58.642 21.921,-58.642l31.754,5.738Z" style="fill:#242860;fill-rule:nonzero;"/><path d="M193.342,580.803c-0,0 -23.763,50.659 34.016,81.984l0,-81.984l-34.016,0Z" style="fill:#fff;fill-rule:nonzero;"/><path d="M405.421,586.224c-0,0 22.333,50.659 -35.45,81.979l-0,-81.979l35.45,0Z" style="fill:#fff;fill-rule:nonzero;"/><g><path d="M299.238,519.355c66.419,-0 97.644,59.852 92.996,120.69c-3.818,49.989 51.939,74.014 51.939,150.281c0,71.865 -65.153,133.732 -144.935,133.732c-79.781,-0 -144.935,-61.867 -144.935,-133.732c0,-76.267 55.758,-100.292 51.939,-150.281c-4.647,-60.838 26.578,-120.69 92.996,-120.69Z" style="fill:none;stroke:#939598;stroke-width:6.25px;"/><path d="M299.238,519.355c1.247,-31.832 -9.343,-61.731 -45.268,-87.492" style="fill:none;stroke:#939598;stroke-width:6.25px;"/></g></svg>