<?xml version="1.0" encoding="UTF-8" standalone="no"?><!DOCTYPE svg PUBLIC "-//W3C//DTD SVG 1.1//EN" "http://www.w3.org/Graphics/SVG/1.1/DTD/svg11.dtd"><svg width="100%" height="100%" viewBox="0 0 595 1042" version="1.1" xmlns="http://www.w3.org/2000/svg" xmlns:xlink="http://www.w3.org/1999/xlink" xml:space="preserve" xmlns:serif="http://www.serif.com/" style="fill-rule:evenodd;clip-rule:evenodd;stroke-linecap:round;stroke-linejoin:round;stroke-miterlimit:2;"><g><path d="M335.329,137.936c-7.118,-11.38 -15.383,-22.291 -25.569,-32.298c-31.881,-31.316 -78.858,-21.881 -96.637,14.481c-10.619,21.724 -20.744,43.589 -33.984,63.942c-5.278,8.115 -11.003,16.016 -15.027,24.802c-9.036,19.73 -4.206,42.364 13.867,55.483c11.759,8.536 23.659,8.277 37.432,8.242c9.932,-0.025 19.876,0.314 29.81,0.378c20.97,0.135 41.939,-0.046 62.905,0.06c21.861,0.115 50.284,-1.329 62.886,-22.069c2.853,-4.693 4.584,-9.976 5.503,-15.351c2.103,-12.311 -4.804,-24.185 -9.899,-35.102c-9.672,-20.727 -18.668,-42.386 -31.287,-62.568Z" style="fill:#bfbfbf;fill-rule:nonzero;"/><rect x="233.172" y="233.628" width="73.447" height="105.786" style="fill:#bfbfbf;fill-rule:nonzero;"/><clipPath id="_clip1"><rect x="233.172" y="233.628" width="73.447" height="105.786" clip-rule="nonzero"/></clipPath><g clip-path="url(#_clip1)"><path d="M268.29,100.122c-76.966,-0 -84.367,97.09 -68.825,136.869c7.25,18.561 23.501,32.277 39.309,41.628c0.7,0.416 1.454,0.829 2.247,1.245c17,8.877 37.537,8.877 54.537,0c0.789,-0.416 1.538,-0.829 2.242,-1.245c15.813,-9.351 32.064,-23.067 39.314,-41.628c15.538,-39.779 8.137,-136.869 -68.824,-136.869Z" style="fill:#bfbfbf;fill-rule:nonzero;"/></g></g><path d="M357.615,403.434l21.405,-87.797c0,0 36.793,10.796 179.051,192.014c-24.463,99.665 -112.198,167.657 -112.198,167.657l-17.771,-19.983l59.744,-141.784l-130.231,-110.107Z" style="fill:#bfbfbf;fill-rule:nonzero;"/><path d="M163.7,315.637c0,0 -35.321,10.344 -42.279,49.17c-12.072,67.336 -14.855,293.532 -11.872,237.453c2.747,-51.635 -23.714,229.918 -23.714,229.918l26.284,7.915c0,-0 41.53,-148.144 56.243,-222.845c14.709,-74.702 -4.662,-301.611 -4.662,-301.611Z" style="fill:#bfbfbf;fill-rule:nonzero;"/><path d="M114.402,826.833c-0,0 -0.071,18.383 -9.755,38.902c-9.679,20.528 -17.837,24.49 -21.533,21.184c-3.692,-3.311 8.637,-15.906 8.016,-27.225c-0.62,-11.314 -33.189,6.719 -37.669,18.583c-4.485,11.863 -16.748,19.832 -17.337,9.058c-0.594,-10.778 8.101,-29.626 25.376,-39.761c17.279,-10.136 36.442,-25.239 36.442,-25.239l16.46,4.498Z" style="fill:#bfbfbf;fill-rule:nonzero;"/><path d="M135.817,954.95l106.445,0c15.395,-102.59 36.69,-216.104 36.69,-216.104l-141.878,-69.539c0,0 -13.361,36.327 -1.444,281.734l0.187,3.909Z" style="fill:#bfbfbf;fill-rule:nonzero;"/><path d="M288.071,954.95c-3.056,-101.617 -15.807,-214.465 -15.807,-214.465l148.561,-71.178c-0,0 34.393,49.064 -32.319,285.643l-100.435,0Z" style="fill:#bfbfbf;fill-rule:nonzero;"/><path d="M272.703,774.893l150.621,-51.997c0,-0 5.212,-27.202 -6.106,-71.985c-20.307,-80.352 -30.424,-164.085 -27.003,-248.115c0.811,-19.859 1.95,-39.704 3.519,-58.526c1.179,-14.146 -7.202,-27.188 -19.659,-30.623c-59.997,-16.535 -110.404,-17.102 -110.404,-17.102c0,0 -35.033,0.567 -95.025,17.102c-12.462,3.435 -20.842,16.477 -19.664,30.623c3.488,41.73 4.906,88.405 5.367,129.092c0.612,53.815 -3.616,107.594 -13.494,160.03c-10.668,56.629 -6.785,85.684 -6.785,85.684l135.943,55.817l0,0.466l1.347,-0.231l1.343,0.231l0,-0.466Z" style="fill:#bfbfbf;fill-rule:nonzero;"/><clipPath id="_clip2"><path d="M272.703,774.893l150.621,-51.997c0,-0 5.212,-27.202 -6.106,-71.985c-20.307,-80.352 -30.424,-164.085 -27.003,-248.115c0.811,-19.859 1.95,-39.704 3.519,-58.526c1.179,-14.146 -7.202,-27.188 -19.659,-30.623c-59.997,-16.535 -110.404,-17.102 -110.404,-17.102c0,0 -35.033,0.567 -95.025,17.102c-12.462,3.435 -20.842,16.477 -19.664,30.623c3.488,41.73 4.906,88.405 5.367,129.092c0.612,53.815 -3.616,107.594 -13.494,160.03c-10.668,56.629 -6.785,85.684 -6.785,85.684l135.943,55.817l0,0.466l1.347,-0.231l1.343,0.231l0,-0.466Z" clip-rule="nonzero"/></clipPath><g clip-path="url(#_clip2)"><rect x="85.223" y="615.448" width="381.346" height="236.189" style="fill:#bfbfbf;fill-rule:nonzero;"/><path d="M137.752,435.666c0,0 61.845,-64.016 135.629,-5.429c70.527,-59.673 130.745,0.545 130.745,0.545l25.562,238.525c0,0 -103.321,0.519 -156.985,105.586c-50.318,-105.586 -158.301,-109.619 -158.301,-109.619l23.35,-229.608Z" style="fill:#242860;fill-rule:nonzero;"/></g><path d="M446.312,673.947c-0,0 -14.461,-25.185 -23.732,-33.273c-9.276,-8.093 -33.353,-29.937 -38.246,-29.6c-4.901,0.333 -29.103,12.715 -28.713,18.503c0.394,5.788 18.857,4.307 25.704,-3.537l5.415,7.233c0,-0 -11.132,0.758 -15.697,5.987c-4.56,5.234 -23.913,19.969 -23.439,26.87c0.465,6.9 7.459,14.487 39.557,-6.94l10.451,2.415c-0,-0 -25.244,10.219 -26.99,17.492c-1.737,7.277 15.808,8.766 37.404,-2.544c18.09,9.506 27.911,9.285 38.286,-2.606Z" style="fill:#bfbfbf;fill-rule:nonzero;"/><path d="M153.294,423.297c0,0 -35.414,52.392 26.041,85.706c0,-67.912 7.144,-87.199 7.144,-87.199l-33.185,1.493Z" style="fill:#242860;fill-rule:nonzero;"/><path d="M389.714,419.716c0,0 36.496,52.831 -24.955,86.149c0,-67.917 -7.144,-87.199 -7.144,-87.199l32.099,1.05Z" style="fill:#242860;fill-rule:nonzero;"/><rect x="127.103" y="333.359" width="285.587" height="420.567" style="fill:none;stroke:#939598;stroke-width:6.25px;"/></svg>