<?xml version="1.0" encoding="UTF-8" standalone="no"?><!DOCTYPE svg PUBLIC "-//W3C//DTD SVG 1.1//EN" "http://www.w3.org/Graphics/SVG/1.1/DTD/svg11.dtd"><svg width="100%" height="100%" viewBox="0 0 595 1696" version="1.1" xmlns="http://www.w3.org/2000/svg" xmlns:xlink="http://www.w3.org/1999/xlink" xml:space="preserve" xmlns:serif="http://www.serif.com/" style="fill-rule:evenodd;clip-rule:evenodd;stroke-linecap:round;stroke-linejoin:round;stroke-miterlimit:2;"><g><path d="M333.042,252.105c-6.693,-10.7 -14.463,-20.958 -24.04,-30.366c-29.974,-29.444 -74.142,-20.572 -90.857,13.615c-9.985,20.424 -19.503,40.981 -31.951,60.117c-4.962,7.63 -10.345,15.058 -14.128,23.319c-8.497,18.55 -3.955,39.83 13.037,52.164c11.055,8.026 22.244,7.782 35.193,7.749c9.338,-0.023 18.687,0.296 28.027,0.356c19.715,0.127 39.43,-0.044 59.143,0.056c20.553,0.108 47.276,-1.249 59.124,-20.749c2.683,-4.413 4.31,-9.379 5.174,-14.433c1.977,-11.574 -4.516,-22.738 -9.307,-33.002c-9.093,-19.488 -17.551,-39.852 -29.415,-58.826Z" style="fill:#242860;fill-rule:nonzero;"/><rect x="236.995" y="342.073" width="69.054" height="99.458" style="fill:#242860;fill-rule:nonzero;"/><clipPath id="_clip1"><rect x="236.995" y="342.073" width="69.054" height="99.458" clip-rule="nonzero"/></clipPath><g clip-path="url(#_clip1)"><path d="M270.012,216.552c-72.363,0 -79.321,91.284 -64.709,128.684c6.817,17.45 22.096,30.346 36.959,39.137c0.658,0.392 1.366,0.779 2.112,1.171c15.983,8.346 35.292,8.346 51.275,0c0.742,-0.392 1.446,-0.779 2.109,-1.171c14.866,-8.791 30.145,-21.687 36.962,-39.137c14.608,-37.4 7.65,-128.684 -64.708,-128.684Z" style="fill:#242860;fill-rule:nonzero;"/></g></g><path d="M353.995,501.723l20.125,-82.546c-0,0 34.591,10.15 168.341,180.53c-23,93.704 -105.487,157.629 -105.487,157.629l-16.709,-18.788l56.171,-133.304l-122.441,-103.521Z" style="fill:#242860;fill-rule:nonzero;"/><path d="M171.678,419.177c-0,0 -33.208,9.725 -39.75,46.23c-11.35,63.308 -13.967,275.975 -11.163,223.25c2.584,-48.546 -22.295,216.166 -22.295,216.166l24.712,7.442c0,-0 39.046,-139.283 52.879,-209.517c13.829,-70.233 -4.383,-283.571 -4.383,-283.571Z" style="fill:#242860;fill-rule:nonzero;"/><path d="M125.328,899.798c-0,0 -0.067,17.284 -9.171,36.575c-9.1,19.3 -16.771,23.025 -20.246,19.917c-3.471,-3.113 8.121,-14.954 7.538,-25.596c-0.583,-10.637 -31.204,6.317 -35.417,17.471c-4.217,11.154 -15.746,18.646 -16.3,8.517c-0.558,-10.134 7.617,-27.855 23.859,-37.384c16.245,-9.529 34.262,-23.729 34.262,-23.729l15.475,4.229Z" style="fill:#242860;fill-rule:nonzero;"/><path d="M146.645,751.694c-0,0 -12.563,34.154 -1.359,264.883c8.192,168.734 -5.446,158.559 6.804,258.871c12.25,100.321 12.25,167.946 12.25,167.946l25.863,0c0,0 34.029,-222.046 42.196,-318.983c8.167,-96.929 47.637,-307.338 47.637,-307.338l-133.391,-65.379Z" style="fill:#242860;fill-rule:nonzero;"/><path d="M413.424,751.694c-0,0 32.8,46.792 -31.75,273.371c-47.083,165.279 -13.238,156.875 -44.288,254.367c-31.05,97.495 -43.825,164.291 -43.825,164.291l-13.858,-1.812c-6.625,-0.871 -11.492,-6.609 -11.229,-13.284c1.871,-47.3 9.292,-225.266 18.129,-308.77c10.246,-96.805 -12.854,-301.242 -12.854,-301.242l139.675,-66.921Z" style="fill:#242860;fill-rule:nonzero;"/><path d="M274.161,850.965l141.613,-48.888c-0,0 4.9,-25.575 -5.742,-67.679c-19.091,-75.546 -28.604,-154.271 -25.387,-233.275c0.762,-18.671 1.833,-37.329 3.308,-55.025c1.108,-13.3 -6.771,-25.562 -18.483,-28.791c-56.409,-15.546 -103.8,-16.08 -103.8,-16.08c-0,0 -32.938,0.534 -89.342,16.08c-11.717,3.229 -19.596,15.491 -18.487,28.791c3.279,39.234 4.612,83.117 5.045,121.371c0.575,50.596 -3.4,101.158 -12.687,150.458c-10.029,53.242 -6.379,80.559 -6.379,80.559l127.812,52.479l0,0.437l1.267,-0.216l1.262,0.216l0,-0.437Z" style="fill:#242860;fill-rule:nonzero;"/><clipPath id="_clip2"><path d="M274.161,850.965l141.613,-48.888c-0,0 4.9,-25.575 -5.742,-67.679c-19.091,-75.546 -28.604,-154.271 -25.387,-233.275c0.762,-18.671 1.833,-37.329 3.308,-55.025c1.108,-13.3 -6.771,-25.562 -18.483,-28.791c-56.409,-15.546 -103.8,-16.08 -103.8,-16.08c-0,0 -32.938,0.534 -89.342,16.08c-11.717,3.229 -19.596,15.491 -18.487,28.791c3.279,39.234 4.612,83.117 5.045,121.371c0.575,50.596 -3.4,101.158 -12.687,150.458c-10.029,53.242 -6.379,80.559 -6.379,80.559l127.812,52.479l0,0.437l1.267,-0.216l1.262,0.216l0,-0.437Z" clip-rule="nonzero"/></clipPath><g clip-path="url(#_clip2)"><rect x="97.895" y="701.057" width="358.537" height="222.063" style="fill:#242860;fill-rule:nonzero;"/><path d="M147.282,532.027c0,0 58.146,-60.187 127.517,-5.104c66.308,-56.104 122.925,0.513 122.925,0.513l24.033,224.258c0,0 -97.141,0.488 -147.596,99.271c-47.308,-99.271 -148.833,-103.063 -148.833,-103.063l21.954,-215.875Z" style="fill:#fff;fill-rule:nonzero;"/><path d="M287.032,429.69c3.896,-1.438 7.721,-1.696 11.483,-1.842c3.767,-0.108 7.488,0.067 11.18,0.413c7.375,0.679 14.65,1.883 21.833,3.454c-7.296,-0.846 -14.638,-1.313 -21.925,-1.25c-3.642,0.021 -7.275,0.225 -10.825,0.683c-3.521,0.471 -7.092,1.15 -9.992,2.592c-1.091,0.546 -2.42,0.104 -2.966,-0.988c-0.546,-1.091 -0.104,-2.42 0.987,-2.966c0.071,-0.034 0.154,-0.071 0.225,-0.096Z" style="fill:#242860;fill-rule:nonzero;"/><path d="M205.399,431.715c7.183,-1.571 14.458,-2.775 21.837,-3.454c3.688,-0.346 7.409,-0.521 11.175,-0.413c3.767,0.146 7.588,0.404 11.484,1.842c1.146,0.421 1.733,1.692 1.308,2.837c-0.421,1.146 -1.692,1.734 -2.837,1.309c-0.075,-0.025 -0.155,-0.063 -0.226,-0.096c-2.895,-1.442 -6.47,-2.121 -9.991,-2.592c-3.55,-0.458 -7.184,-0.662 -10.825,-0.683c-7.292,-0.063 -14.629,0.404 -21.925,1.25Z" style="fill:#242860;fill-rule:nonzero;"/><path d="M259.128,430.636c3.708,0.625 6.346,0.971 9.2,0.791c2.854,-0.066 5.758,-0.712 9.517,-0.791c-2.034,3.129 -5.504,4.975 -9.325,5.2c-1.905,0.046 -3.875,-0.309 -5.55,-1.234c-1.679,-0.887 -3.075,-2.229 -3.842,-3.966Z" style="fill:#242860;fill-rule:nonzero;"/></g><path d="M437.386,756.057c0,-0 -13.595,-23.68 -22.312,-31.284c-8.721,-7.608 -31.359,-28.146 -35.959,-27.829c-4.608,0.313 -27.362,11.954 -26.995,17.396c0.371,5.442 17.729,4.05 24.166,-3.325l5.092,6.8c-0,-0 -10.467,0.712 -14.758,5.629c-4.288,4.921 -22.484,18.775 -22.038,25.263c0.438,6.487 7.013,13.62 37.192,-6.525l9.825,2.27c-0,0 -23.733,9.609 -25.375,16.446c-1.634,6.842 14.862,8.242 35.166,-2.391c17.009,8.937 26.242,8.729 35.996,-2.45Z" style="fill:#242860;fill-rule:nonzero;"/><path d="M268.474,1428.61l-0,38.571c-0,30.508 11.15,25.812 28.167,21.708c17.012,-4.108 29.92,-2.35 29.92,-17.017c0,-14.671 -28.52,-57.737 -28.52,-57.737l-29.567,14.475Z" style="fill:#242860;fill-rule:nonzero;"/><path d="M195.103,1402.51l-31.792,1.308c0,-0 -5.479,25.304 -47.391,50.467c-44.925,26.979 -49.642,22.654 -53.921,28.262c-4.279,5.604 9.904,16.429 51.258,2.588c41.359,-13.846 64.321,-1.538 80.863,-15.009c16.541,-13.466 0.983,-67.616 0.983,-67.616Z" style="fill:#242860;fill-rule:nonzero;"/><path d="M161.895,520.398c-0,0 -33.296,49.259 24.483,80.579c0,-63.85 6.717,-81.983 6.717,-81.983l-31.2,1.404Z" style="fill:#fff;fill-rule:nonzero;"/><path d="M384.174,517.032c-0,-0 34.312,49.67 -23.463,80.995c0,-63.854 -6.716,-81.983 -6.716,-81.983l30.179,0.988Z" style="fill:#fff;fill-rule:nonzero;"/><rect x="137.269" y="435.84" width="268.506" height="395.413" style="fill:none;stroke:#939598;stroke-width:6.25px;"/></svg>