<?xml version="1.0" encoding="UTF-8" standalone="no"?><!DOCTYPE svg PUBLIC "-//W3C//DTD SVG 1.1//EN" "http://www.w3.org/Graphics/SVG/1.1/DTD/svg11.dtd"><svg width="100%" height="100%" viewBox="0 0 595 1696" version="1.1" xmlns="http://www.w3.org/2000/svg" xmlns:xlink="http://www.w3.org/1999/xlink" xml:space="preserve" xmlns:serif="http://www.serif.com/" style="fill-rule:evenodd;clip-rule:evenodd;stroke-linecap:round;stroke-linejoin:round;stroke-miterlimit:2;"><path d="M445.728,741.983c-0.988,-8.263 -1.979,-16.6 -3.038,-25.034c15.096,-29.17 34.254,-65.991 48.846,-94.241c1.567,-3.038 3.171,-6.179 3.513,-9.559c0.308,-3.075 -0.405,-6.149 -1.125,-9.158c-9.325,-38.458 -18.65,-76.883 -27.971,-115.342c-1.575,6.184 -3.146,12.363 -4.75,18.513c-23.738,-71.283 -32.038,-146.838 -38.254,-221.779c3.175,1.437 6.354,2.837 9.529,4.237c11.954,5.192 24.079,10.075 36.512,13.938c7.954,2.458 16.055,4.508 23.742,7.683c23.325,9.733 41.358,29.954 51.675,53.046c9.804,21.963 13.112,46.417 12.671,70.462l0.241,0c4.951,54.925 9.938,109.846 14.892,164.771c0.817,8.809 1.604,17.725 0.238,26.471c-2.05,13.046 -8.779,24.829 -15.575,36.133c-27.221,45.363 -72,78.288 -106.809,118.317c-1.366,-12.671 -2.8,-25.479 -4.337,-38.458Z" style="fill:#242860;fill-rule:nonzero;"/><path d="M420.42,1516.71c0.991,4.679 2.666,9.221 4.474,13.662c12.842,31.592 32.892,59.363 49.425,89.042c2.625,4.717 5.259,10.354 3.28,15.408c-2.459,6.317 -10.317,7.717 -16.838,8.196c-12.571,0.959 -25.137,1.879 -37.712,2.8c-4.984,0.375 -10.246,0.684 -14.755,-1.6c-4.712,-2.396 -7.75,-7.212 -10.554,-11.821c-7.241,-11.887 -14.446,-23.77 -21.687,-35.658c-5.5,-9.021 -11.1,-18.342 -12.813,-28.867c-1.466,-9.22 0.171,-18.645 1.779,-27.833c2.53,-14.212 5.055,-28.35 7.584,-42.558c-8.334,-50.825 -15.884,-101.854 -17.696,-153.363c-0.646,-18.408 -0.542,-36.887 -2.183,-55.229c-1.913,-21.416 -6.217,-42.525 -10.046,-63.704c-8.913,-49.625 -15.092,-99.767 -21.309,-149.875c-4.991,-40.542 -8.916,-72.342 -13.937,-112.817c31.867,1.059 63.908,1.229 95.467,-3.487c17.725,-2.659 35.212,-6.863 52.291,-12.529c-2.083,64.008 -7.379,127.912 -15.812,191.337c-3.384,25.175 -7.242,50.588 -5.021,75.896c1.571,18.071 6.179,35.662 8.983,53.596c2.388,15.467 3.384,31.179 2.971,46.858c-0.512,19.367 -3.179,38.563 -5.841,57.758c-6.659,48.263 -13.355,96.492 -20.05,144.788Z" style="fill:#242860;fill-rule:nonzero;"/><path d="M163.465,613.691c-10.966,-35.279 -21.141,-70.804 -30.5,-106.529c23.734,-71.283 32.034,-146.838 38.254,-221.779c5.192,-2.321 10.384,-4.746 15.505,-7.204c-0.888,5.258 -0.717,10.791 -0.375,16.187c1.058,17.592 3.516,35.079 7.308,52.296c1.471,6.625 3.142,13.217 5.467,19.604c7.204,19.879 20.837,37.4 38.358,49.254c17.317,11.713 38.321,17.863 59.225,17.284l0.75,-0c20.904,0.579 41.912,-5.571 59.229,-17.284c17.521,-11.854 31.15,-29.375 38.354,-49.254c2.325,-6.387 3.996,-12.979 5.433,-19.604c3.826,-17.217 6.284,-34.704 7.346,-52.296c0.342,-5.396 0.513,-10.929 -0.379,-16.187c5.121,2.458 10.313,4.883 15.509,7.204c6.216,74.941 14.516,150.496 38.254,221.779c-9.738,37.058 -20.288,73.879 -31.696,110.425c4.883,34.462 9.254,67.425 13.183,99.362c1.059,8.434 2.05,16.771 3.038,25.034c-46.925,19.092 -97.754,28.587 -148.408,27.6l-0.476,-0c-51.404,0.987 -102.983,-8.779 -150.491,-28.417c1.125,-9.6 2.287,-19.233 3.483,-28.829c4.063,-32.929 8.608,-65.821 13.629,-98.646Z" style="fill:#fff;fill-rule:nonzero;"/><path d="M225.369,137.845c-0.4,-3.38 -0.608,-6.832 -0.608,-10.338c0,-42.914 31.02,-77.755 69.227,-77.755c38.207,-0 69.226,34.841 69.226,77.755c-0,1.176 -0.023,2.345 -0.069,3.505c2.822,-1.958 6.628,-2.594 9.86,-1.409c1.608,0.579 3.008,1.571 4.171,2.767c1.741,1.775 3.004,4.062 3.687,6.487c1.125,4.033 0.754,8.371 -0.071,12.471c-2.183,10.621 -8.162,21.037 -17.929,25.75l-0.067,0c-1.504,19.438 -7.995,47.512 -31.666,61.004c-8.538,4.917 -19.329,7.888 -32.959,7.888c-16.841,-0 -29.475,-4.405 -38.941,-11.271c-17.692,-12.775 -24.284,-34.017 -26.604,-50.65c-6.321,-2.325 -11.68,-7.109 -15.096,-12.913c-3.688,-6.25 -5.225,-13.696 -4.884,-20.937c0.1,-2.871 0.546,-5.738 1.913,-8.267c0.133,-0.204 0.237,-0.442 0.375,-0.65c1.433,-2.187 3.654,-3.925 6.25,-4.166c1.421,-0.161 2.845,0.142 4.185,0.729Z" style="fill:#242860;"/><path d="M172.14,1516.71c-6.696,-48.296 -13.391,-96.525 -20.05,-144.788c-2.662,-19.195 -5.329,-38.391 -5.841,-57.758c-0.409,-15.679 0.583,-31.391 3.008,-46.858c2.762,-17.934 7.379,-35.525 8.946,-53.596c2.221,-25.308 -1.638,-50.721 -5.021,-75.896c-8.433,-63.425 -13.733,-127.329 -15.817,-191.337c17.079,5.666 34.567,9.87 52.296,12.529c31.558,4.716 63.6,4.546 95.467,3.487c-5.021,40.475 -8.95,72.275 -13.934,112.817c-6.22,50.108 -12.4,100.25 -21.316,149.875c-3.825,21.179 -8.129,42.288 -10.042,63.704c-1.637,18.342 -1.537,36.821 -2.183,55.229c-1.813,51.542 -9.359,102.604 -17.659,153.463c2.525,14.179 5.021,28.283 7.546,42.458c1.642,9.188 3.242,18.613 1.779,27.833c-1.708,10.525 -7.312,19.846 -12.808,28.867c-7.208,11.888 -14.45,23.771 -21.692,35.658c-2.8,4.609 -5.841,9.425 -10.554,11.821c-4.508,2.284 -9.766,1.975 -14.758,1.6c-12.567,-0.921 -25.138,-1.841 -37.704,-2.8c-6.525,-0.479 -14.384,-1.879 -16.838,-8.196c-1.983,-5.054 0.646,-10.691 3.279,-15.408c16.525,-29.679 36.613,-57.45 49.421,-89.042c1.813,-4.441 3.484,-8.983 4.475,-13.662Z" style="fill:#242860;fill-rule:nonzero;"/><path d="M256.061,219.841c3.588,3.792 7.717,6.967 11.954,9.938c6.559,4.575 13.596,8.712 21.042,11.479c8.4,3.141 17.621,3.141 26.025,-0c7.446,-2.767 14.483,-6.904 21.042,-11.479c1.912,-1.334 3.787,-2.7 5.6,-4.2c0.17,5.737 0.341,11.475 0.508,17.212c21.113,12.913 42.904,24.696 65.208,35.388c0.892,5.258 0.721,10.791 0.379,16.187c-1.062,17.592 -3.52,35.079 -7.346,52.296c-1.437,6.625 -3.108,13.217 -5.433,19.604c-7.204,19.879 -20.833,37.4 -38.354,49.254c-17.317,11.713 -38.325,17.863 -59.229,17.284l-0.75,-0c-20.904,0.579 -41.908,-5.571 -59.225,-17.284c-17.521,-11.854 -31.154,-29.375 -38.358,-49.254c-2.325,-6.387 -3.996,-12.979 -5.467,-19.604c-3.792,-17.217 -6.25,-34.704 -7.308,-52.296c-0.342,-5.396 -0.513,-10.929 0.375,-16.187c22.304,-10.692 44.095,-22.475 65.208,-35.388c0.271,-8.571 0.508,-17.146 0.746,-25.721l0.583,-0.441c0.888,1.129 1.813,2.187 2.8,3.212Z" style="fill:#242860;fill-rule:nonzero;"/><path d="M146.353,741.166c-1.604,14.071 -3.179,28.142 -4.646,42.217c-34.5,-39.963 -77.363,-76.204 -104.45,-121.259c-6.763,-11.304 -13.492,-23.087 -15.538,-36.133c-1.366,-8.746 -0.583,-17.662 0.234,-26.471c4.958,-54.925 9.941,-109.846 14.891,-164.771l0.242,0c-0.442,-24.045 2.871,-48.499 12.671,-70.462c10.317,-23.092 28.35,-43.313 51.679,-53.046c7.684,-3.175 15.784,-5.225 23.742,-7.683c12.429,-3.863 24.554,-8.746 36.508,-13.938c3.179,-1.4 6.354,-2.8 9.533,-4.237c-6.22,74.941 -14.52,150.496 -38.254,221.779c-1.608,-6.15 -3.179,-12.329 -4.75,-18.513c-9.325,38.459 -18.65,76.884 -27.975,115.342c-0.716,3.009 -1.433,6.083 -1.125,9.158c0.342,3.38 1.946,6.521 3.517,9.559c15.404,29.821 30.808,59.637 46.212,89.491l0.992,0.138c-1.196,9.596 -2.358,19.229 -3.483,28.829Z" style="fill:#242860;fill-rule:nonzero;"/><path d="M141.707,783.383c1.467,-14.075 3.042,-28.146 4.646,-42.217c47.508,19.638 99.087,29.404 150.491,28.417l0.476,-0c50.654,0.987 101.483,-8.508 148.408,-27.6c1.537,12.979 2.971,25.787 4.337,38.458c6.079,55.917 10.659,109.371 13.904,162.959c-2.904,1.095 -5.841,2.12 -8.779,3.079c-17.079,5.666 -34.566,9.87 -52.291,12.529c-31.559,4.716 -63.6,4.546 -95.467,3.487c-1.196,-0.033 -2.392,-0.066 -3.583,-0.104c-1.85,-19.162 -4.309,-38.254 -7.517,-57.242l-0.104,0c-3.209,18.988 -5.671,38.08 -7.513,57.242c-1.196,0.038 -2.391,0.071 -3.587,0.104c-31.867,1.059 -63.909,1.229 -95.467,-3.487c-17.729,-2.659 -35.217,-6.863 -52.296,-12.529c-2.937,-0.959 -5.871,-1.984 -8.775,-3.113c3.179,-53.421 7.584,-106.766 13.117,-159.983Z" style="fill:#fff;fill-rule:nonzero;"/><path d="M146.353,741.983c77.386,39.396 216.657,37.614 299.375,-0" style="fill:none;stroke:#242860;stroke-width:8.33px;"/><path d="M293.132,759.047l185.159,-434.312l-370.313,-0l185.154,434.312Z" style="fill:none;stroke:#7e7e7e;stroke-width:3.96px;stroke-linecap:butt;stroke-linejoin:miter;"/></svg>