<?xml version="1.0" encoding="UTF-8" standalone="no"?><!DOCTYPE svg PUBLIC "-//W3C//DTD SVG 1.1//EN" "http://www.w3.org/Graphics/SVG/1.1/DTD/svg11.dtd"><svg width="100%" height="100%" viewBox="0 0 595 1042" version="1.1" xmlns="http://www.w3.org/2000/svg" xmlns:xlink="http://www.w3.org/1999/xlink" xml:space="preserve" xmlns:serif="http://www.serif.com/" style="fill-rule:evenodd;clip-rule:evenodd;stroke-linecap:round;stroke-linejoin:round;stroke-miterlimit:2;"><path d="M428.19,660.65c-0.871,-7.287 -1.746,-14.641 -2.679,-22.08c13.314,-25.729 30.212,-58.205 43.082,-83.122c1.382,-2.679 2.797,-5.45 3.098,-8.431c0.272,-2.712 -0.356,-5.424 -0.992,-8.077c-8.225,-33.921 -16.449,-67.812 -24.671,-101.733c-1.389,5.454 -2.774,10.904 -4.189,16.328c-20.937,-62.873 -28.258,-129.513 -33.741,-195.612c2.801,1.268 5.605,2.503 8.405,3.737c10.544,4.579 21.238,8.887 32.205,12.293c7.015,2.169 14.16,3.977 20.94,6.777c20.573,8.585 36.479,26.42 45.578,46.787c8.648,19.372 11.566,40.94 11.176,62.149l0.213,0c4.366,48.445 8.765,96.886 13.135,145.33c0.72,7.769 1.415,15.634 0.209,23.348c-1.808,11.507 -7.743,21.9 -13.737,31.87c-24.009,40.01 -63.505,69.051 -94.207,104.357c-1.205,-11.176 -2.469,-22.473 -3.825,-33.921Z" style="fill:#bfbfbf;fill-rule:nonzero;"/><path d="M179.23,547.495c-9.672,-31.117 -18.647,-62.45 -26.901,-93.96c20.933,-62.873 28.254,-129.513 33.741,-195.612c4.579,-2.047 9.158,-4.186 13.675,-6.354c-0.783,4.638 -0.633,9.518 -0.331,14.277c0.933,15.516 3.102,30.941 6.446,46.126c1.297,5.843 2.771,11.657 4.822,17.291c6.354,17.534 18.379,32.987 33.832,43.443c15.274,10.33 33.8,15.755 52.237,15.244l0.662,-0c18.438,0.511 36.967,-4.914 52.241,-15.244c15.453,-10.456 27.475,-25.909 33.829,-43.443c2.05,-5.634 3.524,-11.448 4.792,-17.291c3.374,-15.185 5.542,-30.61 6.479,-46.126c0.301,-4.759 0.452,-9.639 -0.334,-14.277c4.516,2.168 9.095,4.307 13.678,6.354c5.483,66.099 12.804,132.739 33.741,195.612c-8.589,32.686 -17.894,65.162 -27.956,97.396c4.307,30.397 8.162,59.47 11.628,87.639c0.933,7.439 1.808,14.793 2.679,22.08c-41.389,16.839 -86.221,25.215 -130.898,24.344l-0.419,-0c-45.34,0.871 -90.833,-7.744 -132.736,-25.064c0.992,-8.467 2.018,-16.964 3.072,-25.428c3.583,-29.044 7.593,-58.055 12.021,-87.007Z" style="fill:#242860;fill-rule:nonzero;"/><path d="M233.831,127.792c-0.354,-2.981 -0.537,-6.026 -0.537,-9.118c0,-37.851 27.36,-68.581 61.059,-68.581c33.699,0 61.058,30.73 61.058,68.581c0,1.037 -0.02,2.069 -0.061,3.092c2.489,-1.727 5.847,-2.288 8.697,-1.243c1.419,0.511 2.653,1.385 3.679,2.44c1.536,1.566 2.65,3.583 3.252,5.722c0.992,3.558 0.665,7.383 -0.062,11c-1.926,9.367 -7.2,18.555 -15.814,22.712l-0.059,-0c-1.327,17.144 -7.052,41.906 -27.93,53.806c-7.531,4.337 -17.049,6.957 -29.07,6.957c-14.855,-0 -25.997,-3.885 -34.347,-9.941c-15.604,-11.268 -21.418,-30.003 -23.465,-44.674c-5.575,-2.051 -10.301,-6.27 -13.315,-11.389c-3.252,-5.513 -4.609,-12.08 -4.307,-18.467c0.088,-2.532 0.481,-5.061 1.687,-7.292c0.117,-0.18 0.209,-0.389 0.33,-0.573c1.265,-1.929 3.223,-3.462 5.513,-3.675c1.254,-0.142 2.51,0.126 3.692,0.643Z" style="fill:#bfbfbf;"/><path d="M260.901,200.114c3.164,3.344 6.806,6.145 10.544,8.765c5.784,4.035 11.992,7.685 18.559,10.125c7.409,2.771 15.542,2.771 22.954,-0c6.568,-2.44 12.775,-6.09 18.559,-10.125c1.687,-1.176 3.341,-2.381 4.94,-3.704c0.15,5.06 0.301,10.121 0.448,15.181c18.622,11.389 37.842,21.782 57.515,31.213c0.786,4.638 0.635,9.518 0.334,14.277c-0.937,15.516 -3.105,30.941 -6.479,46.126c-1.268,5.843 -2.742,11.657 -4.792,17.291c-6.354,17.534 -18.376,32.987 -33.829,43.443c-15.274,10.33 -33.803,15.755 -52.241,15.244l-0.662,-0c-18.437,0.511 -36.963,-4.914 -52.237,-15.244c-15.453,-10.456 -27.478,-25.909 -33.832,-43.443c-2.051,-5.634 -3.525,-11.448 -4.822,-17.291c-3.344,-15.185 -5.513,-30.61 -6.446,-46.126c-0.302,-4.759 -0.452,-9.639 0.331,-14.277c19.672,-9.431 38.893,-19.824 57.514,-31.213c0.239,-7.559 0.449,-15.123 0.658,-22.686l0.515,-0.389c0.782,0.996 1.598,1.929 2.469,2.833Z" style="fill:#bfbfbf;fill-rule:nonzero;"/><path d="M164.137,659.93c-1.415,12.411 -2.804,24.821 -4.098,37.235c-30.429,-35.247 -68.234,-67.213 -92.126,-106.951c-5.965,-9.97 -11.9,-20.363 -13.704,-31.87c-1.206,-7.714 -0.515,-15.579 0.205,-23.348c4.374,-48.444 8.769,-96.885 13.135,-145.33l0.213,0c-0.389,-21.209 2.532,-42.777 11.176,-62.149c9.1,-20.367 25.005,-38.202 45.582,-46.787c6.777,-2.8 13.921,-4.608 20.94,-6.777c10.963,-3.406 21.657,-7.714 32.201,-12.293c2.804,-1.234 5.605,-2.469 8.409,-3.737c-5.487,66.099 -12.808,132.739 -33.741,195.612c-1.419,-5.424 -2.804,-10.874 -4.19,-16.328c-8.224,33.921 -16.449,67.812 -24.674,101.733c-0.632,2.653 -1.264,5.365 -0.992,8.077c0.301,2.981 1.716,5.752 3.102,8.431c13.586,26.302 27.173,52.601 40.76,78.933l0.874,0.121c-1.054,8.464 -2.08,16.961 -3.072,25.428Z" style="fill:#bfbfbf;fill-rule:nonzero;"/><path d="M160.039,697.165c1.294,-12.414 2.683,-24.824 4.098,-37.235c41.903,17.32 87.396,25.935 132.736,25.064l0.419,-0c44.677,0.871 89.509,-7.505 130.898,-24.344c1.356,11.448 2.62,22.745 3.825,33.921c5.362,49.319 9.401,96.466 12.264,143.731c-2.561,0.967 -5.152,1.871 -7.743,2.716c-15.064,4.998 -30.488,8.706 -46.122,11.051c-27.835,4.16 -56.096,4.01 -84.203,3.076c-1.055,-0.029 -2.109,-0.059 -3.161,-0.092c-1.631,-16.901 -3.8,-33.74 -6.629,-50.488l-0.092,0c-2.83,16.748 -5.002,33.587 -6.626,50.488c-1.055,0.033 -2.11,0.063 -3.165,0.092c-28.106,0.934 -56.368,1.084 -84.203,-3.076c-15.637,-2.345 -31.061,-6.053 -46.125,-11.051c-2.591,-0.845 -5.178,-1.749 -7.74,-2.745c2.804,-47.118 6.689,-94.17 11.569,-141.108Z" style="fill:#242860;fill-rule:nonzero;"/><path d="M164.137,660.65c68.255,34.748 191.095,33.176 264.053,0" style="fill:none;stroke:#bfbfbf;stroke-width:8.33px;"/><path d="M293.598,675.701l163.313,-383.069l-326.621,-0l163.308,383.069Z" style="fill:none;stroke:#7e7e7e;stroke-width:3.96px;stroke-linecap:butt;stroke-linejoin:miter;"/><path d="M167.839,991.574c-6.097,-49.956 -9.991,-100.219 -11.629,-150.556c15.064,4.998 30.488,8.706 46.125,11.051c27.835,4.16 56.097,4.01 84.203,3.076c-4.428,35.7 -7.894,63.748 -12.289,99.506c-1.528,12.309 -3.053,24.62 -4.629,36.923l-101.781,-0Z" style="fill:#bfbfbf;fill-rule:nonzero;"/><path d="M323.13,991.574c-1.574,-12.303 -3.099,-24.614 -4.626,-36.923c-4.403,-35.758 -7.865,-63.806 -12.293,-99.506c28.107,0.934 56.368,1.084 84.203,-3.076c15.634,-2.345 31.058,-6.053 46.122,-11.051c-1.639,50.337 -5.529,100.6 -11.626,150.556l-101.78,-0Z" style="fill:#bfbfbf;fill-rule:nonzero;"/></svg>