<?xml version="1.0" encoding="UTF-8" standalone="no"?><!DOCTYPE svg PUBLIC "-//W3C//DTD SVG 1.1//EN" "http://www.w3.org/Graphics/SVG/1.1/DTD/svg11.dtd"><svg width="100%" height="100%" viewBox="0 0 595 1696" version="1.1" xmlns="http://www.w3.org/2000/svg" xmlns:xlink="http://www.w3.org/1999/xlink" xml:space="preserve" xmlns:serif="http://www.serif.com/" style="fill-rule:evenodd;clip-rule:evenodd;stroke-linecap:round;stroke-linejoin:round;stroke-miterlimit:2;"><path d="M484.944,1565.82c4.063,5.159 8.605,12.059 5.225,17.696c-1.504,2.525 -4.27,3.996 -6.966,5.192c-12.846,5.7 -27.121,8.262 -41.159,7.375c-4.92,-0.309 -10.212,-1.196 -13.633,-4.779c-2.8,-2.875 -3.787,-6.971 -5.021,-10.796c-5.154,-16.159 -15.912,-30.434 -29.987,-39.859c-2.596,-1.741 -5.467,-3.483 -6.763,-6.32c-1.708,-3.621 -0.341,-7.859 0.854,-11.684c12.025,-38.25 8.471,-79.683 0.442,-118.962c-8.025,-39.279 -20.354,-77.709 -25.717,-117.429c-4.166,-30.842 -4.066,-62.267 -10.45,-92.734c-5.533,-26.266 -15.75,-51.371 -21.554,-77.571c-9.496,-42.762 -6.966,-87.337 -13.971,-130.579c8.642,-0.237 17.321,-1.021 25.925,-1.912c31.15,-3.175 62.163,-7.409 93.042,-12.638l0.171,0.921c0.512,48.879 0.987,97.863 -2.838,146.633c-1.433,18.413 -3.479,36.859 -3.004,55.3c0.55,19.405 3.892,38.596 6.9,57.759c6.967,44.608 12.058,89.691 10.517,134.85c-1.158,34.8 -6.25,69.741 -1.913,104.308c4.375,34.567 18.313,67.871 39.9,95.229Z" style="fill:#242860;fill-rule:nonzero;"/><path d="M450.611,970.068c-0.679,-0.821 -1.292,-1.708 -1.804,-2.633c-3.075,-5.496 -3.45,-12.671 -2.704,-19.125c0.996,-8.538 3.45,-17.213 1.812,-25.65c-0.887,-4.575 -2.937,-8.813 -4.337,-13.25c-3.384,-10.967 -2.559,-22.854 0.954,-33.821c0.654,-2.012 1.4,-3.996 2.225,-5.908c4.817,-11.371 12.329,-21.413 20.629,-30.6c-10.521,-65.342 -21.075,-130.65 -31.629,-195.988c-5.533,-34.396 -11.204,-69.2 -24.834,-101.242c1.951,-70.495 2.392,-141.029 -7.104,-207.737c14.759,4.988 29.442,10.213 40.784,20.633c11.341,10.384 17.966,24.867 23.5,39.213c14.445,37.604 23.191,77.358 25.858,117.562c2.117,31.938 0.404,64.042 1.842,96.013c1.946,43.037 9.562,85.558 13.491,128.462c3.859,42.18 4.03,85.492 -8.095,126.034c-0.1,24.321 -0.238,48.675 -0.375,73.029c-0.101,13.625 -1.126,29.304 -11.955,37.567c-4.541,3.45 -10.146,5.058 -15.645,6.42c-5.634,1.438 -11.338,2.767 -17.042,3.934c-3.075,0.612 -7.171,0.683 -8.3,-2.221c-0.513,-1.263 -0.204,-2.7 0.171,-4.029c0.683,-2.292 1.537,-4.509 2.558,-6.663Z" style="fill:#242860;fill-rule:nonzero;"/><path d="M166.332,542.639c-1.946,-70.533 -2.388,-141.033 7.071,-207.771c5.57,-1.879 11.171,-3.758 16.566,-5.875c1.88,-0.75 3.759,-1.504 5.6,-2.321c-4.779,24.284 -4.096,49.9 4.204,73.23c8.334,23.466 24.83,44.404 46.863,56.049c11.75,6.18 24.625,9.596 37.842,11.134c16.12,-0.988 31.971,-4.404 46.15,-11.888c22.029,-11.645 38.525,-32.583 46.862,-56.045c8.296,-23.334 8.979,-48.984 4.196,-73.234c1.846,0.821 3.725,1.571 5.604,2.325c5.396,2.084 10.963,3.959 16.529,5.871c9.496,66.708 9.055,137.242 7.104,207.737c-1.874,66.13 -5.054,132.221 -2.595,195.271c0.037,1.059 0.071,2.084 0.104,3.109c-139.663,75.141 -239.604,0.787 -239.604,0.787c0.033,-1.058 0.066,-2.083 0.1,-3.141c2.462,-63.021 -0.717,-129.146 -2.596,-195.238Z" style="fill:#fff;fill-rule:nonzero;"/><path d="M168.828,741.018c-0,0 98.885,73.569 237.387,0.395c0.738,-0.39 1.477,-0.784 2.217,-1.182c-0.033,-1.025 -0.067,-2.05 -0.104,-3.109c14.446,45.392 27.633,91.609 36.204,138.467c-3.513,10.967 -4.338,22.854 -0.954,33.821c1.4,4.437 3.45,8.675 4.337,13.25c1.638,8.437 -0.816,17.112 -1.812,25.65c-0.746,6.454 -0.371,13.629 2.704,19.125l-1.983,1.367c-3.863,0.683 -7.755,1.37 -11.613,2.016c-30.879,5.229 -61.892,9.463 -93.042,12.638c-8.604,0.891 -17.283,1.675 -25.925,1.912c-4.37,0.138 -8.779,0.104 -13.15,-0.133c-3.587,-13.05 -7.175,-26.029 -10.758,-39.042l-7.412,0.75c-3.588,13.013 -7.171,26.025 -10.759,39.042c-4.375,0.237 -8.746,0.275 -13.116,0.137c-8.675,-0.241 -17.35,-1.025 -25.959,-1.912c-31.117,-3.179 -62.129,-7.379 -93.008,-12.642c-3.896,-0.646 -7.754,-1.329 -11.646,-2.012l-2.629,-0.309c3.654,-5.6 4.166,-13.287 3.346,-20.15c-0.992,-8.575 -3.45,-17.216 -1.813,-25.687c0.892,-4.575 2.938,-8.808 4.338,-13.217c3.416,-11 2.566,-22.921 -0.988,-33.883c8.642,-46.829 21.792,-93.042 36.238,-138.433c-0.034,1.058 -0.067,2.083 -0.1,3.141Z" style="fill:#fff;fill-rule:nonzero;"/><path d="M168.828,737.122c63.277,40.88 174.695,38.301 239.566,0" style="fill:none;stroke:#242860;stroke-width:8.33px;"/><path d="M332.332,293.402c14.379,13.591 31.183,24.662 49.354,32.516c4.783,24.25 4.1,49.9 -4.196,73.234c-8.337,23.462 -24.833,44.4 -46.862,56.045c-14.179,7.484 -30.03,10.9 -46.15,11.888c-13.217,-1.538 -26.092,-4.954 -37.842,-11.134c-22.033,-11.645 -38.529,-32.583 -46.863,-56.049c-8.3,-23.33 -8.983,-48.946 -4.204,-73.23c18.171,-7.825 34.975,-18.891 49.359,-32.521c0.237,-7.479 0.475,-14.925 0.75,-22.404c2.016,1.642 4.1,3.175 6.216,4.646c2.05,1.433 4.1,2.8 6.25,4.1c17.113,10.55 38.459,10.55 55.609,0.029c2.116,-1.329 4.2,-2.696 6.25,-4.129c4.062,-2.871 8.025,-5.908 11.508,-9.462c0.275,8.812 0.546,17.658 0.821,26.471Z" style="fill:#242860;fill-rule:nonzero;"/><path d="M216.915,186.897c-0.401,-3.379 -0.608,-6.831 -0.608,-10.338c-0,-42.914 31.019,-77.755 69.226,-77.755c38.207,0 69.226,34.841 69.226,77.755c0,1.176 -0.023,2.346 -0.069,3.506c2.822,-1.958 6.629,-2.594 9.86,-1.409c1.609,0.579 3.009,1.571 4.171,2.766c1.742,1.775 3.004,4.063 3.688,6.488c1.124,4.033 0.754,8.371 -0.071,12.471c-2.184,10.621 -8.163,21.037 -17.929,25.75l-0.067,-0c-1.504,19.437 -7.996,47.512 -31.667,61.004c-8.537,4.916 -19.329,7.887 -32.958,7.887c-16.842,0 -29.475,-4.404 -38.942,-11.27c-17.692,-12.775 -24.283,-34.017 -26.604,-50.65c-6.321,-2.325 -11.679,-7.109 -15.096,-12.913c-3.687,-6.25 -5.225,-13.696 -4.883,-20.938c0.1,-2.87 0.546,-5.737 1.912,-8.266c0.134,-0.204 0.238,-0.442 0.375,-0.65c1.434,-2.188 3.654,-3.925 6.25,-4.167c1.422,-0.16 2.846,0.143 4.186,0.729Z" style="fill:#242860;"/><path d="M261.049,986.122c-7.038,43.242 -4.509,87.817 -14.005,130.58c-5.808,26.195 -16.021,51.3 -21.55,77.566c-6.391,30.467 -6.287,61.892 -10.454,92.738c-5.362,39.721 -17.692,78.146 -25.721,117.425c-8.025,39.279 -11.579,80.708 0.446,118.966c1.229,3.825 2.563,8.063 0.854,11.713c-1.3,2.8 -4.17,4.542 -6.762,6.287c-14.075,9.425 -24.834,23.742 -29.992,39.863c-1.229,3.825 -2.221,7.921 -5.021,10.825c-3.412,3.554 -8.708,4.475 -13.625,4.783c-14.041,0.854 -28.283,-1.708 -41.158,-7.416c-2.7,-1.196 -5.467,-2.663 -6.971,-5.192c-3.379,-5.633 1.163,-12.5 5.229,-17.654c21.584,-27.359 35.555,-60.696 39.892,-95.263c4.338,-34.566 -0.75,-69.508 -1.912,-104.312c-1.538,-45.121 3.55,-90.242 10.52,-134.85c3.005,-19.159 6.355,-38.359 6.9,-57.759c0.513,-18.445 -1.57,-36.887 -3.008,-55.295c-3.825,-48.78 -3.312,-97.755 -2.8,-146.634l0.171,-0.925c30.879,5.263 61.891,9.463 93.008,12.642c8.609,0.887 17.284,1.671 25.959,1.912Z" style="fill:#242860;fill-rule:nonzero;"/><path d="M76.057,862.785c-12.121,-40.542 -11.954,-83.854 -8.092,-126.038c3.925,-42.9 11.542,-85.425 13.492,-128.462c1.433,-31.967 -0.275,-64.075 1.846,-96.008c2.662,-40.205 11.441,-79.963 25.854,-117.567c5.533,-14.346 12.158,-28.829 23.5,-39.213c11.337,-10.416 25.992,-15.608 40.746,-20.629c-9.459,66.738 -9.017,137.238 -7.071,207.771c-13.625,32.004 -19.296,66.808 -24.829,101.238c-10.555,65.341 -21.075,130.616 -31.629,195.954c8.3,9.187 15.812,19.233 20.629,30.604c0.821,1.912 1.537,3.858 2.187,5.875c3.554,10.962 4.404,22.883 0.988,33.883c-1.4,4.409 -3.446,8.642 -4.338,13.217c-1.637,8.471 0.821,17.112 1.813,25.687c0.82,6.863 0.308,14.55 -3.346,20.15c-0.342,0.55 -0.721,1.063 -1.129,1.571c1.025,2.15 1.879,4.375 2.529,6.659c0.375,1.337 0.683,2.766 0.171,4.033c-1.129,2.937 -5.229,2.837 -8.3,2.217c-5.704,-1.159 -11.409,-2.455 -17.046,-3.888c-5.5,-1.404 -11.1,-3.008 -15.609,-6.458c-10.862,-8.263 -11.887,-23.942 -11.954,-37.575c-0.171,-24.313 -0.308,-48.704 -0.412,-73.021Z" style="fill:#242860;fill-rule:nonzero;"/><rect x="174.007" y="367.008" width="229.812" height="343.177" style="fill:none;stroke:#7e7e7e;stroke-width:3.96px;stroke-linecap:butt;stroke-linejoin:miter;"/></svg>