<?xml version="1.0" encoding="UTF-8" standalone="no"?><!DOCTYPE svg PUBLIC "-//W3C//DTD SVG 1.1//EN" "http://www.w3.org/Graphics/SVG/1.1/DTD/svg11.dtd"><svg width="100%" height="100%" viewBox="0 0 595 1042" version="1.1" xmlns="http://www.w3.org/2000/svg" xmlns:xlink="http://www.w3.org/1999/xlink" xml:space="preserve" xmlns:serif="http://www.serif.com/" style="fill-rule:evenodd;clip-rule:evenodd;stroke-linecap:round;stroke-linejoin:round;stroke-miterlimit:2;"><path d="M444.614,837.998c-0.619,-0.747 -1.177,-1.555 -1.643,-2.398c-2.801,-5.005 -3.143,-11.54 -2.463,-17.419c0.907,-7.775 3.142,-15.676 1.651,-23.361c-0.809,-4.167 -2.676,-8.026 -3.951,-12.068c-3.081,-9.988 -2.33,-20.815 0.869,-30.803c0.596,-1.833 1.275,-3.64 2.027,-5.382c4.386,-10.356 11.229,-19.502 18.788,-27.87c-9.582,-59.512 -19.195,-118.993 -28.807,-178.501c-5.04,-31.327 -10.205,-63.027 -22.618,-92.21c1.776,-64.206 2.178,-128.446 -6.47,-189.203c13.441,4.543 26.815,9.301 37.145,18.792c10.329,9.457 16.363,22.649 21.403,35.714c13.157,34.25 21.122,70.457 23.551,107.074c1.928,29.088 0.368,58.328 1.678,87.447c1.772,39.197 8.709,77.925 12.288,117.001c3.514,38.416 3.669,77.864 -7.374,114.789c-0.091,22.151 -0.216,44.332 -0.341,66.513c-0.092,12.41 -1.025,26.69 -10.888,34.216c-4.137,3.142 -9.241,4.607 -14.25,5.848c-5.131,1.309 -10.326,2.519 -15.521,3.582c-2.801,0.558 -6.531,0.622 -7.56,-2.023c-0.467,-1.15 -0.186,-2.459 0.156,-3.669c0.622,-2.088 1.4,-4.107 2.33,-6.069Z" style="fill:#bfbfbf;fill-rule:nonzero;"/><path d="M185.698,448.704c-1.773,-64.241 -2.175,-128.451 6.44,-189.234c5.073,-1.712 10.174,-3.423 15.088,-5.351c1.712,-0.683 3.423,-1.37 5.101,-2.114c-4.353,22.117 -3.731,45.448 3.829,66.696c7.589,21.373 22.614,40.443 42.681,51.049c10.702,5.628 22.428,8.74 34.466,10.14c14.682,-0.899 29.118,-4.011 42.032,-10.827c20.064,-10.606 35.088,-29.676 42.682,-51.045c7.555,-21.252 8.178,-44.613 3.821,-66.7c1.681,0.748 3.393,1.431 5.104,2.118c4.915,1.897 9.985,3.605 15.055,5.347c8.648,60.757 8.246,124.997 6.47,189.203c-1.707,60.23 -4.603,120.425 -2.364,177.85c0.034,0.964 0.064,1.897 0.095,2.831c-127.202,68.437 -218.227,0.717 -218.227,0.717c0.03,-0.964 0.06,-1.898 0.091,-2.861c2.243,-57.399 -0.653,-117.624 -2.364,-177.819Z" style="fill:#242860;fill-rule:nonzero;"/><path d="M187.971,629.384c-0,-0 90.063,67.005 216.208,0.359c0.672,-0.355 1.345,-0.714 2.019,-1.076c-0.031,-0.934 -0.061,-1.867 -0.095,-2.831c13.157,41.342 25.168,83.435 32.974,126.113c-3.199,9.988 -3.95,20.815 -0.869,30.803c1.275,4.042 3.142,7.901 3.951,12.068c1.491,7.685 -0.744,15.586 -1.651,23.361c-0.68,5.879 -0.338,12.414 2.463,17.419l-1.807,1.245c-3.518,0.622 -7.062,1.248 -10.576,1.837c-28.124,4.762 -56.37,8.618 -84.741,11.51c-7.836,0.812 -15.741,1.525 -23.612,1.741c-3.981,0.126 -7.996,0.095 -11.977,-0.121c-3.267,-11.886 -6.534,-23.707 -9.798,-35.558l-6.751,0.683c-3.268,11.851 -6.531,23.703 -9.799,35.558c-3.984,0.216 -7.965,0.251 -11.946,0.125c-7.901,-0.22 -15.802,-0.933 -23.643,-1.742c-28.34,-2.895 -56.586,-6.72 -84.71,-11.513c-3.548,-0.589 -7.062,-1.211 -10.607,-1.833l-2.394,-0.281c3.328,-5.1 3.795,-12.102 3.047,-18.352c-0.903,-7.81 -3.142,-15.681 -1.651,-23.396c0.812,-4.167 2.676,-8.023 3.951,-12.038c3.112,-10.018 2.337,-20.875 -0.9,-30.86c7.871,-42.651 19.848,-84.741 33.005,-126.082c-0.031,0.963 -0.061,1.897 -0.091,2.861Z" style="fill:#242860;fill-rule:nonzero;"/><path d="M187.971,625.836c57.632,37.232 159.109,34.883 218.192,-0" style="fill:none;stroke:#bfbfbf;stroke-width:8.33px;"/><path d="M336.887,221.703c13.097,12.379 28.402,22.462 44.951,29.615c4.357,22.087 3.734,45.448 -3.821,66.7c-7.594,21.369 -22.618,40.439 -42.682,51.045c-12.914,6.816 -27.35,9.928 -42.032,10.827c-12.038,-1.4 -23.764,-4.512 -34.466,-10.14c-20.067,-10.606 -35.092,-29.676 -42.681,-51.049c-7.56,-21.248 -8.182,-44.579 -3.829,-66.696c16.549,-7.127 31.854,-17.206 44.954,-29.619c0.217,-6.812 0.433,-13.594 0.683,-20.405c1.837,1.495 3.735,2.891 5.662,4.231c1.867,1.305 3.735,2.55 5.693,3.734c15.585,9.609 35.027,9.609 50.647,0.027c1.928,-1.211 3.825,-2.456 5.692,-3.761c3.7,-2.615 7.309,-5.381 10.482,-8.618c0.25,8.026 0.497,16.083 0.747,24.109Z" style="fill:#bfbfbf;fill-rule:nonzero;"/><path d="M231.767,124.701c-0.364,-3.078 -0.553,-6.223 -0.553,-9.416c-0,-39.085 28.252,-70.818 63.05,-70.818c34.798,0 63.05,31.733 63.05,70.818c-0,1.071 -0.021,2.137 -0.063,3.193c2.57,-1.784 6.037,-2.363 8.98,-1.284c1.465,0.528 2.74,1.431 3.799,2.52c1.586,1.617 2.736,3.7 3.358,5.909c1.025,3.673 0.687,7.624 -0.064,11.358c-1.989,9.673 -7.434,19.161 -16.33,23.453l-0.06,-0c-1.37,17.703 -7.283,43.273 -28.842,55.561c-7.776,4.478 -17.604,7.184 -30.018,7.184c-15.339,0 -26.845,-4.011 -35.467,-10.265c-16.113,-11.635 -22.117,-30.982 -24.231,-46.131c-5.756,-2.118 -10.637,-6.475 -13.749,-11.761c-3.358,-5.692 -4.759,-12.474 -4.447,-19.069c0.091,-2.615 0.497,-5.226 1.742,-7.529c0.121,-0.186 0.216,-0.403 0.341,-0.592c1.306,-1.993 3.328,-3.575 5.693,-3.795c1.294,-0.147 2.591,0.129 3.811,0.664Z" style="fill:#bfbfbf;"/><path d="M103.477,740.287c-11.04,-36.925 -10.888,-76.373 -7.37,-114.793c3.575,-39.072 10.512,-77.803 12.288,-117.001c1.305,-29.115 -0.25,-58.359 1.681,-87.443c2.425,-36.617 10.421,-72.828 23.548,-107.077c5.039,-13.066 11.073,-26.257 21.403,-35.714c10.326,-9.488 23.673,-14.216 37.111,-18.789c-8.615,60.783 -8.213,124.993 -6.44,189.234c-12.41,29.149 -17.575,60.848 -22.614,92.205c-9.613,59.512 -19.195,118.963 -28.808,178.472c7.56,8.367 14.402,17.517 18.789,27.873c0.748,1.742 1.4,3.514 1.992,5.351c3.237,9.985 4.012,20.842 0.9,30.86c-1.275,4.015 -3.139,7.871 -3.951,12.038c-1.491,7.715 0.748,15.586 1.651,23.396c0.748,6.25 0.281,13.252 -3.047,18.352c-0.312,0.501 -0.657,0.968 -1.029,1.431c0.934,1.958 1.712,3.984 2.304,6.064c0.341,1.218 0.622,2.52 0.155,3.673c-1.028,2.676 -4.762,2.585 -7.559,2.019c-5.195,-1.055 -10.391,-2.235 -15.525,-3.54c-5.009,-1.279 -10.11,-2.74 -14.216,-5.883c-9.893,-7.525 -10.827,-21.805 -10.888,-34.222c-0.155,-22.144 -0.28,-44.359 -0.375,-66.506Z" style="fill:#bfbfbf;fill-rule:nonzero;"/><rect x="192.688" y="288.742" width="209.309" height="312.559" style="fill:none;stroke:#7e7e7e;stroke-width:3.96px;stroke-linecap:butt;stroke-linejoin:miter;"/><path d="M167.919,997.199c-0.566,-7.818 -1.304,-15.633 -1.913,-23.441c-3.484,-44.427 -3.017,-89.033 -2.55,-133.551l0.155,-0.842c28.124,4.793 56.37,8.618 84.71,11.513c7.841,0.809 15.742,1.522 23.643,1.742c-6.41,39.384 -4.106,79.982 -12.755,118.929c-1.918,8.649 -4.362,17.167 -6.94,25.65l-84.35,0Z" style="fill:#bfbfbf;fill-rule:nonzero;"/><path d="M342.106,997.199c-2.655,-8.711 -5.179,-17.455 -7.147,-26.336c-8.648,-38.948 -6.345,-79.546 -12.724,-118.93c7.871,-0.216 15.776,-0.929 23.612,-1.741c28.371,-2.892 56.617,-6.748 84.741,-11.51l0.155,0.838c0.467,44.519 0.9,89.132 -2.584,133.551c-0.626,8.038 -1.38,16.083 -1.947,24.128l-84.106,0Z" style="fill:#bfbfbf;fill-rule:nonzero;"/></svg>