<?xml version="1.0" encoding="UTF-8" standalone="no"?><!DOCTYPE svg PUBLIC "-//W3C//DTD SVG 1.1//EN" "http://www.w3.org/Graphics/SVG/1.1/DTD/svg11.dtd"><svg width="100%" height="100%" viewBox="0 0 595 1696" version="1.1" xmlns="http://www.w3.org/2000/svg" xmlns:xlink="http://www.w3.org/1999/xlink" xml:space="preserve" xmlns:serif="http://www.serif.com/" style="fill-rule:evenodd;clip-rule:evenodd;stroke-miterlimit:2;"><path d="M493.345,1007.09c-10.213,3.417 -20.563,6.387 -31.046,8.912c-45.979,11.205 -93.929,14.075 -140.896,8.471c-2.221,-0.271 -4.442,-0.541 -6.658,-0.854c-6.592,-25.717 -11.959,-51.779 -15.988,-78.046c-0.612,-3.616 -1.125,-7.275 -1.637,-10.929c-0.513,3.825 -1.059,7.688 -1.709,11.513c-4.029,26.262 -9.362,52.325 -15.987,78.045c-2.221,0.305 -4.442,0.58 -6.663,0.855c-46.962,5.637 -94.916,2.729 -140.891,-8.471c-10.45,-2.529 -20.8,-5.5 -31.013,-8.917c0.375,-17.9 4.129,-35.658 3.859,-53.554l17.145,-132.458l0,-0.071c5.296,-29.338 15.03,-57.754 21.18,-86.959l0.679,-0.308c1.196,3.004 2.633,5.946 4.237,8.775c7.617,13.429 19.329,24.079 31.867,33.133c32.346,23.367 71.454,37.196 111.283,39.555l0,-0.238c43.888,-0.037 87.642,-14.208 123.229,-39.929c12.542,-9.017 24.259,-19.713 31.871,-33.133c1.609,-2.834 3.009,-5.738 4.204,-8.746l0.717,0.308c6.15,29.171 15.883,57.621 21.179,86.963l0,0.033l17.146,132.492c-0.275,17.9 3.483,35.662 3.892,53.558Z" style="fill:#fff;fill-rule:nonzero;"/><path d="M436.44,1458.87c15.542,29 37.434,54.583 63.667,74.496c5.363,4.067 11.034,8.062 14.654,13.733c3.621,5.7 4.646,13.696 0.409,18.954c-3.621,4.509 -9.904,5.809 -15.679,6.388c-11.442,1.129 -22.984,0.617 -34.463,0.137c-5.362,-0.237 -10.929,-0.545 -15.542,-3.279c-2.625,-1.571 -4.745,-3.825 -6.862,-6.012c-11.817,-12.192 -24.696,-23.363 -38.496,-33.3c-5.908,-4.271 -12.054,-8.334 -17.246,-13.496c-4.75,-4.742 -8.779,-10.55 -10.283,-17.108c-1.467,-10.659 0.137,-22.067 0.104,-32.996c-0.137,-24.421 -8.95,-47.784 -15.712,-71.217c-10.625,-36.821 -16.396,-75.004 -17.146,-113.292c-0.717,-38.154 3.554,-76.337 0.65,-114.358c-3.725,-48.192 -18.925,-94.954 -23.092,-143.046c46.967,5.604 94.917,2.734 140.896,-8.471c-2.633,47.067 -15.371,93.521 -13.596,140.655c0.683,18.141 3.483,36.104 4.304,54.241c1.367,29.854 -2.733,59.638 -6.079,89.354c-5.908,52.7 -9.429,105.642 -10.488,158.617Z" style="fill:#242860;fill-rule:nonzero;"/><path d="M451.674,884.055c-3.621,-22.505 4.167,-46.584 20.291,-62.709c0.101,-0.104 0.238,-0.237 0.342,-0.341c2.767,-2.734 5.704,-5.259 7.992,-8.334c-4.579,-53.079 -12.638,-105.85 -24.079,-157.904c-4.992,-49.562 -18.004,-98.367 -20.259,-148.171c-1.295,-28.621 0.959,-57.483 -3.858,-85.729c-5.804,-34.158 -21.621,-65.65 -37.262,-96.562l0.099,-0.305c21.792,6.559 44.646,10.996 62.438,24.934c28.829,22.579 35.658,62.641 41.263,98.85c9.799,63.321 60.762,195.541 38.22,305.079c-5.841,28.35 -7.483,59.021 -13.391,87.404c0.037,18.617 -0.546,37.233 -1.846,55.779c-0.85,12.263 -2.084,24.796 -7.342,35.896c-4.85,10.246 -13.866,19.2 -24.829,21.554c-0.379,0.071 -0.754,0.171 -1.163,0.204c-4.712,7.275 -11.304,13.492 -19.437,16.363c-0.883,0.308 -1.875,0.579 -2.833,0.546c-4.029,6.283 -10.93,10.691 -18.342,11.65c-1.158,0.133 -2.392,0.171 -3.383,-0.413c-1.571,-0.925 -1.913,-3.041 -1.946,-4.883c-0.067,-2.938 0.204,-5.913 0.787,-8.813c0.479,-2.529 1.23,-4.954 1.946,-7.412c1.267,-4.304 2.563,-8.575 3.863,-12.875c-0.413,0.133 -0.821,0.171 -1.234,0.1c-1.466,-0.204 -2.32,-1.742 -2.833,-3.108c-3.517,-9.05 -2.325,-19.163 -0.954,-28.792c1.5,-10.829 3.175,-21.796 7.304,-31.938l0.446,-0.07Z" style="fill:#242860;fill-rule:nonzero;"/><path d="M137.949,655.417c4.954,-49.596 18,-98.404 20.254,-148.237c1.3,-28.588 -0.954,-57.484 3.862,-85.701c5.805,-34.154 21.621,-65.679 37.263,-96.591l-0.1,-0.308c3.379,-0.988 6.762,-2.084 10.071,-3.242c2.121,-0.754 4.271,-1.571 6.392,-2.496l0.475,1.163c-11.167,30.125 -10.759,65.033 4.133,93.52c14.825,28.213 44.542,48.909 76.408,49.9l0.034,-0.545c32.108,-0.721 62.199,-21.488 77.129,-49.971c14.887,-28.454 15.3,-63.396 4.129,-93.521l0.479,-1.125c2.117,0.921 4.271,1.742 6.421,2.492c3.312,1.162 6.662,2.22 10.041,3.245l-0.099,0.305c15.641,30.912 31.458,62.404 37.262,96.562c4.817,28.246 2.563,57.108 3.858,85.729c2.255,49.804 15.267,98.609 20.259,148.171c0.75,7.546 1.329,15.129 1.637,22.717c0.788,19.054 -0.204,38.833 -7.446,56.254c-1.195,3.004 -2.595,5.908 -4.2,8.742c-7.616,13.42 -19.333,24.116 -31.875,33.133c-35.587,25.721 -79.341,39.892 -123.229,39.929l0,0.238c-39.829,-2.359 -78.937,-16.188 -111.283,-39.555c-12.538,-9.054 -24.25,-19.704 -31.867,-33.129c-1.604,-2.833 -3.041,-5.775 -4.237,-8.779c-7.204,-17.421 -8.196,-37.196 -7.413,-56.221c0.309,-7.583 0.892,-15.133 1.642,-22.679Z" style="fill:#fff;fill-rule:nonzero;"/><path d="M377.999,319.388c11.171,30.125 10.758,65.067 -4.129,93.521c-14.93,28.483 -45.021,49.25 -77.129,49.971l-0.034,0.545c-31.866,-0.991 -61.583,-21.687 -76.408,-49.9c-14.892,-28.487 -15.3,-63.395 -4.133,-93.52l-0.475,-1.163c19.433,-8.233 37.912,-22.75 42.454,-42.012c8.983,7.379 21.312,12.366 38.221,12.366c17.729,0 30.433,-5.467 39.554,-13.458c4.337,19.504 22.954,34.225 42.558,42.525l-0.479,1.125Z" style="fill:#242860;fill-rule:nonzero;"/><path d="M220.348,210.218c-0.401,-3.38 -0.608,-6.832 -0.608,-10.338c-0,-42.914 31.019,-77.755 69.226,-77.755c38.207,-0 69.226,34.841 69.226,77.755c0,1.176 -0.023,2.345 -0.069,3.505c2.822,-1.958 6.629,-2.594 9.86,-1.409c1.609,0.579 3.009,1.571 4.171,2.767c1.742,1.775 3.004,4.062 3.688,6.487c1.124,4.033 0.754,8.371 -0.071,12.471c-2.184,10.621 -8.163,21.038 -17.929,25.75l-0.067,0c-1.504,19.438 -7.996,47.512 -31.667,61.004c-8.537,4.917 -19.329,7.888 -32.958,7.888c-16.842,-0 -29.475,-4.404 -38.942,-11.271c-17.692,-12.775 -24.283,-34.017 -26.604,-50.65c-6.321,-2.325 -11.679,-7.109 -15.096,-12.913c-3.687,-6.25 -5.225,-13.695 -4.883,-20.937c0.1,-2.871 0.546,-5.738 1.912,-8.267c0.134,-0.204 0.238,-0.442 0.375,-0.65c1.434,-2.187 3.654,-3.925 6.25,-4.166c1.422,-0.161 2.846,0.142 4.186,0.729Z" style="fill:#242860;"/><path d="M157.728,1459.45c-1.062,-52.975 -4.579,-105.916 -10.487,-158.62c-3.313,-29.68 -7.413,-59.467 -6.084,-89.317c0.821,-18.138 3.625,-36.138 4.309,-54.275c1.775,-47.138 -11,-93.588 -13.596,-140.654c45.975,11.2 93.929,14.108 140.891,8.471c-4.166,48.054 -19.362,94.887 -23.054,143.045c-2.937,38.013 1.334,76.234 0.617,114.35c-0.717,38.33 -6.525,76.513 -17.15,113.3c-6.763,23.467 -15.571,46.825 -15.708,71.217c-0.034,10.929 1.57,22.338 0.099,32.958c-1.499,6.559 -5.462,12.396 -10.279,17.18c-5.191,5.125 -11.341,9.225 -17.25,13.491c-13.8,9.904 -26.675,21.075 -38.491,33.304c-2.121,2.188 -4.238,4.442 -6.867,6.013c-4.612,2.729 -10.179,3.004 -15.542,3.242c-11.475,0.512 -23.02,0.991 -34.462,-0.134c-5.771,-0.583 -12.058,-1.879 -15.679,-6.387c-4.2,-5.263 -3.209,-13.254 0.412,-18.921c3.617,-5.708 9.288,-9.671 14.65,-13.767c26.267,-19.883 48.129,-45.462 63.671,-74.496Z" style="fill:#242860;fill-rule:nonzero;"/><path d="M128.182,971.221c-0.958,0 -1.95,-0.233 -2.871,-0.579c-8.129,-2.867 -14.72,-9.083 -19.47,-16.358c-0.375,-0.038 -0.75,-0.104 -1.125,-0.209c-10.963,-2.32 -19.98,-11.27 -24.834,-21.55c-5.225,-11.1 -6.454,-23.604 -7.308,-35.862c-1.333,-18.583 -1.913,-37.196 -1.879,-55.779c-5.909,-28.35 -7.546,-59.054 -13.388,-87.434c-22.546,-109.512 28.417,-241.762 38.221,-305.087c5.6,-36.171 12.433,-76.271 41.292,-98.85c17.762,-13.9 40.616,-18.342 62.408,-24.933l0.1,0.308c-15.642,30.912 -31.458,62.437 -37.263,96.591c-4.816,28.217 -2.562,57.113 -3.862,85.701c-2.254,49.833 -15.3,98.641 -20.254,148.237c-11.442,52.021 -19.504,104.792 -24.079,157.833c2.287,3.075 5.258,5.638 7.991,8.334c0.105,0.137 0.238,0.241 0.342,0.341c16.158,16.159 23.908,40.238 20.288,62.746l0.445,0.067c4.134,10.146 5.805,21.075 7.309,31.937c1.366,9.6 2.562,19.709 -0.954,28.792c-0.513,1.371 -1.367,2.871 -2.838,3.113c-0.408,0.066 -0.854,-0 -1.229,-0.105c1.3,4.305 2.596,8.575 3.858,12.875c0.721,2.425 1.471,4.888 1.95,7.384c0.579,2.9 0.854,5.871 0.784,8.846c-0.034,1.808 -0.375,3.925 -1.946,4.879c-0.988,0.583 -2.221,0.512 -3.384,0.375c-7.375,-0.954 -14.275,-5.325 -18.304,-11.613Z" style="fill:#242860;fill-rule:nonzero;"/><path d="M473.789,541.665c0,136.304 -79.112,246.8 -176.704,246.8c-97.592,0 -176.708,-110.496 -176.708,-246.8c-0,-136.3 79.116,-246.796 176.708,-246.796c97.592,0 176.704,110.496 176.704,246.796Z" style="fill:none;stroke:#7e7e7e;stroke-width:3.96px;"/><path d="M143.72,733.734c79.807,102.71 222.778,97.283 307.408,-0" style="fill:none;stroke:#242860;stroke-width:8.33px;stroke-linecap:round;stroke-linejoin:round;"/></svg>