<?xml version="1.0" encoding="UTF-8" standalone="no"?><!DOCTYPE svg PUBLIC "-//W3C//DTD SVG 1.1//EN" "http://www.w3.org/Graphics/SVG/1.1/DTD/svg11.dtd"><svg width="100%" height="100%" viewBox="0 0 595 1042" version="1.1" xmlns="http://www.w3.org/2000/svg" xmlns:xlink="http://www.w3.org/1999/xlink" xml:space="preserve" xmlns:serif="http://www.serif.com/" style="fill-rule:evenodd;clip-rule:evenodd;stroke-miterlimit:2;"><path d="M481.911,881.368c-9.618,3.217 -19.365,6.015 -29.237,8.393c-43.301,10.551 -88.457,13.255 -132.688,7.977c-2.091,-0.255 -4.183,-0.51 -6.27,-0.804c-6.208,-24.219 -11.262,-48.763 -15.056,-73.499c-0.577,-3.406 -1.06,-6.851 -1.542,-10.293c-0.483,3.603 -0.997,7.24 -1.609,10.842c-3.795,24.733 -8.817,49.277 -15.056,73.499c-2.092,0.287 -4.183,0.546 -6.275,0.805c-44.226,5.309 -89.387,2.57 -132.683,-7.978c-9.841,-2.382 -19.588,-5.179 -29.206,-8.397c0.353,-16.857 3.889,-33.581 3.634,-50.434l16.147,-124.742l-0,-0.066c4.987,-27.629 14.153,-54.39 19.945,-81.893l0.639,-0.29c1.127,2.829 2.48,5.6 3.991,8.264c7.173,12.647 18.203,22.676 30.01,31.203c30.462,22.005 67.292,35.029 104.8,37.25l0,-0.224c41.331,-0.035 82.536,-13.381 116.05,-37.603c11.811,-8.491 22.845,-18.564 30.014,-31.203c1.515,-2.668 2.834,-5.403 3.96,-8.236l0.675,0.29c5.791,27.472 14.958,54.264 19.945,81.896l-0,0.032l16.147,124.773c-0.259,16.857 3.28,33.584 3.665,50.438Z" style="fill:#242860;fill-rule:nonzero;"/><path d="M442.668,765.502c-3.41,-21.193 3.924,-43.869 19.109,-59.055c0.094,-0.098 0.224,-0.224 0.322,-0.322c2.605,-2.574 5.372,-4.952 7.526,-7.848c-4.312,-49.986 -11.901,-99.683 -22.676,-148.704c-4.701,-46.675 -16.956,-92.636 -19.078,-139.539c-1.221,-26.953 0.902,-54.134 -3.634,-80.735c-5.466,-32.168 -20.361,-61.825 -35.092,-90.937l0.094,-0.286c20.523,6.176 42.045,10.355 58.8,23.481c27.15,21.263 33.581,58.992 38.859,93.091c9.229,59.632 57.223,184.149 35.994,287.305c-5.501,26.699 -7.047,55.583 -12.611,82.313c0.035,17.532 -0.514,35.064 -1.739,52.529c-0.8,11.548 -1.962,23.351 -6.914,33.805c-4.567,9.649 -13.058,18.081 -23.382,20.298c-0.357,0.067 -0.71,0.161 -1.095,0.192c-4.438,6.852 -10.646,12.706 -18.305,15.41c-0.832,0.29 -1.766,0.545 -2.668,0.514c-3.795,5.917 -10.293,10.069 -17.273,10.971c-1.091,0.126 -2.253,0.161 -3.187,-0.388c-1.479,-0.872 -1.801,-2.865 -1.832,-4.599c-0.063,-2.767 0.192,-5.568 0.742,-8.299c0.451,-2.382 1.157,-4.666 1.832,-6.981c1.193,-4.053 2.413,-8.075 3.637,-12.125c-0.388,0.126 -0.773,0.161 -1.161,0.094c-1.381,-0.192 -2.186,-1.64 -2.668,-2.927c-3.312,-8.523 -2.19,-18.046 -0.899,-27.114c1.413,-10.199 2.99,-20.526 6.879,-30.077l0.42,-0.067Z" style="fill:#bfbfbf;fill-rule:nonzero;"/><path d="M147.22,550.185c4.665,-46.707 16.951,-92.672 19.074,-139.602c1.224,-26.922 -0.899,-54.134 3.637,-80.707c5.466,-32.164 20.362,-61.853 35.092,-90.964l-0.094,-0.291c3.182,-0.93 6.368,-1.962 9.484,-3.052c1.997,-0.711 4.022,-1.48 6.019,-2.351l0.448,1.095c-10.516,28.37 -10.132,61.245 3.892,88.072c13.962,26.569 41.947,46.059 71.957,46.993l0.031,-0.514c30.238,-0.679 58.577,-20.235 72.636,-47.059c14.02,-26.797 14.409,-59.703 3.889,-88.073l0.451,-1.059c1.993,0.867 4.022,1.64 6.047,2.346c3.119,1.095 6.274,2.092 9.456,3.057l-0.094,0.286c14.731,29.112 29.626,58.769 35.092,90.937c4.536,26.601 2.413,53.782 3.634,80.735c2.122,46.903 14.377,92.864 19.078,139.539c0.706,7.106 1.251,14.247 1.542,21.393c0.741,17.944 -0.193,36.571 -7.012,52.977c-1.126,2.829 -2.445,5.564 -3.956,8.232c-7.173,12.639 -18.207,22.712 -30.018,31.203c-33.514,24.222 -74.719,37.568 -116.05,37.603l0,0.224c-37.508,-2.221 -74.338,-15.245 -104.8,-37.25c-11.807,-8.527 -22.837,-18.556 -30.01,-31.199c-1.511,-2.668 -2.864,-5.439 -3.991,-8.268c-6.784,-16.406 -7.718,-35.029 -6.98,-52.945c0.29,-7.142 0.839,-14.252 1.546,-21.358Z" style="fill:#242860;fill-rule:nonzero;"/><path d="M373.285,233.732c10.52,28.37 10.131,61.276 -3.889,88.073c-14.059,26.824 -42.398,46.38 -72.636,47.059l-0.031,0.514c-30.01,-0.934 -57.995,-20.424 -71.957,-46.993c-14.024,-26.827 -14.408,-59.702 -3.892,-88.072l-0.448,-1.095c18.302,-7.754 35.704,-21.425 39.981,-39.565c8.46,6.95 20.071,11.646 35.994,11.646c16.697,0 28.661,-5.148 37.25,-12.674c4.085,18.368 21.617,32.231 40.079,40.048l-0.451,1.059Z" style="fill:#bfbfbf;fill-rule:nonzero;"/><path d="M224.818,130.922c-0.377,-3.183 -0.572,-6.434 -0.572,-9.736c-0,-40.414 29.212,-73.225 65.193,-73.225c35.981,0 65.193,32.811 65.193,73.225c0,1.108 -0.022,2.209 -0.065,3.301c2.658,-1.844 6.242,-2.442 9.286,-1.326c1.514,0.545 2.833,1.479 3.928,2.605c1.64,1.672 2.829,3.826 3.472,6.11c1.06,3.798 0.71,7.883 -0.067,11.744c-2.056,10.002 -7.686,19.812 -16.884,24.25l-0.063,-0c-1.417,18.305 -7.53,44.744 -29.822,57.45c-8.04,4.63 -18.203,7.428 -31.038,7.428c-15.86,-0 -27.758,-4.148 -36.673,-10.614c-16.661,-12.031 -22.869,-32.035 -25.054,-47.7c-5.953,-2.189 -10.999,-6.694 -14.217,-12.16c-3.472,-5.886 -4.92,-12.898 -4.598,-19.718c0.094,-2.703 0.514,-5.403 1.801,-7.785c0.125,-0.192 0.223,-0.416 0.353,-0.612c1.35,-2.06 3.441,-3.696 5.886,-3.924c1.338,-0.151 2.679,0.135 3.941,0.687Z" style="fill:#bfbfbf;"/><path d="M138.022,847.591c-0.902,-0 -1.836,-0.22 -2.703,-0.546c-7.656,-2.7 -13.864,-8.554 -18.337,-15.405c-0.353,-0.036 -0.706,-0.098 -1.059,-0.196c-10.324,-2.186 -18.816,-10.615 -23.387,-20.295c-4.921,-10.453 -6.078,-22.229 -6.883,-33.773c-1.255,-17.501 -1.801,-35.029 -1.769,-52.53c-5.564,-26.698 -7.106,-55.613 -12.608,-82.339c-21.232,-103.133 26.761,-227.678 35.994,-287.314c5.274,-34.063 11.709,-71.827 38.886,-93.091c16.728,-13.09 38.251,-17.273 58.773,-23.481l0.094,0.291c-14.73,29.111 -29.626,58.8 -35.092,90.964c-4.536,26.573 -2.413,53.785 -3.637,80.707c-2.123,46.93 -14.409,92.895 -19.074,139.602c-10.775,48.99 -18.368,98.686 -22.677,148.638c2.155,2.896 4.952,5.309 7.527,7.848c0.098,0.129 0.223,0.227 0.321,0.321c15.217,15.217 22.516,37.894 19.106,59.091l0.42,0.063c3.892,9.554 5.466,19.847 6.882,30.076c1.287,9.041 2.413,18.561 -0.898,27.115c-0.483,1.291 -1.287,2.703 -2.672,2.931c-0.385,0.063 -0.805,-0 -1.158,-0.098c1.224,4.053 2.445,8.075 3.634,12.125c0.678,2.284 1.385,4.603 1.836,6.953c0.545,2.731 0.804,5.529 0.738,8.33c-0.032,1.703 -0.354,3.697 -1.833,4.595c-0.93,0.55 -2.091,0.483 -3.186,0.354c-6.945,-0.899 -13.443,-5.015 -17.238,-10.936Z" style="fill:#bfbfbf;fill-rule:nonzero;"/><path d="M463.495,443.06c-0,128.363 -74.504,232.422 -166.41,232.422c-91.906,-0 -166.414,-104.059 -166.414,-232.422c0,-128.359 74.508,-232.418 166.414,-232.418c91.906,0 166.41,104.059 166.41,232.418Z" style="fill:none;stroke:#7e7e7e;stroke-width:3.96px;"/><path d="M152.654,623.939c75.158,96.727 209.8,91.615 289.5,-0" style="fill:none;stroke:#bfbfbf;stroke-width:8.33px;stroke-linecap:round;stroke-linejoin:round;"/><path d="M153.671,993.705c-2.507,-34.496 -10.266,-68.768 -12.176,-103.395c43.296,10.548 88.457,13.287 132.683,7.978c-2.783,32.099 -10.792,63.619 -16.453,95.417l-104.054,0Z" style="fill:#bfbfbf;fill-rule:nonzero;"/><path d="M336.553,993.705c-5.68,-31.984 -13.767,-63.657 -16.567,-95.967c44.231,5.278 89.387,2.574 132.688,-7.977c-1.948,34.808 -9.764,69.261 -12.22,103.944l-103.901,0Z" style="fill:#bfbfbf;fill-rule:nonzero;"/></svg>