<?xml version="1.0" encoding="UTF-8" standalone="no"?><!DOCTYPE svg PUBLIC "-//W3C//DTD SVG 1.1//EN" "http://www.w3.org/Graphics/SVG/1.1/DTD/svg11.dtd"><svg width="100%" height="100%" viewBox="0 0 595 1042" version="1.1" xmlns="http://www.w3.org/2000/svg" xmlns:xlink="http://www.w3.org/1999/xlink" xml:space="preserve" xmlns:serif="http://www.serif.com/" style="fill-rule:evenodd;clip-rule:evenodd;stroke-linecap:round;stroke-linejoin:round;stroke-miterlimit:2;"><path d="M510.703,701.483c-8.74,-45.148 -34.864,-86.352 -40.826,-132.158c-1.386,-10.792 -1.67,-21.737 -3.468,-32.467c-1.862,-11.327 -5.396,-22.272 -8.929,-33.187c-8.52,-26.283 -17.007,-52.596 -25.524,-78.874c-1.166,4.387 -2.336,8.736 -3.537,13.093l-1.197,-0.316c-3.817,-64.234 -3.975,-128.691 -0.534,-192.955l0.977,-1.925c15.806,7.952 31.582,16.122 45.81,26.66c15.237,11.296 28.742,25.586 36.405,42.939c10.695,24.197 9.152,51.456 4.387,77.862c27.76,120.486 38.648,244.885 32.213,368.365l-0.223,0c-0.977,16.565 -4.037,33.129 -10.38,48.428c-6.373,15.337 -16.087,29.438 -29.088,39.787c-5.615,4.445 -11.988,8.267 -19.085,9.306c1.609,-7.666 4.449,-15.048 8.328,-21.833c-4.352,2.463 -9.056,4.291 -13.913,5.457c-1.547,0.381 -3.217,0.697 -4.733,0.193c-1.513,-0.474 -2.841,-2.021 -2.525,-3.599c0.192,-0.82 0.758,-1.513 1.293,-2.144c3.471,-3.945 7.259,-7.605 11.296,-10.949c-6.027,1.385 -12.431,0.854 -18.139,-1.482c0.439,-2.871 3.66,-4.226 6.37,-5.303c6.5,-2.49 12.623,-5.993 18.111,-10.28c1.074,-0.854 2.113,-1.74 2.744,-2.936c0.693,-1.386 0.728,-3.029 0.79,-4.577c0.284,-6.654 1.639,-13.25 4.067,-19.431c-4.857,8.771 -9.713,17.603 -14.605,26.374c-0.978,1.798 -2.713,3.914 -4.638,3.187c-1.324,-0.508 -1.797,-2.082 -2.082,-3.471c-2.271,-11.673 -0.412,-23.758 2.332,-35.369c5.712,-24.101 15.303,-47.293 28.303,-68.395Z" style="fill:#bfbfbf;fill-rule:nonzero;"/><path d="M171.165,633.122c6.362,-27.909 2.055,-167.626 -5.419,-195.232c3.817,-64.234 5.172,-129.007 1.735,-193.271l-0.981,-1.925c1.17,-0.6 2.305,-1.2 3.471,-1.766c7.413,-3.722 14.798,-7.413 22.211,-11.169c-0,-0 8.205,151.563 104.46,151.563c96.258,0 98.937,-154.75 98.937,-154.75l-0,-0.031c9.529,4.827 19.089,9.622 28.615,14.387c1.169,0.566 2.301,1.166 3.471,1.766l-0.977,1.925c-3.441,64.264 -2.083,129.037 1.731,193.271c-7.474,27.606 -16.572,178.495 -4.573,195.232c4.613,6.433 6.328,12.379 8.426,21.223c-16.88,14.105 -46.915,23.477 -68.21,29.061c-21.802,5.742 -44.451,7.698 -66.978,8.36c-22.53,-0.662 -45.179,-2.618 -66.978,-8.36c-21.298,-5.584 -51.333,-14.956 -68.209,-29.061c1.173,-3.641 6.446,-8.848 9.268,-21.223Z" style="fill:#242860;fill-rule:nonzero;"/><path d="M161.897,654.345c16.876,14.105 46.911,23.477 68.209,29.061c21.799,5.742 44.448,7.698 66.978,8.36c22.527,-0.662 45.176,-2.618 66.978,-8.36c21.295,-5.584 51.33,-14.956 68.21,-29.061c0.82,-0.658 5.68,18.835 8.517,28.996c12.777,45.749 13.82,92.41 19.532,139.479c3.691,30.539 5.392,61.235 4.383,91.998c-1.766,1.481 -4.199,2.27 -6.5,2.932c-1.074,0.285 -2.113,0.601 -3.187,0.855c-42.054,11.295 -86.29,11.353 -129.888,9.055c-1.828,-0.13 -3.66,-0.223 -5.488,-0.319c-4.83,-30.789 -17.888,-63.379 -23.727,-93.826c-5.834,30.447 -16.718,63.037 -21.421,93.826c-1.828,0.096 -3.629,0.189 -5.458,0.319c-43.601,2.298 -87.829,2.24 -129.887,-9.055c-1.07,-0.254 -2.113,-0.57 -3.187,-0.855c-2.302,-0.662 -4.73,-1.451 -6.497,-2.932c-1.012,-30.763 0.693,-61.459 4.384,-91.998c5.711,-47.069 6.751,-93.73 19.528,-139.479c2.84,-10.161 7.701,-29.654 8.521,-28.996Z" style="fill:#242860;fill-rule:nonzero;"/><path d="M161.896,654.329c70.415,44.152 196.15,41.839 270.375,-0" style="fill:none;stroke:#bfbfbf;stroke-width:8.33px;"/><path d="M395.579,226.541l-0,0.031c-0,0 -2.679,154.75 -98.937,154.75c-96.255,0 -104.46,-151.563 -104.46,-151.563c7.004,-3.502 14.04,-7.035 21.044,-10.568c12.682,-6.374 25.682,-12.997 35.269,-23.408c0.35,-9.972 0.885,-21.264 1.109,-30.574c3.059,3.345 6.404,6.312 9.998,8.899c10.065,7.289 21.992,11.261 33.853,10.822l0.127,0c11.862,0.439 23.789,-3.533 33.884,-10.822c5.457,-3.945 10.349,-8.833 14.605,-14.417c0.189,9.906 2.021,23.596 3.095,35.523c9.621,10.726 22.872,17.507 35.776,23.977c4.888,2.463 9.745,4.922 14.637,7.35Z" style="fill:#bfbfbf;fill-rule:nonzero;"/><path d="M227.639,116.374c-0.37,-3.122 -0.561,-6.31 -0.561,-9.549c-0,-39.638 28.652,-71.82 63.942,-71.82c35.291,-0 63.943,32.182 63.943,71.82c-0,1.086 -0.022,2.167 -0.064,3.238c2.607,-1.809 6.122,-2.396 9.107,-1.302c1.486,0.535 2.779,1.451 3.853,2.556c1.609,1.639 2.775,3.752 3.406,5.992c1.039,3.726 0.697,7.732 -0.066,11.519c-2.016,9.81 -7.539,19.432 -16.56,23.785l-0.062,-0c-1.389,17.954 -7.385,43.886 -29.25,56.348c-7.885,4.541 -17.853,7.285 -30.442,7.285c-15.556,0 -27.226,-4.068 -35.97,-10.41c-16.341,-11.8 -22.43,-31.42 -24.573,-46.784c-5.839,-2.148 -10.788,-6.566 -13.944,-11.927c-3.406,-5.773 -4.826,-12.651 -4.51,-19.34c0.092,-2.651 0.504,-5.299 1.766,-7.635c0.123,-0.189 0.219,-0.408 0.347,-0.601c1.323,-2.02 3.375,-3.625 5.772,-3.848c1.313,-0.149 2.629,0.131 3.866,0.673Z" style="fill:#bfbfbf;"/><path d="M92.771,779.157c2.429,6.181 3.784,12.777 4.068,19.431c0.066,1.548 0.097,3.191 0.789,4.577c0.632,1.196 1.675,2.082 2.748,2.936c5.489,4.287 11.608,7.79 18.108,10.28c2.714,1.077 5.931,2.432 6.374,5.303c-5.712,2.336 -12.147,2.867 -18.143,1.482c4.037,3.344 7.824,7.004 11.296,10.949c0.535,0.631 1.104,1.324 1.293,2.144c0.316,1.578 -1.008,3.125 -2.525,3.599c-1.512,0.504 -3.186,0.188 -4.734,-0.193c-4.857,-1.166 -9.556,-2.994 -13.909,-5.457c3.88,6.785 6.72,14.167 8.329,21.833c-7.101,-1.039 -13.474,-4.861 -19.089,-9.306c-12.997,-10.349 -22.715,-24.45 -29.088,-39.787c-6.339,-15.299 -9.403,-31.863 -10.38,-48.428l-0.22,0c-6.438,-123.48 4.446,-247.879 32.21,-368.365c-4.761,-26.406 -6.308,-53.665 4.387,-77.862c7.667,-17.353 21.168,-31.643 36.405,-42.939c14.232,-10.538 30.004,-18.708 45.81,-26.66l0.981,1.925c3.437,64.264 2.082,129.037 -1.735,193.271c-1.201,-4.357 -2.367,-8.706 -3.533,-13.093c-8.521,26.278 -17.008,52.591 -25.525,78.874c-3.533,10.915 -7.066,21.86 -8.929,33.187c-1.797,10.73 -2.082,21.675 -3.471,32.467c-5.962,45.806 -32.086,87.01 -40.823,132.158c12.997,21.102 22.588,44.294 28.3,68.395c2.744,11.611 4.602,23.696 2.336,35.369c-0.285,1.389 -0.759,2.963 -2.083,3.471c-1.924,0.727 -3.663,-1.389 -4.641,-3.187c-4.888,-8.771 -9.749,-17.603 -14.606,-26.374Z" style="fill:#bfbfbf;fill-rule:nonzero;"/><path d="M457.411,285.186l-320.653,-0l80.163,347.936l160.326,-0l80.164,-347.936Z" style="fill:none;stroke:#7e7e7e;stroke-width:3.96px;stroke-linecap:butt;stroke-linejoin:miter;"/><path d="M153.111,1006.66l-0.208,-1.332c-4.607,-28.9 -9.179,-57.826 -13.755,-86.725c42.058,11.295 86.286,11.353 129.887,9.055c-6.368,26.335 -12.712,52.669 -19.077,79.002l-96.847,-0Z" style="fill:#bfbfbf;fill-rule:nonzero;"/><path d="M344.208,1006.66c-6.362,-26.333 -12.707,-52.667 -19.079,-79.002c43.598,2.298 87.834,2.24 129.888,-9.055c-4.572,28.899 -9.148,57.825 -13.755,86.725l-0.208,1.332l-96.846,-0Z" style="fill:#bfbfbf;fill-rule:nonzero;"/></svg>