<?xml version="1.0" encoding="UTF-8" standalone="no"?><!DOCTYPE svg PUBLIC "-//W3C//DTD SVG 1.1//EN" "http://www.w3.org/Graphics/SVG/1.1/DTD/svg11.dtd"><svg width="100%" height="100%" viewBox="0 0 595 1696" version="1.1" xmlns="http://www.w3.org/2000/svg" xmlns:xlink="http://www.w3.org/1999/xlink" xml:space="preserve" xmlns:serif="http://www.serif.com/" style="fill-rule:evenodd;clip-rule:evenodd;stroke-linecap:round;stroke-linejoin:round;stroke-miterlimit:2;"><path d="M379.397,1467.53c-7.613,-73.338 -15.229,-146.738 -22.883,-220.1c-1.742,-16.842 -3.517,-33.817 -2.629,-50.725c0.575,-11.746 2.458,-23.5 1.608,-35.213c-0.621,-8.3 -2.567,-16.462 -4.513,-24.562c-7.854,-32.483 -15.675,-64.963 -23.533,-97.442c47.2,2.488 95.092,2.425 140.621,-9.804c-4.95,31.288 -9.904,62.604 -14.892,93.892c-1.775,11.341 -3.583,22.75 -3.142,34.225c0.409,10.896 2.834,21.587 4.713,32.312c7.721,44.367 5.704,89.863 3.692,134.884c-2.53,55.329 -4.988,110.695 -7.517,166.033c14.037,38.187 43.308,70.158 73.846,97.821c6.558,5.946 13.867,14.141 10.829,22.441c-2.633,7.105 -11.342,9.496 -18.854,10.384c-13.7,1.604 -27.6,1.433 -41.229,-0.513c-6.421,-0.887 -12.775,-2.221 -18.788,-4.646c-5.908,-2.387 -11.371,-5.841 -16.767,-9.291c-17.25,-10.929 -34.462,-21.896 -51.712,-32.825c-4.371,-2.796 -8.879,-5.704 -11.821,-9.971c-6.079,-8.95 -3.654,-20.871 -1.637,-31.458c4.096,-21.517 5.5,-43.55 4.237,-65.409l0.371,-0.033Z" style="fill:#242860;fill-rule:nonzero;"/><path d="M528.355,794.622c-9.462,-48.88 -37.745,-93.488 -44.2,-143.08c-1.5,-11.683 -1.808,-23.533 -3.754,-35.15c-2.017,-12.262 -5.842,-24.112 -9.667,-35.929c-9.225,-28.454 -18.412,-56.941 -27.633,-85.391c-1.262,4.75 -2.529,9.458 -3.829,14.175l-1.296,-0.342c-4.133,-69.542 -4.304,-139.325 -0.579,-208.9l1.058,-2.083c17.113,8.608 34.192,17.454 49.596,28.862c16.496,12.229 31.117,27.7 39.413,46.488c11.579,26.195 9.908,55.708 4.75,84.295c30.054,130.442 41.841,265.121 34.875,398.805l-0.242,-0c-1.058,17.933 -4.371,35.866 -11.237,52.429c-6.9,16.604 -17.417,31.871 -31.492,43.075c-6.079,4.812 -12.979,8.95 -20.663,10.075c1.742,-8.3 4.817,-16.292 9.017,-23.638c-4.713,2.667 -9.804,4.646 -15.063,5.909c-1.675,0.412 -3.483,0.754 -5.124,0.208c-1.638,-0.513 -3.075,-2.188 -2.734,-3.896c0.208,-0.887 0.821,-1.637 1.4,-2.321c3.758,-4.271 7.858,-8.233 12.229,-11.854c-6.525,1.5 -13.458,0.925 -19.637,-1.604c0.475,-3.108 3.962,-4.575 6.896,-5.742c7.037,-2.696 13.666,-6.487 19.608,-11.129c1.163,-0.925 2.287,-1.883 2.971,-3.179c0.75,-1.5 0.787,-3.279 0.854,-4.954c0.308,-7.204 1.775,-14.346 4.404,-21.038c-5.258,9.496 -10.517,19.059 -15.812,28.554c-1.059,1.946 -2.938,4.238 -5.021,3.45c-1.434,-0.55 -1.946,-2.254 -2.254,-3.758c-2.459,-12.637 -0.446,-25.721 2.525,-38.292c6.183,-26.091 16.566,-51.2 30.641,-74.045Z" style="fill:#242860;fill-rule:nonzero;"/><path d="M160.76,720.611c6.888,-30.214 2.224,-181.477 -5.867,-211.364c4.133,-69.542 5.6,-139.667 1.879,-209.242l-1.063,-2.083c1.267,-0.65 2.496,-1.3 3.759,-1.913c8.025,-4.029 16.021,-8.025 24.046,-12.092c-0,0 8.883,164.088 113.091,164.088c104.213,-0 107.113,-167.538 107.113,-167.538l-0,-0.033c10.316,5.225 20.666,10.417 30.979,15.575c1.267,0.613 2.492,1.263 3.758,1.913l-1.058,2.083c-3.725,69.575 -2.254,139.7 1.875,209.242c-8.092,29.887 -17.942,193.245 -4.951,211.364c4.994,6.965 6.851,13.402 9.122,22.977c-18.275,15.271 -50.792,25.417 -73.846,31.463c-23.604,6.216 -48.125,8.333 -72.512,9.05c-24.392,-0.717 -48.913,-2.834 -72.513,-9.05c-23.058,-6.046 -55.575,-16.192 -73.846,-31.463c1.27,-3.942 6.979,-9.579 10.034,-22.977Z" style="fill:#fff;fill-rule:nonzero;"/><path d="M150.726,743.588c18.271,15.271 50.788,25.417 73.846,31.463c23.6,6.216 48.121,8.333 72.513,9.05c24.387,-0.717 48.908,-2.834 72.512,-9.05c23.054,-6.046 55.571,-16.192 73.846,-31.463c0.887,-0.712 6.15,20.392 9.221,31.392c13.833,49.529 14.962,100.046 21.145,151.004c3.996,33.063 5.838,66.296 4.746,99.6c-1.912,1.604 -4.546,2.458 -7.037,3.175c-1.163,0.308 -2.288,0.65 -3.45,0.925c-45.529,12.229 -93.421,12.292 -140.621,9.804c-1.979,-0.141 -3.962,-0.241 -5.942,-0.346c-5.229,-33.333 -19.366,-68.616 -25.687,-101.579c-6.317,32.963 -18.1,68.246 -23.192,101.579c-1.979,0.105 -3.929,0.205 -5.908,0.346c-47.204,2.488 -95.088,2.425 -140.621,-9.804c-1.158,-0.275 -2.288,-0.617 -3.45,-0.925c-2.492,-0.717 -5.121,-1.571 -7.033,-3.175c-1.096,-33.304 0.75,-66.537 4.746,-99.6c6.183,-50.958 7.308,-101.475 21.141,-151.004c3.075,-11 8.338,-32.104 9.225,-31.392Z" style="fill:#fff;fill-rule:nonzero;"/><path d="M150.725,743.571c76.234,47.8 212.359,45.296 292.717,-0" style="fill:none;stroke:#242860;stroke-width:8.33px;"/><path d="M403.718,280.434l-0,0.033c-0,0 -2.9,167.538 -107.113,167.538c-104.208,-0 -113.091,-164.088 -113.091,-164.088c7.583,-3.791 15.2,-7.616 22.783,-11.441c13.729,-6.9 27.804,-14.071 38.183,-25.342c0.379,-10.796 0.959,-23.021 1.2,-33.1c3.313,3.621 6.934,6.833 10.825,9.633c10.896,7.892 23.809,12.192 36.65,11.717l0.138,0c12.842,0.475 25.754,-3.825 36.683,-11.717c5.908,-4.27 11.204,-9.562 15.813,-15.608c0.204,10.725 2.187,25.546 3.35,38.458c10.416,11.613 24.762,18.955 38.733,25.959c5.292,2.666 10.55,5.329 15.846,7.958Z" style="fill:#242860;fill-rule:nonzero;"/><path d="M221.901,161.163c-0.401,-3.379 -0.608,-6.832 -0.608,-10.338c0,-42.914 31.019,-77.755 69.226,-77.755c38.207,0 69.227,34.841 69.227,77.755c-0,1.176 -0.024,2.346 -0.07,3.505c2.823,-1.958 6.629,-2.593 9.86,-1.408c1.609,0.579 3.009,1.57 4.171,2.766c1.742,1.775 3.005,4.063 3.688,6.488c1.125,4.033 0.754,8.371 -0.071,12.471c-2.183,10.62 -8.163,21.037 -17.929,25.75l-0.067,-0c-1.504,19.437 -7.996,47.512 -31.667,61.004c-8.537,4.916 -19.329,7.887 -32.958,7.887c-16.841,0 -29.475,-4.404 -38.942,-11.271c-17.691,-12.775 -24.283,-34.016 -26.604,-50.65c-6.32,-2.325 -11.679,-7.108 -15.096,-12.912c-3.687,-6.25 -5.225,-13.696 -4.883,-20.938c0.1,-2.87 0.546,-5.737 1.913,-8.266c0.133,-0.204 0.237,-0.442 0.375,-0.65c1.433,-2.188 3.654,-3.925 6.25,-4.167c1.421,-0.16 2.845,0.143 4.185,0.729Z" style="fill:#242860;"/><path d="M143.243,1491.03c-2.525,-55.338 -4.988,-110.704 -7.513,-166.033c-2.016,-45.021 -4.029,-90.517 3.688,-134.884c1.879,-10.725 4.304,-21.416 4.712,-32.312c0.446,-11.475 -1.366,-22.884 -3.141,-34.225c-4.988,-31.288 -9.938,-62.604 -14.892,-93.892c45.533,12.229 93.417,12.292 140.621,9.804c-7.854,32.479 -15.675,64.959 -23.534,97.442c-1.945,8.1 -3.895,16.262 -4.508,24.562c-0.854,11.713 1.025,23.467 1.604,35.213c0.892,16.908 -0.887,33.883 -2.629,50.725c-7.65,73.362 -15.267,146.762 -22.883,220.1l0.375,0.033c-1.263,21.859 0.137,43.892 4.237,65.409c2.013,10.587 4.438,22.508 -1.641,31.458c-2.938,4.267 -7.446,7.175 -11.817,9.971c-17.25,10.929 -34.463,21.896 -51.717,32.825c-5.391,3.45 -10.858,6.904 -16.766,9.291c-6.013,2.425 -12.4,3.759 -18.788,4.646c-13.629,1.946 -27.529,2.117 -41.225,0.513c-7.512,-0.888 -16.225,-3.279 -18.854,-10.384c-3.042,-8.3 4.271,-16.495 10.825,-22.441c30.537,-27.663 59.808,-59.634 73.846,-97.821Z" style="fill:#242860;fill-rule:nonzero;"/><path d="M75.889,878.713c2.629,6.692 4.095,13.834 4.404,21.038c0.071,1.675 0.104,3.454 0.854,4.954c0.683,1.296 1.812,2.254 2.975,3.179c5.942,4.642 12.567,8.433 19.604,11.129c2.938,1.167 6.421,2.634 6.9,5.742c-6.183,2.529 -13.15,3.104 -19.642,1.604c4.371,3.621 8.471,7.583 12.23,11.854c0.579,0.684 1.195,1.434 1.4,2.321c0.341,1.708 -1.092,3.383 -2.734,3.896c-1.637,0.546 -3.45,0.204 -5.125,-0.208c-5.258,-1.263 -10.346,-3.242 -15.058,-5.909c4.2,7.346 7.275,15.338 9.017,23.638c-7.688,-1.125 -14.588,-5.263 -20.667,-10.075c-14.071,-11.204 -24.592,-26.471 -31.492,-43.075c-6.862,-16.563 -10.179,-34.496 -11.237,-52.429l-0.238,-0c-6.971,-133.684 4.813,-268.363 34.871,-398.805c-5.154,-28.587 -6.829,-58.1 4.75,-84.295c8.3,-18.788 22.917,-34.259 39.413,-46.488c15.408,-11.408 32.483,-20.254 49.595,-28.862l1.063,2.083c3.721,69.575 2.254,139.7 -1.879,209.242c-1.3,-4.717 -2.563,-9.425 -3.825,-14.175c-9.225,28.45 -18.413,56.937 -27.634,85.391c-3.825,11.817 -7.65,23.667 -9.666,35.929c-1.946,11.617 -2.254,23.467 -3.759,35.15c-6.454,49.592 -34.737,94.2 -44.195,143.08c14.07,22.845 24.454,47.954 30.637,74.045c2.971,12.571 4.983,25.655 2.529,38.292c-0.308,1.504 -0.821,3.208 -2.254,3.758c-2.083,0.788 -3.967,-1.504 -5.025,-3.45c-5.292,-9.495 -10.554,-19.058 -15.812,-28.554Z" style="fill:#242860;fill-rule:nonzero;"/><path d="M470.659,343.924l-347.149,-0l86.787,376.687l173.575,-0l86.787,-376.687Z" style="fill:none;stroke:#7e7e7e;stroke-width:3.96px;stroke-linecap:butt;stroke-linejoin:miter;"/></svg>