<?xml version="1.0" encoding="UTF-8" standalone="no"?><!DOCTYPE svg PUBLIC "-//W3C//DTD SVG 1.1//EN" "http://www.w3.org/Graphics/SVG/1.1/DTD/svg11.dtd"><svg width="100%" height="100%" viewBox="0 0 595 1042" version="1.1" xmlns="http://www.w3.org/2000/svg" xmlns:xlink="http://www.w3.org/1999/xlink" xml:space="preserve" xmlns:serif="http://www.serif.com/" style="fill-rule:evenodd;clip-rule:evenodd;stroke-miterlimit:2;"><path d="M443.606,866.267c-0.09,0.412 -0.181,0.445 -0.267,0.061c-5.49,1.422 -10.978,2.786 -16.522,4.002c-39.302,8.926 -79.552,13.764 -119.832,14.415c-1.512,0.029 -2.996,0.058 -4.508,0.058c-1.278,-15.363 -2.254,-30.759 -2.877,-46.181l-0.416,0c-0.651,15.422 -1.603,30.818 -2.877,46.181c-1.512,0 -2.996,-0.029 -4.508,-0.058c-40.308,-0.651 -80.53,-5.456 -119.828,-14.386c-5.551,-1.245 -11.036,-2.609 -16.525,-4.002c-0.087,0.384 -0.178,0.355 -0.264,-0.062c-1.397,-6.285 -6.141,-156.46 -5.757,-162.897c1.1,-18.479 2.728,-36.9 4.924,-55.259l0.861,-0.594c0.297,0.474 0.594,0.919 0.92,1.335c-0,0.029 -0,0.029 0.029,0.029c4.953,6.734 12.515,11.362 19.9,15.512c38.058,21.356 80.031,37.403 123.331,40.757c43.337,-3.354 85.31,-19.401 123.331,-40.757c7.36,-4.121 14.893,-8.749 19.847,-15.45c0.029,-0.033 0.029,-0.062 0.058,-0.091c0.325,-0.416 0.622,-0.861 0.919,-1.335l0.89,0.594c2.196,18.359 3.828,36.78 4.924,55.259c0.384,6.437 -4.36,156.58 -5.753,162.869Z" style="fill:#242860;fill-rule:nonzero;"/><path d="M490.851,684.487c3.388,10.752 6.718,21.509 9.873,32.337c5.259,17.902 10.031,36.846 5.552,54.94c-0.78,3.121 -2.022,6.424 -4.818,8c-2.796,1.577 -7.287,-0.019 -7.26,-3.207c-1.929,8.442 -8.867,15.537 -17.242,17.678c-0.307,-3.729 -0.584,-7.456 -0.862,-11.18c-4.863,5.387 -10.236,10.309 -16.071,14.64c-1.63,1.254 -3.299,2.42 -5,3.555c-1.785,1.174 -3.93,2.375 -5.967,1.725c-3.623,-1.098 -3.468,-6.225 -2.524,-9.866c3,-11.645 6.729,-23.106 11.131,-34.294c-3.323,6.913 -7.907,13.234 -13.432,18.552c-4.73,-6.012 -6.127,-13.999 -6.759,-21.655c-1.954,-23.41 1.861,-47.25 10.957,-68.928c3.16,-7.492 6.984,-14.86 8.138,-22.885c0.922,-6.371 0.142,-12.858 -0.719,-19.249c-2.466,-18.346 -14.781,-77.633 -18.376,-91.937c-6.733,-26.921 -7.888,-58.958 -18.396,-84.619c-4.437,-10.852 -9.269,-21.794 -10.162,-33.447c-0.692,-8.838 0.913,-17.644 2.074,-26.417c5.995,-45.272 0.492,-92.001 -15.917,-134.591c11.453,4.857 22.407,10.496 31.978,18.437c25.239,20.931 36.534,54.385 41.062,86.826c4.502,32.468 3.403,65.627 9.577,97.796c4.174,21.699 11.595,42.648 16.09,64.265c9.848,47.153 5.524,96.048 -2.927,143.524Z" style="fill:#bfbfbf;fill-rule:nonzero;"/><path d="M393.746,273.481l-0.771,1.69c7.917,28.118 -7.479,59.174 -31.414,75.873c-18.772,13.08 -41.644,18.656 -64.721,19.665c-23.045,-1.009 -45.942,-6.556 -64.718,-19.665c-23.964,-16.699 -39.36,-47.755 -31.443,-75.873l-0.771,-1.69c6.466,-2.996 12.903,-5.992 19.163,-9.285c20.556,-10.826 40.753,-27.437 47.009,-49.061c8.221,5.963 19.192,9.788 33.817,9.788c11.836,0 21.207,-2.58 28.621,-6.849c7.183,20.197 26.49,35.799 46.065,46.122c6.26,3.293 12.697,6.318 19.163,9.285Z" style="fill:#bfbfbf;fill-rule:nonzero;"/><path d="M296.827,357.944c23.078,-1.01 45.949,-6.585 64.721,-19.666c23.936,-16.698 28.475,-34.831 20.558,-62.95l0,-6.697c6.734,3.141 20.878,8.876 27.435,12.23c13.199,43.692 21.991,138.736 12.649,183.437c-1.81,8.663 -0.033,17.325 -0,26.19c0.025,11.687 16.64,60.36 21.355,87.708c2.522,14.531 6.417,63.875 -0,69.349c-37.955,32.377 -100.818,54.279 -144.155,57.633c-43.3,-3.354 -62.655,-3.581 -138.038,-52.499c-7.106,-4.611 -8.076,-23.44 -13.029,-30.174c-0.029,0 -0.029,0 -0.029,-0.029c-6.792,-12.252 7.439,-99.901 13.058,-110.149c15.886,-28.967 16.938,-39.366 15.129,-48.029c-9.372,-44.701 5.956,-145.282 19.155,-188.97c6.528,-3.354 9.87,-3.556 16.571,-6.697l-0,6.697c-7.917,28.119 -4.062,46.252 19.903,62.95c18.775,13.11 41.672,18.656 64.717,19.666Z" style="fill:#242860;fill-rule:nonzero;"/><path d="M234.55,137.608c-0.348,-2.935 -0.528,-5.933 -0.528,-8.978c0,-37.266 26.937,-67.522 60.116,-67.522c33.179,-0 60.116,30.256 60.116,67.522c0,1.021 -0.02,2.037 -0.06,3.044c2.451,-1.7 5.756,-2.252 8.563,-1.223c1.396,0.503 2.612,1.364 3.622,2.402c1.512,1.542 2.609,3.528 3.202,5.634c0.977,3.502 0.655,7.269 -0.062,10.83c-1.896,9.223 -7.088,18.269 -15.569,22.361l-0.058,-0c-1.306,16.88 -6.944,41.26 -27.5,52.976c-7.414,4.27 -16.785,6.85 -28.621,6.85c-14.625,-0 -25.596,-3.825 -33.817,-9.788c-15.363,-11.094 -21.087,-29.54 -23.103,-43.985c-5.489,-2.019 -10.142,-6.173 -13.109,-11.213c-3.202,-5.427 -4.537,-11.893 -4.241,-18.182c0.087,-2.493 0.474,-4.982 1.661,-7.179c0.116,-0.177 0.206,-0.383 0.326,-0.564c1.245,-1.9 3.173,-3.409 5.427,-3.619c1.235,-0.139 2.471,0.124 3.635,0.634Z" style="fill:#bfbfbf;"/><path d="M148.973,547.153c-3.577,14.278 -8.313,79.243 -10.763,97.592c-0.854,6.392 -1.657,12.878 -0.727,19.248c1.196,8.026 5.027,15.389 8.163,22.876c9.145,21.67 12.961,45.504 11.061,68.918c-0.653,7.654 -2.009,15.645 -6.764,21.66c-5.531,-5.311 -10.093,-11.625 -13.453,-18.537c4.444,11.185 8.156,22.64 11.194,34.284c0.952,3.64 1.084,8.765 -2.506,9.869c-2.068,0.65 -4.215,-0.549 -6.001,-1.721c-1.702,-1.134 -3.373,-2.298 -5.004,-3.549c-5.81,-4.323 -11.218,-9.241 -16.058,-14.621c-0.274,3.724 -0.576,7.45 -0.85,11.181c-8.406,-2.134 -15.323,-9.219 -17.262,-17.659c0.035,3.188 -4.487,4.786 -7.256,3.215c-2.798,-1.573 -4.072,-4.877 -4.826,-7.995c-4.528,-18.091 0.252,-37.038 5.463,-54.948c3.173,-10.801 6.459,-21.563 9.836,-32.319c-8.471,-47.468 -12.85,-96.384 -3.083,-143.55c4.472,-21.622 11.87,-42.578 16.021,-64.282c6.167,-32.174 5.035,-65.331 9.498,-97.805c4.464,-32.448 15.755,-65.911 40.938,-86.873c9.563,-7.951 20.512,-13.634 31.99,-18.498c-16.363,42.604 -21.846,89.37 -15.772,134.637c1.17,8.772 2.784,17.576 2.106,26.415c-0.913,11.651 -5.704,22.601 -10.129,33.458c-10.48,25.672 -19.108,52.075 -25.816,79.004Z" style="fill:#bfbfbf;fill-rule:nonzero;"/><path d="M296.771,270.384l-160.791,377.161l321.579,0l-160.788,-377.161Z" style="fill:none;stroke:#7e7e7e;stroke-width:3.96px;"/><path d="M155.21,647.545c83.897,70.621 177.723,86.968 288.335,0" style="fill:none;stroke:#bfbfbf;stroke-width:8.33px;stroke-linecap:round;stroke-linejoin:round;"/><path d="M185.909,980.559c-6.516,-36.834 -17.548,-73.307 -13.938,-110.2c39.298,8.93 79.52,13.735 119.828,14.386c1.854,31.98 -2.735,63.877 -6.911,95.814l-98.979,-0Z" style="fill:#bfbfbf;fill-rule:nonzero;"/><path d="M313.881,980.559c-4.176,-31.937 -8.765,-63.834 -6.896,-95.814c40.28,-0.651 80.53,-5.485 119.832,-14.415c3.63,36.898 -7.435,73.374 -13.951,110.229l-98.985,-0Z" style="fill:#bfbfbf;fill-rule:nonzero;"/></svg>