<?xml version="1.0" encoding="UTF-8" standalone="no"?><!DOCTYPE svg PUBLIC "-//W3C//DTD SVG 1.1//EN" "http://www.w3.org/Graphics/SVG/1.1/DTD/svg11.dtd"><svg width="100%" height="100%" viewBox="0 0 595 1696" version="1.1" xmlns="http://www.w3.org/2000/svg" xmlns:xlink="http://www.w3.org/1999/xlink" xml:space="preserve" xmlns:serif="http://www.serif.com/" style="fill-rule:evenodd;clip-rule:evenodd;stroke-miterlimit:2;"><path d="M465.811,1003.39c-0.104,0.475 -0.209,0.513 -0.309,0.071c-6.321,1.638 -12.641,3.208 -19.024,4.608c-45.259,10.28 -91.609,15.85 -137.992,16.6c-1.742,0.034 -3.45,0.067 -5.192,0.067c-1.471,-17.692 -2.596,-35.421 -3.312,-53.179l-0.48,-0c-0.75,17.758 -1.846,35.487 -3.312,53.179c-1.742,0 -3.45,-0.033 -5.192,-0.067c-46.416,-0.75 -92.733,-6.283 -137.987,-16.566c-6.392,-1.434 -12.708,-3.004 -19.029,-4.609c-0.1,0.442 -0.205,0.409 -0.305,-0.07c-1.608,-7.238 -7.071,-180.171 -6.629,-187.584c1.267,-21.279 3.142,-42.491 5.671,-63.633l0.992,-0.683c0.342,0.545 0.683,1.058 1.058,1.537c0,0.033 0,0.033 0.033,0.033c5.704,7.755 14.413,13.084 22.917,17.863c43.825,24.592 92.158,43.071 142.021,46.933c49.904,-3.862 98.237,-22.341 142.021,-46.933c8.475,-4.746 17.15,-10.075 22.854,-17.792c0.033,-0.037 0.033,-0.071 0.066,-0.104c0.376,-0.479 0.717,-0.992 1.059,-1.537l1.025,0.683c2.529,21.142 4.408,42.354 5.671,63.633c0.441,7.413 -5.021,180.309 -6.625,187.55Z" style="fill:#fff;fill-rule:nonzero;"/><path d="M520.215,794.068c3.901,12.382 7.736,24.769 11.369,37.237c6.057,20.616 11.551,42.43 6.393,63.267c-0.898,3.593 -2.327,7.397 -5.547,9.213c-3.22,1.815 -8.392,-0.023 -8.36,-3.694c-2.222,9.721 -10.212,17.892 -19.855,20.357c-0.354,-4.294 -0.673,-8.586 -0.993,-12.875c-5.6,6.205 -11.788,11.872 -18.507,16.86c-1.877,1.443 -3.799,2.785 -5.757,4.093c-2.055,1.352 -4.526,2.735 -6.872,1.987c-4.172,-1.265 -3.993,-7.169 -2.906,-11.361c3.455,-13.411 7.749,-26.608 12.818,-39.491c-3.827,7.96 -9.105,15.239 -15.468,21.362c-5.446,-6.922 -7.055,-16.12 -7.783,-24.936c-2.251,-26.957 2.143,-54.41 12.617,-79.374c3.64,-8.627 8.042,-17.111 9.372,-26.352c1.062,-7.337 0.163,-14.807 -0.829,-22.167c-2.84,-21.126 -17.02,-89.397 -21.16,-105.869c-7.754,-31.001 -9.084,-67.893 -21.184,-97.442c-5.109,-12.497 -10.673,-25.097 -11.702,-38.516c-0.796,-10.178 1.051,-20.318 2.388,-30.42c6.904,-52.132 0.567,-105.943 -18.329,-154.988c13.189,5.594 25.803,12.087 36.825,21.231c29.063,24.103 42.069,62.627 47.284,99.984c5.185,37.389 3.918,75.572 11.028,112.617c4.807,24.987 13.352,49.111 18.529,74.003c11.34,54.299 6.36,110.604 -3.371,165.274Z" style="fill:#242860;fill-rule:nonzero;"/><path d="M456.348,1593.2c1.709,7.858 -7.208,13.558 -14.758,16.325c-7.579,2.766 -15.333,5.158 -23.154,7.175c-10.554,2.733 -22.1,4.712 -32.104,0.37c-6.63,-2.866 -11.855,-8.229 -16.876,-13.454c-11.208,-11.646 -22.408,-23.296 -33.645,-34.979c-4.371,-4.571 -8.913,-9.321 -11.133,-15.296c-3.863,-10.454 0.137,-21.966 3.108,-32.758c20.833,-75.45 -10.555,-155 -8.813,-233.25c0.479,-21.008 3.346,-41.875 3.996,-62.846c2.083,-66.846 -18.379,-133.175 -14.483,-199.817c46.383,-0.75 92.733,-6.316 137.992,-16.6c5.429,55.196 -17.696,109.571 -20.801,165.146c-2.05,35.967 4.338,71.9 3.959,107.9c-0.683,63.084 -21.996,124.325 -25.683,187.313c-1.467,25.275 0.17,51.641 12.058,73.979c8.712,16.429 22.371,29.579 35.25,43.004c2.183,2.254 4.404,4.713 5.087,7.788Z" style="fill:#242860;fill-rule:nonzero;"/><path d="M408.394,320.778l-0.887,1.946c9.117,32.379 -8.613,68.141 -36.175,87.37c-21.617,15.063 -47.954,21.484 -74.529,22.646c-26.538,-1.162 -52.904,-7.55 -74.525,-22.646c-27.596,-19.229 -45.325,-54.991 -36.209,-87.37l-0.887,-1.946c7.446,-3.45 14.858,-6.9 22.067,-10.692c23.671,-12.466 46.929,-31.596 54.133,-56.496c9.466,6.867 22.1,11.271 38.942,11.271c13.629,0 24.42,-2.971 32.958,-7.887c8.271,23.258 30.504,41.225 53.046,53.112c7.208,3.792 14.62,7.275 22.066,10.692Z" style="fill:#242860;fill-rule:nonzero;"/><path d="M296.788,418.04c26.575,-1.162 52.913,-7.583 74.53,-22.646c27.562,-19.229 32.789,-40.11 23.673,-72.489l-0,-7.712c7.754,3.616 24.042,10.221 31.592,14.083c15.2,50.313 25.324,159.761 14.565,211.236c-2.083,9.975 -0.037,19.95 0,30.158c0.029,13.459 19.163,69.508 24.592,100.999c2.904,16.734 7.39,73.556 -0,79.86c-43.707,37.283 -116.096,62.504 -166,66.366c-49.863,-3.862 -72.15,-4.124 -158.957,-60.455c-8.183,-5.31 -9.3,-26.992 -15.004,-34.746c-0.033,-0 -0.033,-0 -0.033,-0.034c-7.821,-14.108 8.566,-115.04 15.037,-126.841c18.293,-33.357 19.505,-45.332 17.421,-55.307c-10.791,-51.475 6.859,-167.298 22.059,-217.607c7.517,-3.862 11.365,-4.096 19.081,-7.712l0,7.712c-9.116,32.379 -4.676,53.26 22.919,72.489c21.621,15.096 47.988,21.484 74.525,22.646Z" style="fill:#fff;fill-rule:nonzero;"/><path d="M225.073,164.314c-0.4,-3.38 -0.607,-6.832 -0.607,-10.338c-0,-42.914 31.019,-77.755 69.226,-77.755c38.207,-0 69.226,34.841 69.226,77.755c0,1.176 -0.023,2.346 -0.069,3.505c2.822,-1.958 6.628,-2.594 9.86,-1.409c1.608,0.579 3.008,1.571 4.171,2.767c1.741,1.775 3.004,4.062 3.687,6.487c1.125,4.034 0.754,8.371 -0.071,12.471c-2.183,10.621 -8.162,21.038 -17.929,25.75l-0.066,0c-1.505,19.438 -7.996,47.513 -31.667,61.004c-8.538,4.917 -19.329,7.888 -32.958,7.888c-16.842,-0 -29.475,-4.404 -38.942,-11.271c-17.692,-12.775 -24.283,-34.017 -26.604,-50.65c-6.321,-2.325 -11.679,-7.108 -15.096,-12.912c-3.688,-6.25 -5.225,-13.696 -4.883,-20.938c0.1,-2.871 0.545,-5.737 1.912,-8.267c0.133,-0.204 0.238,-0.441 0.375,-0.65c1.434,-2.187 3.654,-3.925 6.25,-4.166c1.422,-0.161 2.846,0.142 4.185,0.729Z" style="fill:#242860;"/><path d="M290.998,1024.67c3.863,66.642 -16.566,132.971 -14.516,199.817c0.65,20.971 3.516,41.838 3.995,62.846c1.742,78.25 -29.612,157.8 -8.775,233.25c2.971,10.792 6.967,22.304 3.071,32.758c-2.221,5.975 -6.729,10.725 -11.133,15.296c-11.204,11.683 -22.408,23.333 -33.646,34.979c-5.021,5.225 -10.213,10.588 -16.871,13.454c-10.008,4.342 -21.521,2.363 -32.108,-0.37c-7.821,-2.017 -15.538,-4.409 -23.154,-7.175c-7.55,-2.767 -16.467,-8.467 -14.758,-16.325c0.683,-3.075 2.937,-5.534 5.124,-7.788c12.876,-13.425 26.5,-26.575 35.246,-43.004c11.892,-22.338 13.492,-48.704 12.025,-73.979c-3.687,-62.988 -25,-124.229 -25.65,-187.313c-0.412,-36 5.975,-71.933 3.963,-107.9c-3.142,-55.537 -26.2,-109.916 -20.8,-165.112c45.254,10.283 91.571,15.816 137.987,16.566Z" style="fill:#242860;fill-rule:nonzero;"/><path d="M126.528,635.922c-4.119,16.443 -9.573,91.253 -12.394,112.382c-0.983,7.36 -1.908,14.829 -0.838,22.165c1.378,9.242 5.789,17.721 9.401,26.342c10.531,24.955 14.925,52.4 12.737,79.362c-0.752,8.815 -2.313,18.017 -7.789,24.943c-6.369,-6.116 -11.622,-13.387 -15.491,-21.346c5.116,12.88 9.391,26.07 12.89,39.479c1.096,4.191 1.248,10.093 -2.886,11.365c-2.382,0.748 -4.854,-0.632 -6.911,-1.982c-1.959,-1.305 -3.883,-2.646 -5.762,-4.087c-6.691,-4.978 -12.918,-10.641 -18.492,-16.837c-0.314,4.289 -0.663,8.579 -0.978,12.876c-9.68,-2.457 -17.645,-10.616 -19.878,-20.335c0.04,3.671 -5.167,5.511 -8.356,3.702c-3.221,-1.811 -4.688,-5.616 -5.557,-9.206c-5.214,-20.834 0.29,-42.652 6.291,-63.276c3.654,-12.437 7.438,-24.831 11.326,-37.217c-9.754,-54.66 -14.797,-110.989 -3.549,-165.303c5.149,-24.898 13.668,-49.031 18.448,-74.023c7.102,-37.051 5.798,-75.232 10.937,-112.627c5.141,-37.365 18.143,-75.9 47.142,-100.038c11.013,-9.156 23.621,-15.7 36.838,-21.302c-18.843,49.061 -25.156,102.914 -18.162,155.041c1.347,10.101 3.206,20.239 2.425,30.417c-1.051,13.418 -6.569,26.027 -11.664,38.529c-12.068,29.563 -22.004,59.967 -29.728,90.976Z" style="fill:#242860;fill-rule:nonzero;"/><path d="M296.724,317.212l-185.158,434.317l370.312,-0l-185.154,-434.317Z" style="fill:none;stroke:#7e7e7e;stroke-width:3.96px;"/><path d="M133.711,751.529c96.61,81.322 204.654,100.147 332.029,-0" style="fill:none;stroke:#242860;stroke-width:8.33px;stroke-linecap:round;stroke-linejoin:round;"/></svg>